<?xml version="1.0" standalone="no"?>
<!DOCTYPE svg PUBLIC "-//W3C//DTD SVG 1.1//EN" "http://www.w3.org/Graphics/SVG/1.1/DTD/svg11.dtd" >
<svg xmlns="http://www.w3.org/2000/svg" xmlns:xlink="http://www.w3.org/1999/xlink" version="1.1">
<metadata>
Created by FontForge 20170812 at Tue Sep 28 18:21:44 2021
 By www-data
</metadata>
<defs>
<font id="MilkshakeRegular" horiz-adv-x="0" >
  <font-face 
    font-family="Milkshake"
    font-weight="400"
    font-stretch="normal"
    units-per-em="1000"
    panose-1="0 0 0 0 0 0 0 0 0 0"
    ascent="800"
    descent="-200"
    x-height="234.896"
    cap-height="718.603"
    bbox="-624 -895.045 1303.62 1357.99"
    underline-thickness="50"
    underline-position="-100"
    unicode-range="U+000A-F01C"
  />
<missing-glyph horiz-adv-x="527" 
d="M50 700h427v-700h-427v700zM78 680l185 -309l186 309h-371zM251 350l-180 300v-601zM264 329l-185 -308h370zM276 350l181 -303v605z" />
    <glyph glyph-name="tt.liga" unicode="tt" horiz-adv-x="716" 
d="M1045.14 817.179c66.2021 -28.0703 116.035 -99.9951 105.929 -173.301c-8.95117 -64.9316 -58.8701 -113.414 -112.545 -145.852c-64.2695 -38.8418 -139.708 -60.7451 -213.204 -73.707c-82.9062 -14.626 -167.157 -16.7178 -251.055 -10.8291
c-9.28125 -22.9795 -19.8867 -45.3613 -31.8027 -66.8125c-21.5742 -38.8379 -47.4775 -75.041 -73.6523 -110.966c-7.09766 -53.0537 -11.1484 -106.508 -12.6904 -160.189c-1.38867 -48.4727 -0.43457 -97.4404 3.11426 -145.801
c1.65039 -22.4971 1.53125 -46.6855 6.41113 -68.6807c3.49805 -15.7666 10.6973 -33.5576 23.1562 -44.3906c32.6748 -28.4131 79.9385 14.582 102.925 37.9863c24.6543 25.1025 44.5645 54.6562 61.7988 85.2119c29.1836 51.7393 49.582 107.522 70.6943 162.857
c1.99707 5.22949 19.8291 4.95801 18.0293 -1.65039c-13.1348 -48.2207 -31.123 -94.8662 -53.5488 -139.569c-25.5977 -51.0195 -58.2148 -102.398 -104.531 -137.07c-45.6572 -34.1758 -104.932 -40.0918 -148.603 1.03223
c-52.6318 49.5654 -72.9395 122.875 -79.5576 192.643c-0.448242 4.72656 -0.862305 9.45312 -1.24219 14.1797c-9.1582 -24.0762 -19.5322 -47.6943 -31.1191 -70.7861c-25.5977 -51.0195 -58.2148 -102.398 -104.531 -137.07
c-45.6572 -34.1758 -104.932 -40.0918 -148.603 1.03223c-52.6318 49.5654 -72.9395 122.875 -79.5576 192.643c-14.3408 151.102 6.29199 303.361 53.0459 447.44c5.08008 15.6553 10.6973 31.4492 17.0098 46.9717c-77.2627 17.9404 -154.861 34.1797 -233.614 44.54
c-146.307 19.2441 -365.172 30.8984 -427.646 -140.229c-1.91504 -5.25293 -19.7637 -4.47559 -17.5635 1.60645c58.7578 162.332 262.62 166.886 405.327 152.657c93.2979 -9.30078 185.562 -27.9131 277.532 -48.9502c6.58105 15.2783 13.8857 30.2031 22.2324 44.2959
c17.8584 30.1621 43.1201 64.1475 74.7393 81.1738c24.7559 13.332 71.9951 18.3818 86.7295 -12.2041c6.78516 -14.0859 4.66992 -32.6543 3.58008 -47.6533c-1.31445 -18.0928 -4.1875 -36.1992 -7.63379 -54.0039c-3.31445 -17.1016 -7.34863 -34.1797 -12.0557 -51.1182
c56.6934 -13.2334 113.448 -25.7979 170.438 -36.084c1.94629 6.34668 3.92578 12.6836 5.97656 19c11.1787 34.4541 24.7793 69.6621 43.2734 100.891c17.8584 30.1621 43.1201 64.1475 74.7393 81.1738c24.7559 13.332 71.9951 18.3818 86.7295 -12.2041
c6.78516 -14.0859 4.66992 -32.6543 3.58008 -47.6533c-1.31445 -18.0928 -4.1875 -36.1992 -7.63379 -54.0039c-7.19238 -37.1201 -17.7061 -74.125 -31.3916 -109.825c57.0303 -3.9082 114.461 -3.99316 172.466 1.35156c79.0312 7.28027 158.715 25.2168 230.979 58.6426
c56.9482 26.3418 114.719 67.1533 137.756 128.004c24.667 65.1455 -3.88867 137.888 -58.4434 178.336c-64.5039 47.8203 -152.338 37.3066 -216.414 -5.4541c-4.2959 -2.86621 -11.2607 -4.35742 -16.2559 -2.54102c-2.48535 0.90332 -9.38184 4.13281 -4.54297 7.3584
c63.9062 42.6006 148.941 58.2285 221.246 27.5713zM541.878 525.458c-11.4404 -31.2354 -22.1338 -63.0469 -31.6553 -95.1377c14.2656 -1.69141 28.5518 -3.18945 42.8652 -4.44922c9.91602 26.7529 18.1064 54.2051 24.7178 81.8369
c5.4707 22.8672 9.57617 45.8945 10.2148 69.4414c0.295898 10.9385 0.452148 22.3115 -1.19824 33.1445c-0.523438 3.43359 -1.28711 7.0127 -2.44824 10.4014c-5.40918 -10.3066 -11.8955 -20.4092 -16.5547 -30.7295
c-9.58691 -21.2275 -17.9268 -42.6318 -25.9414 -64.5078zM176.824 525.459c-3.31738 -9.06348 -6.55078 -18.1895 -9.73242 -27.3408c13.583 -3.23926 27.166 -6.47559 40.7529 -9.68457c1.71191 6.41504 3.36523 12.8369 4.90723 19.2754
c5.4707 22.8672 9.57617 45.8945 10.2148 69.4414c0.295898 10.9385 0.452148 22.3115 -1.19824 33.1445c-0.523438 3.43359 -1.28711 7.0127 -2.44824 10.4014c-5.40918 -10.3066 -11.8955 -20.4092 -16.5547 -30.7295
c-9.58691 -21.2275 -17.9268 -42.6318 -25.9414 -64.5078zM205.006 478.049c-13.8105 3.30371 -27.6191 6.63086 -41.4229 9.96875c-13.1211 -38.5059 -24.8906 -77.6836 -34.5107 -117.004c-7.32129 -29.9277 -13.4648 -60.0391 -18.5557 -90.2998
c22.4775 32.8682 43.4707 66.667 60.1338 102.985c13.9297 30.3584 25.251 62.1064 34.3555 94.3496zM288.468 -60.1553c25.8594 45.8506 44.8203 94.8809 63.4971 143.954c-3.45703 119.018 13.9365 237.906 47.8916 352.129
c-17.1865 3.08691 -34.3115 6.37109 -51.3486 9.83789c-39.7588 8.08887 -79.3408 17.0977 -118.854 26.4297c-12.8906 -43.6201 -30.3721 -86.1396 -52.248 -125.521c-21.5742 -38.8379 -47.4775 -75.041 -73.6523 -110.966
c-7.09766 -53.0537 -11.1484 -106.508 -12.6904 -160.189c-1.38867 -48.4727 -0.43457 -97.4404 3.11426 -145.801c1.65039 -22.4971 1.53125 -46.6855 6.41113 -68.6807c3.49805 -15.7666 10.6973 -33.5576 23.1562 -44.3906
c32.6748 -28.4131 79.9385 14.582 102.925 37.9863c24.6543 25.1025 44.5645 54.6562 61.7988 85.2119zM535.698 383.703c4.79199 10.4424 9.26172 21.0586 13.4492 31.793c-14.0049 1.24316 -27.9961 2.68945 -41.9668 4.33301
c-4.67285 -16.2217 -9.07031 -32.501 -13.0605 -48.8115c-7.32129 -29.9277 -13.4648 -60.0391 -18.5557 -90.2998c22.4775 32.8682 43.4707 66.667 60.1338 102.985z" />
    <glyph glyph-name=".notdef" horiz-adv-x="527" 
d="M50 700h427v-700h-427v700zM78 680l185 -309l186 309h-371zM251 350l-180 300v-601zM264 329l-185 -308h370zM276 350l181 -303v605z" />
    <glyph glyph-name=".null" 
 />
    <glyph glyph-name=".null" 
 />
    <glyph glyph-name="LF" unicode="&#xa;" 
 />
    <glyph glyph-name="controlCR" unicode="&#xd;" 
 />
    <glyph glyph-name="space" unicode=" " horiz-adv-x="430" 
 />
    <glyph glyph-name="exclam" unicode="!" horiz-adv-x="230" 
d="M167.414 571.973c12.2451 -83.582 12.4473 -170.06 12.6338 -254.423c0.0917969 -42.5537 -1.00879 -84.9717 -3.42676 -127.457c-2.39453 -42.0371 -2.75098 -89.6875 -26.3896 -125.836c-10.7549 -16.4492 -61.7568 -22.4434 -72.25 -2.52344
c-20.2559 38.458 -14.8018 85.4668 -14.6455 127.752c0.152344 41.3066 -0.0175781 82.6611 -0.700195 123.965c-1.40625 85.0215 -9.92676 169.534 -12.627 254.42c-0.744141 23.4346 42.4648 28.2061 57.7598 29.0547c17.6758 0.981445 56.2666 -1.8877 59.6455 -24.9521z
M135.702 14.4365c26.416 -24.2666 14.5361 -69.7344 4.79688 -99.8525c-5.55176 -17.1621 -42.8887 -17.9092 -55.8438 -16.6904c-13.5498 1.28027 -38.0918 6.68262 -32.9062 24.8096c4.37402 15.2949 9.33887 30.4307 13.5703 45.7627
c3.94629 14.2998 7.29785 28.2979 15.6826 40.7607c9.21289 13.6992 42.8594 16.0869 54.7002 5.20996z" />
    <glyph glyph-name="quotedbl" unicode="&#x22;" horiz-adv-x="302" 
d="M126.06 566.669c15.5225 -1.13379 42.5098 -7.68945 37.0186 -27.9121c-6.04785 -22.2764 -13.7871 -43.9688 -20.3545 -66.0859c-5.77246 -19.4414 -11.583 -44.7061 -31.8965 -53.1582c-29.8359 -12.4189 -54.252 9.03906 -59.3018 37.3535
c-5.2334 29.3438 4.08105 62.9287 11.708 91.0264c5.28711 19.4688 49.0156 19.7812 62.8262 18.7764zM172.784 545.684c9.18262 23.7539 88.9385 18.6348 78.1191 -7.14941c-7.31445 -17.4307 -14.7314 -34.8545 -20.749 -52.791
c-5.5459 -16.5244 -10.1172 -33.5547 -18.7461 -48.7988c-8.00781 -14.1504 -40.5811 -12.751 -50.2461 -1.75488c-12.6191 14.3574 -7.97656 35.4014 -4.59082 52.5576c3.89551 19.7334 8.95898 39.1748 16.2129 57.9365z" />
    <glyph glyph-name="quotedbl" unicode="&#x201d;" horiz-adv-x="302" 
d="M126.06 566.669c15.5225 -1.13379 42.5098 -7.68945 37.0186 -27.9121c-6.04785 -22.2764 -13.7871 -43.9688 -20.3545 -66.0859c-5.77246 -19.4414 -11.583 -44.7061 -31.8965 -53.1582c-29.8359 -12.4189 -54.252 9.03906 -59.3018 37.3535
c-5.2334 29.3438 4.08105 62.9287 11.708 91.0264c5.28711 19.4688 49.0156 19.7812 62.8262 18.7764zM172.784 545.684c9.18262 23.7539 88.9385 18.6348 78.1191 -7.14941c-7.31445 -17.4307 -14.7314 -34.8545 -20.749 -52.791
c-5.5459 -16.5244 -10.1172 -33.5547 -18.7461 -48.7988c-8.00781 -14.1504 -40.5811 -12.751 -50.2461 -1.75488c-12.6191 14.3574 -7.97656 35.4014 -4.59082 52.5576c3.89551 19.7334 8.95898 39.1748 16.2129 57.9365z" />
    <glyph glyph-name="quotedbl" unicode="&#x201c;" horiz-adv-x="302" 
d="M126.06 566.669c15.5225 -1.13379 42.5098 -7.68945 37.0186 -27.9121c-6.04785 -22.2764 -13.7871 -43.9688 -20.3545 -66.0859c-5.77246 -19.4414 -11.583 -44.7061 -31.8965 -53.1582c-29.8359 -12.4189 -54.252 9.03906 -59.3018 37.3535
c-5.2334 29.3438 4.08105 62.9287 11.708 91.0264c5.28711 19.4688 49.0156 19.7812 62.8262 18.7764zM172.784 545.684c9.18262 23.7539 88.9385 18.6348 78.1191 -7.14941c-7.31445 -17.4307 -14.7314 -34.8545 -20.749 -52.791
c-5.5459 -16.5244 -10.1172 -33.5547 -18.7461 -48.7988c-8.00781 -14.1504 -40.5811 -12.751 -50.2461 -1.75488c-12.6191 14.3574 -7.97656 35.4014 -4.59082 52.5576c3.89551 19.7334 8.95898 39.1748 16.2129 57.9365z" />
    <glyph glyph-name="numbersign" unicode="#" horiz-adv-x="465" 
d="M396.593 557.71c2.28223 5.34863 20.5205 4.34473 18.0215 -1.66211c-36.6787 -88.2754 -67.9072 -178.604 -93.7666 -270.432c18.8945 -1.59277 37.7656 -3.88477 56.5723 -6.94434c12.4395 -2.02441 -3.15039 -9.17285 -9.60254 -8.11719
c-16.4287 2.68262 -32.9219 4.7002 -49.4463 6.1709c-3.85059 -13.875 -7.56934 -27.7881 -11.1719 -41.7275c22.8477 -0.152344 45.6914 -1.10645 68.5078 -2.94336c16.1572 -1.30078 4.79492 -11.6719 -5.97363 -10.8057
c-21.7334 1.75195 -43.5146 2.67188 -65.2959 2.81445c-25.7168 -101.39 -45.0322 -204.423 -57.8008 -308.431c-1.00488 -8.19043 -24.7109 -7.74512 -23.8623 -0.831055c12.8057 104.317 32.8311 207.585 59.4883 309.11
c-17.2783 -0.335938 -34.5498 -1.16113 -51.7871 -2.58398c-13.3936 -54.1123 -23.6895 -109.122 -32.4609 -164.148c-4.59082 -28.7998 -9.34473 -57.5898 -13.668 -86.4307c-4.35352 -29.0244 -7.10449 -60.1133 -27.6592 -82.4375
c-12.2451 -13.2949 -46.7363 -11.0498 -58.1289 1.46387c-20.0254 21.9883 -17.957 58.6631 -18.0557 86.5908c-0.101562 28.8984 1.44043 57.2812 4.35059 86.0342c4.70996 46.5439 12.7207 92.6328 22.7822 138.293c-15.0059 -3.25293 -30.043 -6.48242 -45.2363 -9.33789
c-3.52832 -0.666016 -18.5928 3.34082 -9.54297 7.01172c18.4326 7.48145 38.084 13.1494 58.208 17.6016c1.27637 5.52832 2.55664 11.0537 3.8877 16.5684c2.70996 11.2197 5.55957 22.4092 8.4834 33.5752c-17.2002 -3.43359 -34.3018 -7.49121 -51.2471 -12.2383
c-6.23438 -1.74512 -21.8076 3.89844 -9.89844 7.24707c21.0645 5.91895 42.3262 10.8154 63.7129 14.7988c11.4844 42.7949 24.6572 85.1172 39.9551 126.733c19.7842 53.8135 40.1426 110.996 72.5488 158.612c14.0244 20.6094 47.3584 22.3887 69.5166 20.7725
c16.249 -1.18164 48.207 -8.67969 40.96 -30.8779c-17.7471 -54.3574 -45.5859 -105.52 -65.499 -159.256c-12.6699 -34.1895 -24.3418 -68.8135 -34.7803 -103.787c17.0029 0.244141 34.0225 -0.0576172 51.0322 -0.998047c26.8711 91.9727 59.2373 182.36 96.8564 270.591
zM285.134 234.882c3.88477 14.5068 7.88477 28.9844 12.0381 43.4199c-17.0098 0.977539 -34.0332 1.29297 -51.0469 1.00098c-4.5332 -15.5322 -8.8252 -31.1289 -12.8389 -46.791c17.2676 1.30762 34.5527 2.06445 51.8477 2.37012z" />
    <glyph glyph-name="dollar" unicode="$" horiz-adv-x="407" 
d="M295.391 486.825c-12.3643 19.3359 -29.9189 33.2266 -48.9395 39.0908c-10.4424 -95.6846 -18.1377 -192.185 -19.2891 -288.27c50.0107 -72.2363 116.104 -142.395 128.119 -231.852c6.0918 -45.3613 -12.0283 -88.7432 -57.0947 -105.264
c-18.8604 -6.91406 -39.7002 -8.51367 -59.7148 -5.20312c0.916992 -22.3037 1.71875 -44.6143 2.2959 -66.9424c0.34668 -13.3965 -40.1689 -14.8838 -41.5205 -1.4502c-2.8623 28.4365 -4.73047 57.04 -5.875 85.7246c-3.875 2.52637 -7.61035 5.26367 -11.125 8.2793
c-70.542 60.4834 -61.3389 161.034 -24.4531 237.305c-56.6055 72.2061 -124.403 159.13 -104.123 257.021c16.9287 81.7002 94.8496 137.104 176.303 130.454c1.95215 15.9736 4.02734 31.9443 6.23828 47.9111c0.855469 6.18066 18.7783 5.92285 18.1367 0.635742
c-2.06152 -17.0029 -4.05469 -34.043 -5.97656 -51.1104c1.00195 -0.197266 2.00684 -0.356445 3.00879 -0.574219c94.7441 -20.6367 104.789 -146.311 106.09 -224.34c0.128906 -7.63379 -23.1865 -8.28613 -23.3838 -0.81543
c-1.52832 58.0791 -6.56445 119.157 -38.6963 169.398zM241.438 35.8828c-3.27051 6.40137 -6.74023 12.7021 -10.3467 18.9434c2.12891 -48.5742 4.70312 -97.125 6.80176 -145.706c9.24023 -1.55859 18.2393 0.241211 25.5908 7.81738
c13.2129 13.6172 9.20215 36.7764 4.74316 53.2119c-6.19043 22.8066 -16.0518 44.7305 -26.7891 65.7334zM192.56 -62.2178c-1.41992 57.0703 -0.0566406 114.409 2.64941 171.483c-8.01074 10.9961 -16.2529 21.8154 -24.5527 32.5088
c-16.8193 -42.2988 -24.5078 -88.2002 -14.0723 -133.26c5.97656 -25.8086 18.1104 -50.9922 35.9756 -70.7324zM205.218 271.403c5.95996 86.0781 12.7275 171.891 22.7725 257.585c-17.9609 0.431641 -36.1592 -6.61133 -51.7158 -23.1963
c-28.9258 -30.8379 -29.4521 -78.5938 -21.5264 -117.656c8.33008 -41.0557 28.4404 -80.7363 50.4697 -116.732z" />
    <glyph glyph-name="percent" unicode="%" horiz-adv-x="623" 
d="M535.192 585.244c9.24707 -1.46387 48.249 -12.3184 34.8154 -30.4219c-35.7109 -48.1191 -74.957 -93.2334 -109.292 -142.486c-60.1094 -86.2236 -111.987 -177.697 -159.971 -271.12c-24.6475 -47.9863 -48.7578 -96.2041 -71.9619 -144.907
c-11.2607 -23.6416 -23.1904 -46.9238 -34.9668 -70.3105c-12.2559 -24.335 -27.0752 -53.2812 -47.6846 -71.4453c-14.5273 -12.8057 -72.6543 -20.0391 -77.6602 6.93457c-2.55664 13.7803 4.21484 30.8887 8.26953 44.0918
c4.29199 13.9775 9.11426 27.5371 14.5479 41.1133c11.0098 27.5029 22.6338 54.6055 34.8994 81.5684c43.9287 96.5742 91.2598 191.438 145.6 282.626c27.2852 45.7861 56.2451 90.5908 87.2969 133.915c31.6729 44.1904 64.7109 88.9883 103.783 126.943
c16.9521 16.4668 50.7949 16.9014 72.3242 13.499zM145.397 231.362c-1.78613 -8.93457 -1.27051 -18.0068 -3.02246 -26.8154c-0.529297 -2.68262 -4.59082 -9.74219 0.146484 -7.39551c4.19727 2.08203 8.33008 11.6992 10.293 15.5264
c10.4248 20.334 14.8496 44.2715 19.4238 66.457c5.04297 24.46 8.53711 49.3145 8.72363 74.3252c0.15918 21.2949 0.0166016 48.1221 -11.6514 66.8535c-16.5752 26.6064 -48.4014 16.3311 -68.4336 -0.257812c-16.5176 -13.6787 -27.3672 -31.8564 -33.1914 -52.3232
c-1.48047 -5.21289 -19.3154 -4.83301 -17.5635 1.60938c11.502 42.2412 50.3643 79.4395 96.3301 76.8926c48.6523 -2.69336 55.2266 -52.5371 55.4033 -92.0439c0.132812 -29.3232 -4.26465 -58.4834 -10.4756 -87.0762
c-4.80469 -22.124 -9.1748 -46.6455 -21.9902 -65.7568c-24.5928 -36.6816 -76.7363 -11.8174 -92.2422 20.9629c-23.377 49.416 -14.9277 110.219 1.37598 160.396c6.36426 19.5869 48.3604 19.9365 63.1152 18.8604c14.3711 -1.0459 44.251 -7.97363 37.1875 -28.0361
c-16.3408 -46.418 -23.8252 -94.1436 -33.4287 -142.178zM419.221 160.835c48.6523 -2.69629 55.2266 -52.5391 55.3994 -92.0391c0.128906 -29.3232 -4.26562 -58.4834 -10.4766 -87.0762c-4.80469 -22.124 -9.1748 -46.6455 -21.9902 -65.7578
c-24.5928 -36.6816 -76.7363 -11.8174 -92.2422 20.9629c-23.377 49.416 -14.9277 110.219 1.37598 160.396c6.36426 19.5869 48.3604 19.9365 63.1152 18.8604c14.3711 -1.0459 44.2549 -7.97363 37.1914 -28.0361c-16.3408 -46.418 -23.8252 -94.1436 -33.4287 -142.178
c-1.78613 -8.93457 -1.27344 -18.0049 -3.02246 -26.8174c-0.533203 -2.68262 -4.59082 -9.74219 0.146484 -7.39551c4.19727 2.08203 8.33008 11.6953 10.293 15.5254c10.4219 20.334 14.8496 44.2715 19.4238 66.4561c5.04297 24.46 8.54102 49.3145 8.72461 74.3252
c0.15918 21.2949 0.0166016 48.1221 -11.6514 66.8535c-16.5752 26.6064 -48.4014 16.3311 -68.4336 -0.257812c-16.5176 -13.6787 -27.3672 -31.8564 -33.1914 -52.3232c-1.48438 -5.21289 -19.3193 -4.83301 -17.5635 1.60938
c11.502 42.2412 50.3643 79.4395 96.3301 76.8926z" />
    <glyph glyph-name="ampersand" unicode="&#x26;" horiz-adv-x="459" 
d="M408.682 177.878c-28.5859 -71.2656 -67.5205 -137.604 -115.826 -197.317c-6.19727 -7.66406 -12.5508 -15.3994 -19.0908 -23.0879c26.5049 -19.4883 56.708 -34.3857 90.585 -43.0488c14.1133 -3.60938 -3.52832 -11.209 -11.0098 -9.30371
c-33.4258 8.50684 -63.3535 22.4365 -89.8789 40.4854c-35.7002 -40.2031 -77.1904 -76.9287 -129.751 -90.2402c-24.0293 -6.08496 -56.8193 -5.82031 -74.2842 14.6396c-21.3086 24.9629 -1.49707 59.5898 10.5518 83.9824
c22.834 46.2139 51.0293 89.1035 79.2246 132.054c-19.5195 43.0322 -31.8223 90.0107 -36.8545 137.261c-7.49805 70.4023 -2.16699 141.552 17.6885 209.561c18.5723 63.6143 54.0996 128.23 128.136 130.431c73.9443 2.2002 122.879 -55.8926 132.818 -124.689
c10.0615 -69.6348 -19.2139 -143.42 -49.627 -204.715c-33.2959 -67.1152 -76.8545 -129.47 -122.07 -189.04c-4.41504 -5.82031 -8.89746 -11.583 -13.3428 -17.3799c15.332 -21.7334 33.1123 -41.4834 53.2705 -58.4795c8.80859 10.3506 17.3359 20.9355 25.5908 31.6904
c42.1289 54.8867 76.875 115.397 103.994 179.019c2.49902 5.85742 22.5654 4.88281 19.876 -1.82031zM137.431 209.438c4.35645 -34.4746 13.0283 -69.0381 25.8643 -101.879c7.20605 11.0635 14.3545 22.1641 21.3496 33.3672
c37.4834 60.0215 72.4131 122.519 92.8936 190.608c9.84766 32.75 18.252 66.8682 21.6582 100.97c3.0459 30.4844 -1.64062 63.4346 -23.2998 86.625c-53.7393 57.543 -107.846 -56.7949 -121.059 -97.4434c-21.7061 -66.7764 -26.1885 -142.803 -17.4072 -212.248z
M213.809 -79.4648c11.9873 11.5293 23.4951 23.5967 34.583 36.0391c-20.4805 15.957 -38.6826 34.5088 -54.6162 55.0264c-15.8623 -20.5723 -31.7686 -41.1104 -47.5762 -61.7227c-8.2041 -10.7002 -62.0898 -75.8701 -24.8779 -82.2607
c17.5264 -3.00879 39.8301 11.4912 53.75 20.8604s26.6582 20.4434 38.7373 32.0576z" />
    <glyph glyph-name="quotesingle" unicode="'" horiz-adv-x="195" 
d="M65.4229 550.308c8.13281 23.5195 88.0957 20.3281 78.5801 -7.18848c-12.1064 -35.0176 -28.9707 -82.458 -62.6982 -101.709c-4.10547 -2.34277 -13.8281 -3.11035 -17.6514 0.427734c-26.3281 24.3555 -8.23828 79.5205 1.76953 108.47z" />
    <glyph glyph-name="quotesingle" unicode="&#x2019;" horiz-adv-x="195" 
d="M65.4229 550.308c8.13281 23.5195 88.0957 20.3281 78.5801 -7.18848c-12.1064 -35.0176 -28.9707 -82.458 -62.6982 -101.709c-4.10547 -2.34277 -13.8281 -3.11035 -17.6514 0.427734c-26.3281 24.3555 -8.23828 79.5205 1.76953 108.47z" />
    <glyph glyph-name="quotesingle" unicode="&#x2018;" horiz-adv-x="195" 
d="M65.4229 550.308c8.13281 23.5195 88.0957 20.3281 78.5801 -7.18848c-12.1064 -35.0176 -28.9707 -82.458 -62.6982 -101.709c-4.10547 -2.34277 -13.8281 -3.11035 -17.6514 0.427734c-26.3281 24.3555 -8.23828 79.5205 1.76953 108.47z" />
    <glyph glyph-name="parenleft" unicode="(" horiz-adv-x="381" 
d="M317.564 618.343c6.75098 1.31738 21.0195 -5.79395 8.59082 -8.74121c-15.8828 -3.7627 -32.1758 -8.59863 -43.9727 -20.1924c-9.60645 -9.44043 -19.7773 -18.7148 -28.457 -29.1162c-18.7217 -22.4395 -34.2402 -47.2734 -48.2686 -72.8545
c-58.8125 -107.241 -83.1807 -230.093 -72.6465 -351.623c9.89258 -114.101 58.749 -234.592 171.162 -281.207c15.0703 -6.25195 14.8457 -18.8096 0.90918 -26.0801c-16.833 -8.77441 -39.208 -8.33594 -56.6934 -1.97852
c-64.1377 23.3291 -116.468 74.0732 -148.423 133.701c-64.3105 119.995 -60.3379 269.623 -21.832 396.934c18.6602 61.6953 46.998 123.065 89.1367 172.35c39.3955 46.0781 90.7344 77.123 150.494 88.8086z" />
    <glyph glyph-name="parenright" unicode=")" horiz-adv-x="381" 
d="M231.774 508.912c75.8838 -107.842 109.28 -251.501 96.3145 -382.064c-12.7686 -128.516 -74.8447 -254.93 -202.365 -301.483c-15.0195 -5.48047 -37.7344 -5.19531 -51.8818 2.94434c-11.875 6.83594 -10.5947 19.0029 2.28906 24.3242
c57.6406 23.8047 101.247 67.7705 129.674 122.889c55.9092 108.405 55.9668 246.559 27.085 362.768c-14.5615 58.585 -38.2236 114.848 -68.5928 166.934c-12.8057 21.9639 -27.3027 43.4863 -44.5059 62.293c-7.99707 8.74121 -17.2812 18.8096 -26.4062 26.2637
c-10.4082 8.50293 -25.3496 12.3809 -38.2305 15.4473c-13.7637 3.28027 3.63965 10.2549 10.54 8.91016c67.9912 -13.2373 126.321 -52.7246 166.08 -109.225z" />
    <glyph glyph-name="asterisk" unicode="*" horiz-adv-x="230" 
d="M161.694 469.429c7.75586 2.18359 27.2705 -4.75195 12.3691 -9.05762c-11.5391 -3.33789 -23.1289 -5.01855 -34.7666 -5.85059c10.3203 -9.99023 20.2461 -20.4766 30.1318 -31.1055c4.71387 -5.06641 -17.6514 -9.29395 -22.9082 -3.72168
c-5.9873 6.35059 -12.0117 12.7109 -18.1211 18.9932c-0.261719 -8.68652 -0.733398 -17.3828 -1.4707 -26.0898c-0.692383 -8.16699 -24.5342 -7.89551 -23.8613 -0.835938c0.536133 5.64355 0.94043 11.2803 1.27637 16.917
c-4.50586 -6.35352 -8.88672 -12.8018 -13.0361 -19.4131c-4.21387 -6.7168 -27.1084 -3.96973 -23.1113 2.11523c9.83105 14.9688 20.5283 29.082 32.0508 42.4346c-13.2676 0.0947266 -26.5723 0.152344 -39.9014 -0.981445
c-10.1367 -0.862305 -15.5527 8.58496 -3.2627 9.81738c14.9209 1.49414 30.1445 1.19531 45.3447 1.12695c-12.3164 11.0469 -25.2822 21.3096 -39.4668 29.9795c-7.42676 4.54395 13.2471 8.54102 18.3711 5.63379c8.08203 -4.59082 15.7256 -9.66406 23.0811 -15.0605
c-0.353516 6.16992 -0.798828 12.3438 -1.39355 18.5205c-0.689453 7.15527 22.1035 8.34082 22.9082 0.801758c0.75 -7.02637 1.33105 -14.0488 1.76953 -21.0684c7.6543 7.20215 15.6279 14.1191 23.9512 20.7412c3.92578 3.12109 21.5771 1.56543 15.8076 -3.66406
c-12.1875 -11.0498 -23.7197 -22.7686 -34.5928 -35.0547c9.73926 0.753906 19.3838 2.16016 28.8311 4.82227z" />
    <glyph glyph-name="plus" unicode="+" horiz-adv-x="281" 
d="M220.128 206.281c5.83789 -0.523438 14.1523 -3.41406 9.34375 -9.8457c-4.25195 -5.67773 -18.3174 -4.43848 -23.5635 -2.22461c-1.10742 0.464844 -2.2793 0.807617 -3.48145 1.08301c1.33789 -59.7598 3.43359 -119.561 4.11914 -179.317
c0.261719 -22.9424 -41.0352 -27.4932 -56.3506 -28.3457c-15.7598 -0.875977 -56.8594 1.875 -58.1904 24.3457c-3.31738 55.9736 -2.34961 112.77 1.20605 168.855c-10.7617 -0.801758 -21.54 -1.36914 -32.332 -1.63379
c-14.3105 -0.349609 -14.5723 10.4658 -0.384766 10.9756c11.2031 0.404297 22.3652 1.12109 33.4863 2.16992c0.15918 2.28223 0.291992 4.57129 0.458008 6.84961c2.30273 31.3779 5.05371 62.5654 9.78418 93.6816c4.32324 28.4541 9.2168 66.1279 30.2949 87.1172
c0.254883 -0.108398 0.512695 -0.213867 0.770508 -0.322266c2.34668 2.17285 5.52539 4.00977 8.74512 5.11035c11.5869 3.96289 31.2695 4.05762 39.8643 -6.02832c17.9678 -21.0879 15.7705 -62.7646 16.6836 -89.167
c0.954102 -27.5303 1.08691 -55.0537 1.60352 -82.5938c5.83398 0.0576172 11.7803 -0.15625 17.9434 -0.709961z" />
    <glyph glyph-name="comma" unicode="," horiz-adv-x="258" 
d="M170.489 97.3359c13.7803 -1.30078 43.5479 -7.65918 36.335 -27.3955c-11.0977 -30.3525 -21.917 -61.8486 -39.2559 -89.3613c-18.3613 -29.1328 -41.7959 -46.4004 -74.457 -56.8359c-10.3203 -3.29395 -24.4434 -3.87793 -34.4844 0.842773
c-5.7832 2.7168 -13.1758 10.1396 -4.99219 15.6719c7.75586 5.24707 8.28223 15.8184 11.6816 24.1211c4.85938 11.8682 10.041 23.6553 15.0469 35.4727c10.9043 25.7441 19.5908 52.5645 28.4639 79.0586c6.34375 18.9453 47.1787 19.791 61.6621 18.4258z" />
    <glyph glyph-name="hyphen" unicode="-" horiz-adv-x="311" 
d="M209.677 207.914c11.8311 1.07324 51.375 -2.15625 51.3984 -21.5059c0.0273438 -20.3818 -35.6797 -24.1338 -49.7754 -25.0371c-45.457 -2.90723 -92.6592 -12.4229 -138.14 -8.98633c-15.1621 1.14453 -34.3076 12.0215 -15.0566 24.2363
c19.8652 12.6016 48.3057 16.833 71.0986 21.0137c26.6875 4.89355 53.4639 7.82422 80.4746 10.2793z" />
    <glyph glyph-name="period" unicode="." horiz-adv-x="185" 
d="M127.668 33.0723c12.9209 -11.9189 5.86035 -31.4512 2.50195 -46.3184c-6.66895 -29.5068 -89.0215 -25.2959 -79.3877 2.16602c5.93945 16.9219 11.3525 36.4004 28.417 45.3311c11.6338 6.0918 37.6768 8.77832 48.4688 -1.17871z" />
    <glyph glyph-name="slash" unicode="/" horiz-adv-x="453" 
d="M369.703 543.237c13.2979 -2.10156 39.7949 -9.49609 32.3955 -28.2988c-10.2354 -25.9814 -25.6045 -48.2178 -39.4971 -72.4131c-13.1348 -22.8711 -25.377 -46.2451 -36.9092 -69.9619c-23.6113 -48.5645 -43.9248 -98.5645 -63.6992 -148.785
c-20.9658 -53.2432 -40.8447 -106.932 -60.3438 -160.729c-9.95703 -27.4727 -20.2871 -54.8604 -31.0078 -82.0479c-5.81738 -14.752 -11.7705 -30.4512 -20.1514 -43.9561c-10.0449 -16.1816 -24.457 -25.4316 -40.2441 -35.5137
c-11.3525 -7.25391 -37.0693 -7.31836 -46.0615 3.96582c-9.88574 12.4014 -15.9062 24.4326 -13.7461 40.5762c1.98633 14.8398 6.85645 30.5791 11.0674 44.9092c8.13281 27.6592 16.6973 55.2334 26.0596 82.499c18.8301 54.8398 38.0469 109.577 58.4355 163.856
c19.3057 51.3965 40.7031 102.168 64.9531 151.435c24.7998 50.3877 50.8018 102.562 91.4639 141.906c15.8145 15.3047 47.2188 15.7256 67.2852 12.5576z" />
    <glyph glyph-name="zero" unicode="0" horiz-adv-x="429" 
d="M206.606 -154.867c-34.04 11.7734 -59.7041 40.6768 -75.3486 72.3262c-33.877 68.5283 -39.5752 150.242 -37.2256 225.43c1.37207 43.8301 5.3457 87.8643 11.499 131.552c-59.2305 65.8965 -80.0811 172.003 -17.4443 238.955
c38.8447 41.5176 104.31 49.1035 156.456 32.335c61.998 -19.9375 107.971 -72.2373 137.232 -128.533c60.8506 -117.041 62.0693 -267.164 26.9355 -392.145c-16.8906 -60.083 -39.1064 -129.494 -92.4316 -167.715c-31.0752 -22.2764 -74.2979 -24.4365 -109.673 -12.2051
zM268.199 -127.899c0.261719 -0.146484 0.241211 -0.0947266 0 0zM94.8818 326.452c4.14941 -8.41113 9.09863 -16.8809 14.7158 -25.1494c4.19043 25.7812 9.07715 51.4102 14.7617 76.7402c5.29395 23.5908 37.0283 27.6895 57.2881 28.8164
c13.0469 0.723633 29.2959 -1.09277 41.4463 -6.40723c5.6543 -2.47266 18.7822 -9.75977 17.7158 -18.3447c-6.54004 -52.6523 -15.9941 -104.816 -22.5654 -157.391c2.9541 -0.397461 5.92578 -0.703125 8.9209 -0.845703
c10.8672 -0.519531 6.05176 -8.60547 -2.17969 -8.49316c-2.62793 0.0341797 -5.23633 0.169922 -7.83789 0.353516c-2.31934 -19.6074 -4.2002 -39.2793 -5.32129 -59.0635c-4.04785 -71.4482 0.553711 -143.559 16.4736 -213.414
c6.0957 -26.749 16.7109 -50.041 36.8486 -68.7012c1.03906 -0.960938 1.74512 -1.52832 2.26855 -1.91504c4.71387 1.78613 9.27148 3.43945 13.7539 5.97656c11.665 6.60156 22.3926 15.7637 31.4727 25.5742c41.1035 44.4043 68.0225 101.104 80.1523 159.985
c23.2412 112.81 19.373 242.405 -33.4531 346.651c-25.4316 50.1836 -63.8389 98.4893 -116.854 120.974c-56.1738 23.8252 -122.036 7.29395 -151.227 -48.5342c-25.3467 -48.4756 -20.0596 -108.826 3.62012 -156.812z" />
    <glyph glyph-name="one" unicode="1" horiz-adv-x="326" 
d="M108.406 242.701c-36.3184 -3.21973 -46.4658 39.3975 -52.3643 67.1484c-8.87305 41.7549 -7.91211 85.3545 2.48242 126.739c15.4102 61.3428 57.7295 135.077 132.214 121.531c75.4453 -13.7227 112.671 -97.6201 126.169 -164.572
c16.8125 -83.46 10.9307 -169.137 2.84473 -253.238c-4.10938 -42.7168 -9.33203 -85.2363 -14.9521 -127.776c-5.21582 -39.4629 -9.54883 -79.0996 -17.3594 -118.135c22.8135 -1.24609 44.8428 5.09375 64.4844 18.4941c4.33691 2.95801 11.5293 4.42871 16.582 2.5918
c2.56738 -0.933594 9.53613 -4.18359 4.63574 -7.50781c-26.3008 -17.835 -56.9688 -26.3555 -88.0508 -24.8613c-0.128906 -0.587891 -0.237305 -1.17578 -0.366211 -1.75977c-5.05273 -22.7285 -35.7041 -26.6709 -55.1758 -27.7539
c-13.665 -0.756836 -58.0283 2.0957 -56.9795 23.8389c0.360352 7.41309 0.955078 14.7988 1.64062 22.1709c-20.0625 -8.30664 -34.5596 -27.9043 -47.1445 -44.5986c-4.28223 -5.68164 -25.1465 -3.31445 -21.2617 1.94531
c18.9756 25.7002 40.0469 47.9668 69.6318 54.7314c3.43359 30.2402 8.94824 60.2354 13.9336 90.292c6.52637 39.3848 13.1553 78.749 19.7471 118.124c11.6953 69.8428 23.459 140.259 30.0469 210.794c3.11035 33.3066 3.66016 67.0986 0.75293 100.446
c-2.62207 30.04 -7.21289 64.9219 -23.8965 90.7676c-22.2363 34.4512 -62.3242 28.8076 -88.333 1.83105c-22.5615 -23.4004 -35.4619 -57.084 -43.2686 -88.0674c-7.88184 -31.2656 -10.2012 -63.8662 -6.99219 -95.9434
c1.66406 -16.6494 4.79883 -33.1631 9.48145 -49.2285c2.20703 -7.56934 9.09375 -38.8076 21.1621 -38.3428c12.7344 0.489258 12.6152 -8.57422 0.335938 -9.66113z" />
    <glyph glyph-name="two" unicode="2" horiz-adv-x="354" 
d="M83.2803 -155.773c-24.5049 10.0078 -38.9785 29.6582 -31.1475 56.2412c3.66406 12.4287 11.8887 25.5879 19.3828 36.1084c7.23633 10.1572 16.4355 19.3018 26.1377 27.0986c28.3447 22.7832 60.6904 37.3379 94.2822 44.1768
c3.27051 8.40137 6.35059 16.7793 9.28418 25.0176c16.7891 47.1445 28.0938 95.4941 38.2949 144.388c10.4932 50.3027 20.4121 100.605 25.4414 151.814c4.78516 48.7236 6.60156 99.9395 -2.83594 148.235c-3.84766 19.6963 -11.8281 43.7285 -27.999 57.1016
c-22.9932 19.0166 -57.2236 7.48438 -78.4814 -8.0957c-36.1963 -26.5352 -59.3867 -71.1973 -68.4873 -114.457c-4.58398 -21.7744 -5.84375 -44.2959 -3.62598 -66.4404c1.73535 -17.332 6.16992 -64.0449 32.043 -61.8174
c9.02637 0.777344 13.8584 -7.45117 2.91016 -8.74805c-66.0625 -7.84473 -63.5459 90.8652 -55.4873 133.445c10.6523 56.2861 44.7402 118.28 101.017 139.603c52.3135 19.8213 104.446 -2.80566 138.13 -44.7168c41.8848 -52.123 50.2041 -123.008 52.9551 -187.62
c2.86914 -67.3633 -3.33203 -135.735 -15.8623 -201.92c-7.16504 -37.8467 -16.9727 -75.8359 -30.6377 -112.239c32.2168 -10.2012 62.6133 -27.3643 88.6055 -51.0879c8.21777 -7.49805 -16.4531 -11.7432 -22.043 -6.76172
c-21.0674 18.793 -45.4971 34.2607 -71.8555 44.2715c-7.8584 -19.2852 -16.8574 -38.0537 -27.2354 -56.0244c-14.415 -24.9629 -33.1562 -49.9902 -56.8457 -66.8545c-36.6924 -26.124 -93.1279 -38.1963 -135.939 -20.7178zM108.235 -69.1299
c-4.67578 -12.7441 1.41309 -24.6875 9.74316 -34.5928c0.414062 -0.492188 1.09277 -1.08691 1.87012 -1.72168c7.01953 5.49414 13.6514 11.8066 19.4414 18.5166c19.6045 22.7217 34.2715 50.5811 46.2686 79.0107
c-33.5479 -10.1504 -65.9033 -30.0869 -77.3232 -61.2129z" />
    <glyph glyph-name="three" unicode="3" horiz-adv-x="439" 
d="M97.085 311.117c-54.8262 3.13477 -50.2197 94.0576 -42.4297 130.407c9.72559 45.3545 38.1865 86.4678 81.168 105.905c37.2012 16.8232 87.2529 17.2207 116.994 -14.1436c17.2441 -18.1816 30.5732 -36.0332 37.2871 -60.5645
c7.38574 -26.9971 6.5127 -53.9297 2.39062 -81.4121c-5.97656 -39.8574 -19.9102 -77.9043 -36.7363 -114.487c42.1631 -7.49805 81.1543 -29.5742 104.104 -66.2871c33.6221 -53.7871 36.1855 -127.127 17.3252 -186.344
c-19.6621 -61.7363 -73.877 -109.248 -132.292 -134.156c-44.418 -18.9453 -140.153 -42.8145 -158.453 22.7969c-7.47754 26.7998 -4.99902 57.9736 -1.16504 85.1572c4.66895 33.1025 14.252 65.4922 28.0117 95.9258c3.43359 7.59668 29.5371 6.2041 25.8867 -2.36719
c-13.4268 -31.5371 -21.8555 -64.3447 -24.1582 -98.5918c-1.84082 -27.3506 -3.02246 -60.4805 17.4854 -81.8232c18.7314 -19.4951 36.7188 -10.751 56.6289 4.34375c19.4756 14.7646 33.9932 32.8916 45.5254 54.3467c27.877 51.8584 40.0576 110.767 28.9736 169.066
c-4.84277 25.4688 -15.1592 52.1768 -33.751 70.918c-3.89844 3.92871 -8.70996 7.70117 -13.5859 10.6416c-20.1377 -9.08398 -45.7324 -9.10742 -66.7188 -4.61426c-9.69824 2.07812 -39.1064 13.7295 -28.0322 29.5469c33.4424 47.7656 65.1221 97.043 87.4902 151.081
c10.3672 25.0439 19.9736 52.5977 24.5039 79.3672c4.16992 24.6367 7.25977 49.4775 -17.4785 63.791c-49.4805 28.6309 -105.926 -20.2861 -126.678 -62.792c-12.9004 -26.4268 -17.543 -56.1748 -16.3916 -85.3926c0.730469 -18.5518 2.16992 -69.792 28.6367 -72.1084
c12.3809 -1.08008 3.51758 -8.67285 -4.54102 -8.21094zM209.614 223.704c-3.28711 1.53125 -6.05469 2.79199 -0.770508 0.0273438c0.353516 -0.0371094 0.615234 -0.0644531 0.930664 -0.0986328c-0.0205078 0.00683594 -0.0410156 0.0205078 -0.0615234 0.0273438
c-0.241211 0.0234375 -0.424805 0.046875 -0.686523 0.0742188c0.197266 -0.0166016 0.390625 -0.0166016 0.587891 -0.0302734z" />
    <glyph glyph-name="four" unicode="4" horiz-adv-x="438" 
d="M56.6719 8.3877c-5.57617 4.78809 -4.7832 8.69727 -5.87988 15.1084c-5.60352 32.9053 19.6992 59.1318 40.6104 81.8975c11.4062 12.4189 23.8789 23.8389 37.1768 34.2061c5.66406 15.2334 10.8662 30.5586 15.5146 45.792
c18.6504 61.0908 33.5654 123.676 46.249 186.281c6.29297 31.0586 12.0928 62.1445 18.793 93.125c3.71484 17.166 19.8721 72.5215 -11.6074 75.8086c-13.4199 1.40234 -3.71484 9.26367 4.90039 8.85938c32.2236 -1.50391 50.7412 -40.5732 59.6318 -67.0811
c15.0771 -44.9609 16.3203 -92.5947 14.9658 -139.624c-1.34473 -46.5908 -8.13965 -94.7168 -19.9678 -141.243c17.9746 4.20703 36.2578 6.49609 53.9092 5.83008c0.0410156 1.7793 0.0751953 3.5625 0.116211 5.33887c1.29688 55.7461 3.02832 111.968 8.85547 167.449
c2.80469 26.7012 4.87988 54.1025 10.8535 80.2949c6.76758 29.6729 11.1719 61.5908 40.3154 76.8789c13.4375 7.05273 30.8652 5.7959 43.9395 -1.06738c15.7432 -8.25879 18.0654 -22.4805 20.1943 -38.9473c3.71191 -28.6914 1.52148 -57.6816 0.417969 -86.4512
c-2.22461 -57.9668 -5.14551 -115.894 -5.71289 -173.915c-0.567383 -58.0488 0.400391 -116.176 2.76074 -174.177c2.45215 -60.2588 8.2998 -120.301 10.3242 -180.566c0.78125 -23.2344 -42.1523 -27.9746 -57.2881 -28.8164
c-17.8184 -0.988281 -55.4307 1.8916 -59.1592 24.752c-17.0439 104.483 -18.0088 213.412 -15.8252 319.342c-18.9619 0.841797 -38.6885 -3.0332 -56.9443 -8.23926c-7.66797 -27.8564 -17.1318 -55.0371 -28.3857 -80.8281
c-15.9268 -36.4922 -42.7305 -68.0088 -76.1963 -89.5898c-19.75 -12.7383 -42.8965 -19.9404 -66.5625 -17.916c-7.86816 0.672852 -19.6182 2.01758 -25.999 7.49805zM99.1289 85.8984c-8.48926 -11.9326 -17.7744 -25.6377 -14.9014 -40.8174
c11.2881 19.0439 21.377 39.1299 30.3691 59.7666c-5.54199 -6.05469 -10.7715 -12.3477 -15.4678 -18.9492z" />
    <glyph glyph-name="five" unicode="5" horiz-adv-x="476" 
d="M98.1484 279.923c-28.0127 2.66211 -57.2832 16.2119 -45.459 47.8379c7.92285 21.1934 17.9443 41.9014 27.167 62.5547c9.68848 21.6963 18.9766 44.999 29.9688 67.2217c-17.9033 3.83398 -32.4883 14.5312 -36.7197 36.3086
c-1.05566 5.43652 17.2041 6.80859 18.6133 0.648438c2.86621 -12.5166 11.7529 -22.0996 23.2988 -26.8438c9.44727 17.832 20.2363 34.6895 33.5615 49.0605c9.12793 9.84766 53.627 13.8203 55.8242 -4.98242c0.597656 -5.12402 0.542969 -10.1875 0.125 -15.2129
c13.9199 7.43652 28.0742 14.3438 43.2744 19.5527c47.0361 16.1201 101.727 16.7314 143.499 -13.1279c8.10547 -5.79688 -15.0205 -10.5479 -20.8203 -6.38477c-56.2012 40.3428 -115.122 9.41992 -168.817 -17.9707
c-1.43262 -6.41504 -3.14746 -12.8096 -4.72266 -19.2275c-4.08203 -16.6396 -8.36426 -33.2217 -12.5479 -49.8379c-4.1875 -16.6162 -8.20117 -33.2764 -12.0898 -49.9639c18.46 2.3291 37.1709 2.75391 55.6885 1.1543c46.207 -3.99316 92.7607 -20.375 127.201 -52.2451
c59.9541 -55.4814 80.7266 -136.979 66.624 -216.241c-14.3506 -80.6475 -58.8799 -164.841 -135.552 -201.835c-36.0977 -17.4141 -85.5205 -27.4893 -123.639 -10.1904c-27.3672 12.4189 -42.7266 39.1777 -49.9053 67.2412
c-18.7891 73.4551 -1.45703 159.193 26.2432 228.071c2.7168 6.75391 25.6758 5.58203 22.6504 -2.07227c-18.6094 -47.0664 -28.7285 -96.4521 -29.2412 -147.104c-0.386719 -38.2168 3.12793 -83.0381 32.7197 -110.999c67.4648 -63.7432 115.563 76.4785 130.203 120.777
c24.7793 74.9834 22.6436 165.839 -28.9463 229.212c-10.9043 13.3896 -24.6816 25.4717 -39.9561 33.6797c-0.822266 0.441406 -13.0918 5.4707 -12.6504 5.58301c-2.92676 0.873047 -5.9082 1.4873 -8.8623 2.24414
c-0.668945 0.132812 -1.23242 0.245117 -1.76855 0.350586c-1.40918 0.132812 -2.81543 0.268555 -4.22168 0.401367h-0.0302734c-0.692383 -0.0273438 -1.38477 -0.0615234 -2.07715 -0.0917969c8.98535 0.298828 -5.9834 -1.54883 -2.1123 -0.194336
c-1.49414 -0.417969 -2.96484 -0.859375 -4.43555 -1.33789c2.33984 0.614258 -8.9375 -3.99707 -8.90332 -3.98047c-6.99512 -3.67773 -13.9873 -8.95117 -22.0967 -12.7305c-18.5381 -8.64258 -40.8457 -11.2471 -61.0879 -9.3252z" />
    <glyph glyph-name="six" unicode="6" horiz-adv-x="313" 
d="M22.3486 -88.9609c-19.584 38.0469 -24.0654 84.7178 -27.3594 126.799c-6.94141 88.5469 4.63477 176.747 29.3428 261.84c24.5352 84.4922 62.3721 176.635 127.342 238.242c13.5664 12.8672 84.8926 19.292 76.8408 -12.1367
c-9.61719 -37.5205 -29.5713 -72.5723 -44.4014 -108.266c-14.7646 -35.5342 -28.2363 -71.9375 -39.168 -108.837c-13.8105 -46.6113 -23.1523 -94.9414 -27.8047 -143.566c28.3418 4.36719 58.1133 -1.41602 82.6855 -16.9219
c35.4658 -22.3789 56.3125 -63.0615 61.542 -103.842c9.37891 -73.1436 -21.8896 -181.808 -106.072 -193.935c-51.0127 -7.34863 -108.497 13.125 -132.947 60.623zM205.535 117.695c-21.7607 26.9287 -56.1387 43.3066 -89.4688 35.1094
c-1.32812 -16.752 -2.10938 -33.5244 -2.30273 -50.2627c-0.414062 -35.5781 1.91211 -71.1973 7.18555 -106.392c4.88965 -32.6201 10.5811 -65.916 29.082 -93.8877c3.40234 -5.14844 7.24316 -10.1475 11.9902 -14.0801
c0.770508 -0.638672 1.59277 -1.25293 2.41797 -1.86035c5.72852 3.31738 13.0869 3.14062 19.1621 7.40625c7.10449 4.98828 13.6758 11.4404 18.9561 18.3135c23.166 30.1553 32.8574 71.873 33.418 109.207c0.519531 34.5293 -8.47949 69.2656 -30.4404 96.4463z" />
    <glyph glyph-name="seven" unicode="7" horiz-adv-x="308" 
d="M68.1416 336.291c-1.54492 -5.3418 -19.7617 -4.99609 -18.0234 1.63965c15.8418 60.6738 48.1562 116.057 93.5928 159.364c17.4346 16.6191 39.249 37.4531 63.4648 42.9473c24.5146 5.5625 53.6953 -4.37402 71.3262 -21.8662
c22.29 -22.1172 24.8604 -61.3936 25.4141 -91.0088c0.648438 -34.6475 -2.58789 -68.7998 -6.9375 -103.125c-4.28906 -33.8467 -9.30859 -67.5947 -13.7432 -101.41c1.96582 0.261719 3.93555 0.570312 5.89844 0.78125c5.44336 0.587891 18.6426 1.73242 22.415 -4.24414
c3.73926 -5.91895 -1.72168 -9.26367 -7.33496 -11.0977c-7.63086 -2.48926 -15.5537 -4.48926 -23.5947 -6.23145c-3.35156 -27.4082 -6.16016 -54.8809 -7.6748 -82.5029c-3.7998 -69.292 0.512695 -135.803 10.7822 -204.334
c3.42676 -22.8809 -44.9199 -28.4434 -57.9941 -29.1699c-19.665 -1.09375 -53.9697 2.09863 -59.8857 25.0547c-16.5957 64.3818 -16.8916 135.216 -11 201.122c2.08496 23.3262 4.8623 46.6318 8.25488 69.8594c-1.5791 -0.291992 -3.1582 -0.583984 -4.7334 -0.875977
c-1.85059 -0.339844 -13.0811 -2.23828 -14.6094 -1.6709c-1.90137 -2.65918 -10.6455 -3.41602 -12.0586 -3.29688l-0.867188 0.0703125c-3.16797 0.268555 -11.0527 2.65625 -6.62793 6.98926c7.03613 6.89648 21.7031 7.00879 31.0381 9.17578
c3.27051 0.756836 6.52734 1.54492 9.79102 2.3125c4.91406 31.4111 10.9551 62.6494 18.1475 93.5342c13.6953 58.8096 27.7646 118.081 35.7041 178.001c1.90137 14.3438 3.02246 28.3105 1.21973 42.7158c-0.458008 3.64746 -0.274414 9.13867 -2.74707 12.1777
c-6.02051 7.39941 -15.1211 1.24316 -21.7227 -3.37207c-20.4463 -14.3037 -39.2188 -31.4492 -55.7227 -50.1436c-33.4492 -37.8906 -57.75 -82.8926 -71.7715 -131.396z" />
    <glyph glyph-name="eight" unicode="8" horiz-adv-x="378" 
d="M125.488 153.972c-38.1221 43.4736 -68.9775 96.1279 -74.54 154.788c-5.61328 59.1865 13.8789 119.548 52.877 164.298c38.4209 44.0918 102.182 72.7998 160.987 58.8291c51.96 -12.3438 80.0908 -61.6855 92.71 -109.771
c29.5879 -112.738 4.73047 -232.985 -24.3887 -344.749c14.1504 -15.5566 27.1934 -31.9004 37.7344 -49.8203c14.8057 -25.1699 27.3096 -56.7275 21.9102 -86.4277c-5.0498 -27.7783 -21.1631 -53.5664 -44.207 -69.877
c-38.376 -27.167 -95.2119 -31.3232 -127.581 7.25684c-37.8027 45.0527 -31.5371 113.506 -18.4258 166.508c2.02344 8.17676 4.3125 16.252 6.80859 24.2461c-28.3008 27.9004 -57.6582 54.8086 -83.8848 84.7188zM298.111 -124.604
c17.3184 21.1973 9.79785 52.7598 1.68848 76.0889c-10.2559 29.5029 -31.1543 54.2041 -51.5361 77.2314c-6.53027 7.37891 -13.2979 14.5371 -20.1436 21.6172c-3.3418 -13.0977 -6.00781 -26.3623 -7.88574 -39.752c-4.88965 -34.8652 -4.43164 -73.0518 10.877 -105.469
c11.3418 -24.0117 42.5225 -59.6787 67 -29.7168zM182.426 463.065c-23.2822 -51.2568 -21.7637 -110.035 -9.12109 -163.846c12.4795 -53.1445 41.8701 -97.7012 77.7373 -137.86c8.6123 14.1475 18.0527 27.8291 28.3594 40.9678
c4.28906 5.46777 25.2139 3.40625 21.2607 -1.94531c-12.833 -17.377 -24.5654 -35.7354 -34.9258 -54.8643c16.4121 -17.0508 34.0635 -33.6025 50.9512 -50.7959c14.0146 55.8145 25.832 112.308 29.9238 169.697c4.85645 68.1143 4.79492 155.188 -38.0439 212.414
c-16.3545 21.8418 -45.6572 44.7129 -74.8174 38.5049c-25.0273 -5.32812 -41.4053 -30.4307 -51.3242 -52.2725z" />
    <glyph glyph-name="nine" unicode="9" horiz-adv-x="369" 
d="M84.8984 41.5859c1.11035 8.34668 25.5088 8.29004 24.8125 0.873047c-2.8457 -30.4268 -6.25195 -63.2002 4.41797 -92.6113c6.60449 -18.209 21.6582 -39.8877 41.5889 -43.209c4.8252 3.86133 10.5166 6.98926 14.6055 11.502
c7.61328 8.4082 12.3203 19.6143 17.3867 29.6729c12.541 24.8945 24.4131 50.3428 34.6416 76.2871c20.6572 52.4082 30.4746 107.411 33.874 163.473c3.46387 57.1084 -0.145508 113.795 -8.34668 170.38c-4.00684 27.6562 -9.20605 55.4678 -16.0996 82.5498
c-1.29004 5.07031 -2.75684 10.0859 -4.25098 15.0918c-1.3418 -6.52051 -2.75488 -13.0234 -4.43945 -19.4961c-6.63867 -25.5332 -15.498 -50.5166 -27.3086 -74.1309c-17.1592 -34.3154 -43.5859 -80.6787 -84.7842 -88.4521
c-40.3965 -7.62695 -63.8076 21.3535 -60.7246 59.7812c6.19043 77.1641 67.7061 169.104 151.315 171.79c-1.33496 5.02246 -2.10938 10.0078 -0.866211 14.6562c2.83887 10.6152 16.3613 13.7832 25.9814 14.8086c31.8223 3.38867 51.1787 -19.9307 69.5947 -42.333
c33.4453 -40.6895 47.9492 -97.0469 59.7939 -147.407c11.8613 -50.4385 16.8398 -104.307 14.5547 -156.08c-2.29883 -52.1191 -11.9902 -104.272 -28.4971 -153.76c-17.9404 -53.7832 -45.0732 -106.188 -94.7852 -136.665
c-13.3799 -8.2041 -28.7295 -15.1553 -44.2861 -17.7227c-8.42188 -1.38867 -17.5732 -1.90527 -26.083 -1.25977c-1.16113 0.0878906 -3.34082 0.600586 -5.5791 1.05859c-0.583984 -0.0273438 -1.68457 -0.0410156 -3.5625 -0.0175781
c-23.9102 0.291992 -40.2412 8.86328 -56.7041 25.1289c-36.7734 36.3252 -32.5186 89.0625 -26.25 136.092zM200.865 447.808c2.66895 12.249 6.89062 26.5215 5.51562 39.0322c-0.319336 2.91699 -1.12402 5.9668 -2.05469 9.07031
c-61.624 -1.37891 -106.429 -66.3242 -123.676 -119.496c-7.48145 -23.0684 -16.3242 -57.8457 -1.9668 -80.2852c25.2314 -39.4326 65.6113 19.4209 78.8857 40.9775c13.2539 21.5225 23.6787 44.6953 31.7334 68.6396c4.63867 13.7842 8.46582 27.8496 11.5625 42.0615z
M164.687 -119.067c0.224609 0.0878906 2.72949 -0.0205078 4.73633 -0.169922c-2 0.34668 -3.82324 0.530273 -4.73633 0.169922z" />
    <glyph glyph-name="colon" unicode=":" horiz-adv-x="204" 
d="M140.601 260.044c-3.70117 -20.168 -35.1484 -22.8125 -50.9121 -22.3916c-13.2949 0.356445 -45.3994 4.50586 -38.8047 24.8398c2.47852 7.64355 5.07324 15.2568 7.07324 23.04c-0.448242 -1.75586 -0.896484 -3.50781 -1.3418 -5.26367
c1.04883 4.35352 2.18262 8.16406 4.16895 12.1436c2.97852 5.97363 12.334 10.0449 18.1104 11.7119c6.57812 1.89453 13.4072 2.85547 20.2295 3.23535c8.18359 0.455078 16.7207 -0.652344 24.5273 -3.125c4.46875 -1.41309 12.8291 -4.02148 14.7617 -9.11523
c2.44531 -6.44238 3.58301 -12.0859 3.60352 -18.8945c0.0136719 -5.50781 -0.420898 -10.7578 -1.41602 -16.1807zM137.543 46.5918c24.4434 -22.7764 16.0713 -65.4189 7.94141 -94.3613c-4.21387 -14.9961 -36.3525 -16.4971 -47.9287 -16.2354
c-7.42969 0.163086 -41.8496 3.62012 -38.9736 18.6064c3.00488 15.6582 6.69922 31.3027 10.9912 46.6592c4.66895 16.708 7.64355 31.792 20.9922 43.6914c9.875 8.80176 36.7734 11.1484 46.9775 1.63965z" />
    <glyph glyph-name="semicolon" unicode=";" horiz-adv-x="252" 
d="M99.3047 244.838c-6.37402 5.47363 -8.09375 9.85938 -5.85547 18.1758c3.7832 14.1133 5.45703 30.8271 13.6855 43.1299c7.6377 11.4238 24.4502 13.7568 37.0791 14.46c13.4678 0.74707 28.3691 -1.94629 37.9961 -11.8389
c12.0244 -12.3574 14.5918 -32.0156 13.1689 -48.5332c-1.97949 -22.9424 -41.959 -25.8662 -57.8477 -25.4414c-12.2451 0.326172 -28.3857 1.60254 -38.2266 10.0479zM186.462 98.459c22.4941 -28.2363 15.4629 -69.4033 7.0918 -101.878
c-8.87012 -34.3965 -25.9746 -63.7471 -48.9404 -90.54c-14.7139 -17.1631 -107.536 -19.7168 -93.0898 14.7031c11.7529 27.9951 28.1172 53.7764 40.8008 81.3848c6.78125 14.7588 12.7812 29.8193 16.5469 45.6572c3.94922 16.6094 6.4043 33.2656 14.5439 48.4727
c9.3418 17.4482 51.7256 16.4121 63.0469 2.2002z" />
    <glyph glyph-name="less" unicode="&#x3c;" horiz-adv-x="323" 
d="M235.557 159.758c11.3252 -1.42285 45.6025 -7.83398 36.3281 -27.3945c-9.24707 -19.5088 -44.082 -18.9824 -61.6621 -18.4258c-34.2441 1.08691 -194.039 25.3672 -153.761 88.0684c18.0322 28.0703 54.9346 48.0273 82.4648 65.4277
c30.0195 18.9756 61.9609 33.0244 96.918 39.7588c3.58984 0.692383 19.0479 0.549805 16.1074 -6.7373c-7.26074 -18.0049 -23.4961 -31.3916 -37.5176 -44.1807c-16.9111 -15.4277 -33.7686 -30.7939 -49.6514 -47.3115
c-5.64746 -5.87109 -16.6699 -15.6133 -11.4912 -24.5986c3.15137 -5.4707 15.7979 -8.44922 21.4521 -10.6123c20.0596 -7.67773 42.1289 -11.6514 60.8125 -13.9941z" />
    <glyph glyph-name="equal" unicode="=" horiz-adv-x="340" 
d="M67.7598 192.752c-7.67773 2.38086 -26.4268 11.5225 -13.1113 21.2344c25 18.2461 61.5801 19.3975 91.2598 22.002c31.7041 2.78125 63.8115 4.07129 95.3828 -0.618164c11.624 -1.72461 40.6182 -6.1123 36.9541 -24.1514
c-3.65039 -17.9473 -34.8076 -20.7314 -48.751 -21.8076c-26.2266 -2.02734 -52.3545 -1.13086 -78.6348 -1.30078c-26.9834 -0.169922 -56.9824 -3.46094 -83.0996 4.6416zM266.49 173.524c10.3779 -1.75195 28.5859 -10.3691 22.4531 -23.6738
c-6.46875 -14.0352 -32.1309 -16.9453 -44.7734 -17.458c-31.5605 -1.28711 -63.3252 1.22266 -94.9775 0.183594c-28.9229 -0.947266 -66.1143 -7.68457 -92.4287 7.11816c-3.82715 2.15332 -4.21094 5.92969 -3.08008 9.5498
c3.6709 11.7461 26.5312 15.916 36.4639 18.2324c19.9678 4.65234 40.373 6.99902 60.8057 8.54785c38.2207 2.89648 77.6875 3.89453 115.537 -2.5z" />
    <glyph glyph-name="greater" unicode="&#x3e;" horiz-adv-x="323" 
d="M268.945 200.671c18.0791 -36.9805 -31.0977 -54.8916 -57.3066 -64.8994c-35.3203 -13.4785 -72.7871 -21 -110.553 -22.1992c-14.0693 -0.448242 -44.7305 1.18164 -50.3916 18.4424c-5.55176 16.9287 23.7812 25.3672 35.3438 26.7998
c23.2891 2.88281 44.7471 6.41797 66.3818 14.4795c5.02246 1.87402 15.1357 4.36328 17.9102 8.9541c4.85938 8.05176 -7.44043 19.5811 -12.167 24.7021c-16.0049 17.3359 -33.7588 32.7324 -50.9277 48.8457c-13.7021 12.8633 -29.0547 25.8457 -35.918 43.7861
c-3.19238 8.34375 14.3164 8.14648 18.6934 7.35547c37.3408 -6.75781 70.6641 -22.6094 102.551 -42.8008c14.5107 -9.18945 28.5762 -18.9082 42.1836 -29.3916c12.29 -9.46777 27.2217 -19.7949 34.2002 -34.0742z" />
    <glyph glyph-name="question" unicode="?" horiz-adv-x="363" 
d="M309.591 466.919c12.082 -72.5586 -10.7295 -145.872 -26.2822 -216.071c-8.22461 -37.1367 -15.668 -74.668 -20.752 -112.372c-5.1416 -38.1182 -6.7373 -76.6201 -12.5439 -114.626c-3.50781 -22.9658 -37.3369 -26.9727 -55.6436 -27.9883
c-16.1543 -0.900391 -55.3594 1.81641 -57.4609 24.0391c-3.32422 35.1602 0.662109 70.1514 5.9834 104.955c5.20215 34.0166 11.6816 68.2734 21.4512 101.298c17.4678 59.0439 43.4736 114.896 65.2412 172.387c11.0156 29.0957 20.7988 59.543 23.2676 90.7168
c2.36719 29.873 -9.66406 52.085 -37.6631 64.1777c-63.4854 27.418 -113.35 -46.292 -131.219 -97.1211c-9.29102 -26.4268 -13.3086 -55.9199 -7.8584 -83.627c5.63672 -28.6709 25.9912 -61.3389 58.9033 -60.8154c11.7188 0.186523 11.9629 -8.58203 0.31543 -9.00293
c-30.2812 -1.09375 -58.0459 14.1973 -72.7705 40.9326c-17.1689 31.1768 -14.5508 70.4189 -5.14062 103.565c16.001 56.3672 58.2178 116.888 121.096 122.521c29.1025 2.60449 58.8438 -5.37207 80.8994 -24.9697c23.6455 -21.0029 44.8252 -45.8779 50.1768 -77.999z
M207.622 -55.8311c4.97852 -1.06641 18.5938 -5.32324 20.832 -11.4932c6.25488 -17.2471 9.53223 -32.4941 7.97656 -50.8281c-1.66406 -19.625 -33.1133 -23.167 -47.6641 -23.9756c-10.8535 -0.604492 -24.376 0.90625 -34.4824 5.33105
c-4.53711 1.98633 -15.7842 8.1875 -14.7383 15.2607c2.20703 14.9209 2.88281 30.6875 1.8916 45.7383c-1.03223 15.7021 27.1562 20.3682 37.792 21.4004c9.53906 0.926758 19.0098 0.577148 28.3926 -1.43359z" />
    <glyph glyph-name="at" unicode="@" horiz-adv-x="653" 
d="M577.968 -27.8008c6 5.23633 31.585 1.83887 23.292 -5.39062c-65.418 -57.1016 -143.557 -103.886 -230.932 -115.615c-80.4033 -10.792 -166.325 6.74414 -226.853 63.3496c-111.062 103.869 -114.026 285.448 -56.5283 417.496
c27.7002 63.6074 72.9189 120.478 133.046 156.069c59.8379 35.4189 138.34 48.8018 202.335 16.2461c62.3818 -31.7344 98.6865 -96.0928 111.561 -162.96c15.1387 -78.6338 7.55273 -168.24 -18.0928 -243.995c-10.8799 -32.1455 -26.2256 -72.2441 -55.4912 -92.2119
c-21.4414 -14.6328 -56.0176 -18.1982 -75.5469 1.66699c-16.3203 16.5986 -22.5723 43.918 -24.6611 70.0625c-7.99023 -21.6045 -17.0605 -42.7676 -27.333 -63.292c-26.124 -52.1904 -78.291 -98.1094 -139.053 -67.085
c-32.7764 16.7344 -39.9482 53.1348 -41.7344 86.9844c-1.85742 35.2217 2.88672 71.5908 9.99805 106.042c13.1729 63.8184 40.7979 139.183 104.854 167.412c23.3633 10.2959 53.5693 14.0615 77.918 4.38379c25.1289 -9.9873 31.6318 -34.2441 35.5742 -58.5928
c0.984375 -6.0957 -18.4395 -7.14844 -20.0459 -0.700195c-4.49902 18.0693 -10.2275 40.1455 -28.9658 48.5498c-19.0068 8.52344 -30.4512 -10.5781 -37.6875 -24.9121c-16.3574 -32.4062 -25.9609 -70.0049 -31.7168 -105.661
c-6.4043 -39.6699 -11.709 -80.2295 -9.99414 -120.487c0.859375 -20.1475 3.67773 -39.8262 6.78516 -59.7051c0.958008 -6.11914 2.2793 -17.3828 5.22656 -25.8652c3.56543 2.61133 7.12402 5.56934 8.62793 6.74414c4.07812 3.18848 7.78613 6.81543 11.2979 10.6123
c7.78711 8.4248 14.3516 17.9365 20.3008 27.7197c12.3613 20.3271 21.4248 42.5967 29.959 64.7412c19.9912 51.8779 33.7168 105.808 41.6191 160.82c0.393555 2.76465 3.41602 4.49316 7.14453 5.32812c5.13477 2.63867 17.3701 1.81055 16.6572 -2.64844
c-0.414062 -2.57422 -0.838867 -5.14453 -1.27344 -7.71484c-2.59082 -17.9473 -5.77246 -35.874 -9.59277 -53.6992c-3.28711 -19.6553 -5.90234 -39.3984 -6.4082 -59.458c-0.478516 -19.0166 0.797852 -38.1152 4.65918 -56.7588
c3.80664 -18.3682 9.5791 -46.3398 29.6279 -53.1182c37.6357 -12.7207 64.001 61.9678 72.874 87.5049c12.7646 36.7432 19.2031 75.4561 22.3066 114.142c5.51855 68.834 3.49805 142.887 -29.4854 205.269c-29.2383 55.2949 -82.9404 99.5088 -148.141 96.9619
c-132.156 -5.16504 -220.805 -141.562 -246.284 -258.135c-27.2275 -124.583 -4.81836 -280.167 109.598 -355.232c126.193 -82.7939 279.268 -13.2744 380.559 75.1328z" />
    <glyph glyph-name="A" unicode="A" horiz-adv-x="576" 
d="M60.04 175.512c-30.9971 -42.7129 -54.709 -90.6748 -70.0752 -141.15c-14.167 -46.5742 -21.0029 -95.4639 -19.835 -144.146c1.09375 -45.6025 9.41992 -102.748 54.4287 -126.104c47.5449 -24.6709 96.3193 5.34863 124.073 44.4453
c28.0498 39.5107 46.7949 86.4551 62.083 132.115c47.9463 143.186 57.0371 293.94 55.9639 444.468c-3.54199 0.869141 -7.09766 1.7041 -10.6738 2.46484c-45.1855 9.59961 -119.769 9.50488 -131.145 -49.0703c-1.20215 -6.19727 -19.0234 -5.68066 -18.1338 -0.630859
c7.07715 40.2002 48.6523 59.1592 85.4668 63.2988c24.8545 2.79492 49.8857 0.380859 74.4072 -4.71973c-0.730469 70.1787 -3.51855 140.266 -5.45801 209.47c-0.62793 22.4023 40.4922 26.9395 55.1758 27.7549c12.4932 0.696289 35.2422 -0.631836 47.9766 -9.97363
c55.668 -1.06934 100.979 -63.3223 117.74 -113.149c12.959 -38.5195 14.8066 -81.7588 15.6729 -122.125c0.523438 -24.5244 -0.0771484 -48.9404 -1.32324 -73.333c6.74121 -1.89453 13.5264 -3.64355 20.3721 -5.16504c23.9443 -5.32422 60.8506 -15.376 79.1377 6.82227
c4.02441 4.88672 23.0713 2.94043 19.4141 -1.77637c-22.6572 -29.2314 -67.2314 -22.7354 -99.0781 -16.9688c-6.89062 1.25 -13.7295 2.74121 -20.5312 4.39453c-1.02246 -17.0264 -2.32617 -34.0498 -3.76562 -51.1035
c-7.3457 -86.9609 -19.4082 -173.646 -21.5684 -260.978c-1.11426 -45.0391 0.607422 -90.0781 2.83203 -135.049c1.87402 -37.8193 6.21387 -76.4434 17.3418 -112.782c9.20996 -30.0771 25.2285 -64.7656 53.0029 -81.8057
c30.5967 -18.7725 66.8369 -16.6973 92.9473 8.54395c5.66113 5.47363 32.3184 3.35156 24.124 -5.59277c-50.6523 -55.2842 -144.401 -30.3896 -192.188 15.0771c-56.1133 53.3896 -78.1689 140.602 -86.1699 215.106c-9.46777 88.207 1.62598 178.428 11.5723 266.139
c6.44238 56.8057 13.5293 113.397 19.5605 170.139c-8.32031 3.3623 -16.5928 6.80273 -24.8213 10.2529c-2.33594 0.977539 -4.67188 1.96191 -7.00781 2.94629c-3.35547 -59.2881 -9.33887 -118.42 -19.6348 -176.927
c-20.5615 -116.831 -57.4883 -241.859 -133.956 -335.266c-33.4316 -40.8389 -77.0137 -75.6934 -130.189 -84.998c-43.9629 -7.69141 -93.8984 1.04297 -121.792 38.8213c-29.9854 40.6182 -29.873 99.3154 -26.4668 147.384
c3.69824 52.1436 16.3545 103.74 36.7461 151.855c20.4629 48.2783 48.8789 93.0186 83.9375 132.017c32.542 36.1963 73.0137 72.9092 124.131 74.9531c11.1963 0.448242 11.3115 -7.97363 0.298828 -8.56152c-32.4443 -1.72852 -58.8398 -24.1475 -81.1338 -45.8066
c-19.4883 -18.9385 -37.4932 -39.2832 -53.46 -61.2852zM426.725 548.255c-1.71484 21.8018 -10.6738 38.5674 -28.6309 51.4717c-7.85156 5.64355 -16.4297 9.95605 -25.3271 12.1426c0.179688 -0.666016 0.416992 -1.30078 0.529297 -2.00684
c11.9707 -75.2725 13.0508 -151.55 10.1475 -227.597c-0.308594 -8.08887 -0.678711 -16.1748 -1.07617 -24.2607c10.8428 -4.44824 21.6582 -8.96094 32.501 -13.4131c2.97852 28.9463 5.68164 57.9365 7.80762 87.0254c1.52148 20.8164 1.42676 41.6699 2.69727 62.4766
c1.09668 18.0254 2.77441 36.085 1.35156 54.1611z" />
    <glyph glyph-name="A" unicode="&#xc5;" horiz-adv-x="576" 
d="M60.04 175.512c-30.9971 -42.7129 -54.709 -90.6748 -70.0752 -141.15c-14.167 -46.5742 -21.0029 -95.4639 -19.835 -144.146c1.09375 -45.6025 9.41992 -102.748 54.4287 -126.104c47.5449 -24.6709 96.3193 5.34863 124.073 44.4453
c28.0498 39.5107 46.7949 86.4551 62.083 132.115c47.9463 143.186 57.0371 293.94 55.9639 444.468c-3.54199 0.869141 -7.09766 1.7041 -10.6738 2.46484c-45.1855 9.59961 -119.769 9.50488 -131.145 -49.0703c-1.20215 -6.19727 -19.0234 -5.68066 -18.1338 -0.630859
c7.07715 40.2002 48.6523 59.1592 85.4668 63.2988c24.8545 2.79492 49.8857 0.380859 74.4072 -4.71973c-0.730469 70.1787 -3.51855 140.266 -5.45801 209.47c-0.62793 22.4023 40.4922 26.9395 55.1758 27.7549c12.4932 0.696289 35.2422 -0.631836 47.9766 -9.97363
c55.668 -1.06934 100.979 -63.3223 117.74 -113.149c12.959 -38.5195 14.8066 -81.7588 15.6729 -122.125c0.523438 -24.5244 -0.0771484 -48.9404 -1.32324 -73.333c6.74121 -1.89453 13.5264 -3.64355 20.3721 -5.16504c23.9443 -5.32422 60.8506 -15.376 79.1377 6.82227
c4.02441 4.88672 23.0713 2.94043 19.4141 -1.77637c-22.6572 -29.2314 -67.2314 -22.7354 -99.0781 -16.9688c-6.89062 1.25 -13.7295 2.74121 -20.5312 4.39453c-1.02246 -17.0264 -2.32617 -34.0498 -3.76562 -51.1035
c-7.3457 -86.9609 -19.4082 -173.646 -21.5684 -260.978c-1.11426 -45.0391 0.607422 -90.0781 2.83203 -135.049c1.87402 -37.8193 6.21387 -76.4434 17.3418 -112.782c9.20996 -30.0771 25.2285 -64.7656 53.0029 -81.8057
c30.5967 -18.7725 66.8369 -16.6973 92.9473 8.54395c5.66113 5.47363 32.3184 3.35156 24.124 -5.59277c-50.6523 -55.2842 -144.401 -30.3896 -192.188 15.0771c-56.1133 53.3896 -78.1689 140.602 -86.1699 215.106c-9.46777 88.207 1.62598 178.428 11.5723 266.139
c6.44238 56.8057 13.5293 113.397 19.5605 170.139c-8.32031 3.3623 -16.5928 6.80273 -24.8213 10.2529c-2.33594 0.977539 -4.67188 1.96191 -7.00781 2.94629c-3.35547 -59.2881 -9.33887 -118.42 -19.6348 -176.927
c-20.5615 -116.831 -57.4883 -241.859 -133.956 -335.266c-33.4316 -40.8389 -77.0137 -75.6934 -130.189 -84.998c-43.9629 -7.69141 -93.8984 1.04297 -121.792 38.8213c-29.9854 40.6182 -29.873 99.3154 -26.4668 147.384
c3.69824 52.1436 16.3545 103.74 36.7461 151.855c20.4629 48.2783 48.8789 93.0186 83.9375 132.017c32.542 36.1963 73.0137 72.9092 124.131 74.9531c11.1963 0.448242 11.3115 -7.97363 0.298828 -8.56152c-32.4443 -1.72852 -58.8398 -24.1475 -81.1338 -45.8066
c-19.4883 -18.9385 -37.4932 -39.2832 -53.46 -61.2852zM426.725 548.255c-1.71484 21.8018 -10.6738 38.5674 -28.6309 51.4717c-7.85156 5.64355 -16.4297 9.95605 -25.3271 12.1426c0.179688 -0.666016 0.416992 -1.30078 0.529297 -2.00684
c11.9707 -75.2725 13.0508 -151.55 10.1475 -227.597c-0.308594 -8.08887 -0.678711 -16.1748 -1.07617 -24.2607c10.8428 -4.44824 21.6582 -8.96094 32.501 -13.4131c2.97852 28.9463 5.68164 57.9365 7.80762 87.0254c1.52148 20.8164 1.42676 41.6699 2.69727 62.4766
c1.09668 18.0254 2.77441 36.085 1.35156 54.1611z" />
    <glyph glyph-name="A" unicode="&#xc4;" horiz-adv-x="576" 
d="M60.04 175.512c-30.9971 -42.7129 -54.709 -90.6748 -70.0752 -141.15c-14.167 -46.5742 -21.0029 -95.4639 -19.835 -144.146c1.09375 -45.6025 9.41992 -102.748 54.4287 -126.104c47.5449 -24.6709 96.3193 5.34863 124.073 44.4453
c28.0498 39.5107 46.7949 86.4551 62.083 132.115c47.9463 143.186 57.0371 293.94 55.9639 444.468c-3.54199 0.869141 -7.09766 1.7041 -10.6738 2.46484c-45.1855 9.59961 -119.769 9.50488 -131.145 -49.0703c-1.20215 -6.19727 -19.0234 -5.68066 -18.1338 -0.630859
c7.07715 40.2002 48.6523 59.1592 85.4668 63.2988c24.8545 2.79492 49.8857 0.380859 74.4072 -4.71973c-0.730469 70.1787 -3.51855 140.266 -5.45801 209.47c-0.62793 22.4023 40.4922 26.9395 55.1758 27.7549c12.4932 0.696289 35.2422 -0.631836 47.9766 -9.97363
c55.668 -1.06934 100.979 -63.3223 117.74 -113.149c12.959 -38.5195 14.8066 -81.7588 15.6729 -122.125c0.523438 -24.5244 -0.0771484 -48.9404 -1.32324 -73.333c6.74121 -1.89453 13.5264 -3.64355 20.3721 -5.16504c23.9443 -5.32422 60.8506 -15.376 79.1377 6.82227
c4.02441 4.88672 23.0713 2.94043 19.4141 -1.77637c-22.6572 -29.2314 -67.2314 -22.7354 -99.0781 -16.9688c-6.89062 1.25 -13.7295 2.74121 -20.5312 4.39453c-1.02246 -17.0264 -2.32617 -34.0498 -3.76562 -51.1035
c-7.3457 -86.9609 -19.4082 -173.646 -21.5684 -260.978c-1.11426 -45.0391 0.607422 -90.0781 2.83203 -135.049c1.87402 -37.8193 6.21387 -76.4434 17.3418 -112.782c9.20996 -30.0771 25.2285 -64.7656 53.0029 -81.8057
c30.5967 -18.7725 66.8369 -16.6973 92.9473 8.54395c5.66113 5.47363 32.3184 3.35156 24.124 -5.59277c-50.6523 -55.2842 -144.401 -30.3896 -192.188 15.0771c-56.1133 53.3896 -78.1689 140.602 -86.1699 215.106c-9.46777 88.207 1.62598 178.428 11.5723 266.139
c6.44238 56.8057 13.5293 113.397 19.5605 170.139c-8.32031 3.3623 -16.5928 6.80273 -24.8213 10.2529c-2.33594 0.977539 -4.67188 1.96191 -7.00781 2.94629c-3.35547 -59.2881 -9.33887 -118.42 -19.6348 -176.927
c-20.5615 -116.831 -57.4883 -241.859 -133.956 -335.266c-33.4316 -40.8389 -77.0137 -75.6934 -130.189 -84.998c-43.9629 -7.69141 -93.8984 1.04297 -121.792 38.8213c-29.9854 40.6182 -29.873 99.3154 -26.4668 147.384
c3.69824 52.1436 16.3545 103.74 36.7461 151.855c20.4629 48.2783 48.8789 93.0186 83.9375 132.017c32.542 36.1963 73.0137 72.9092 124.131 74.9531c11.1963 0.448242 11.3115 -7.97363 0.298828 -8.56152c-32.4443 -1.72852 -58.8398 -24.1475 -81.1338 -45.8066
c-19.4883 -18.9385 -37.4932 -39.2832 -53.46 -61.2852zM426.725 548.255c-1.71484 21.8018 -10.6738 38.5674 -28.6309 51.4717c-7.85156 5.64355 -16.4297 9.95605 -25.3271 12.1426c0.179688 -0.666016 0.416992 -1.30078 0.529297 -2.00684
c11.9707 -75.2725 13.0508 -151.55 10.1475 -227.597c-0.308594 -8.08887 -0.678711 -16.1748 -1.07617 -24.2607c10.8428 -4.44824 21.6582 -8.96094 32.501 -13.4131c2.97852 28.9463 5.68164 57.9365 7.80762 87.0254c1.52148 20.8164 1.42676 41.6699 2.69727 62.4766
c1.09668 18.0254 2.77441 36.085 1.35156 54.1611z" />
    <glyph glyph-name="A" unicode="&#xc3;" horiz-adv-x="576" 
d="M60.04 175.512c-30.9971 -42.7129 -54.709 -90.6748 -70.0752 -141.15c-14.167 -46.5742 -21.0029 -95.4639 -19.835 -144.146c1.09375 -45.6025 9.41992 -102.748 54.4287 -126.104c47.5449 -24.6709 96.3193 5.34863 124.073 44.4453
c28.0498 39.5107 46.7949 86.4551 62.083 132.115c47.9463 143.186 57.0371 293.94 55.9639 444.468c-3.54199 0.869141 -7.09766 1.7041 -10.6738 2.46484c-45.1855 9.59961 -119.769 9.50488 -131.145 -49.0703c-1.20215 -6.19727 -19.0234 -5.68066 -18.1338 -0.630859
c7.07715 40.2002 48.6523 59.1592 85.4668 63.2988c24.8545 2.79492 49.8857 0.380859 74.4072 -4.71973c-0.730469 70.1787 -3.51855 140.266 -5.45801 209.47c-0.62793 22.4023 40.4922 26.9395 55.1758 27.7549c12.4932 0.696289 35.2422 -0.631836 47.9766 -9.97363
c55.668 -1.06934 100.979 -63.3223 117.74 -113.149c12.959 -38.5195 14.8066 -81.7588 15.6729 -122.125c0.523438 -24.5244 -0.0771484 -48.9404 -1.32324 -73.333c6.74121 -1.89453 13.5264 -3.64355 20.3721 -5.16504c23.9443 -5.32422 60.8506 -15.376 79.1377 6.82227
c4.02441 4.88672 23.0713 2.94043 19.4141 -1.77637c-22.6572 -29.2314 -67.2314 -22.7354 -99.0781 -16.9688c-6.89062 1.25 -13.7295 2.74121 -20.5312 4.39453c-1.02246 -17.0264 -2.32617 -34.0498 -3.76562 -51.1035
c-7.3457 -86.9609 -19.4082 -173.646 -21.5684 -260.978c-1.11426 -45.0391 0.607422 -90.0781 2.83203 -135.049c1.87402 -37.8193 6.21387 -76.4434 17.3418 -112.782c9.20996 -30.0771 25.2285 -64.7656 53.0029 -81.8057
c30.5967 -18.7725 66.8369 -16.6973 92.9473 8.54395c5.66113 5.47363 32.3184 3.35156 24.124 -5.59277c-50.6523 -55.2842 -144.401 -30.3896 -192.188 15.0771c-56.1133 53.3896 -78.1689 140.602 -86.1699 215.106c-9.46777 88.207 1.62598 178.428 11.5723 266.139
c6.44238 56.8057 13.5293 113.397 19.5605 170.139c-8.32031 3.3623 -16.5928 6.80273 -24.8213 10.2529c-2.33594 0.977539 -4.67188 1.96191 -7.00781 2.94629c-3.35547 -59.2881 -9.33887 -118.42 -19.6348 -176.927
c-20.5615 -116.831 -57.4883 -241.859 -133.956 -335.266c-33.4316 -40.8389 -77.0137 -75.6934 -130.189 -84.998c-43.9629 -7.69141 -93.8984 1.04297 -121.792 38.8213c-29.9854 40.6182 -29.873 99.3154 -26.4668 147.384
c3.69824 52.1436 16.3545 103.74 36.7461 151.855c20.4629 48.2783 48.8789 93.0186 83.9375 132.017c32.542 36.1963 73.0137 72.9092 124.131 74.9531c11.1963 0.448242 11.3115 -7.97363 0.298828 -8.56152c-32.4443 -1.72852 -58.8398 -24.1475 -81.1338 -45.8066
c-19.4883 -18.9385 -37.4932 -39.2832 -53.46 -61.2852zM426.725 548.255c-1.71484 21.8018 -10.6738 38.5674 -28.6309 51.4717c-7.85156 5.64355 -16.4297 9.95605 -25.3271 12.1426c0.179688 -0.666016 0.416992 -1.30078 0.529297 -2.00684
c11.9707 -75.2725 13.0508 -151.55 10.1475 -227.597c-0.308594 -8.08887 -0.678711 -16.1748 -1.07617 -24.2607c10.8428 -4.44824 21.6582 -8.96094 32.501 -13.4131c2.97852 28.9463 5.68164 57.9365 7.80762 87.0254c1.52148 20.8164 1.42676 41.6699 2.69727 62.4766
c1.09668 18.0254 2.77441 36.085 1.35156 54.1611z" />
    <glyph glyph-name="A" unicode="&#xc2;" horiz-adv-x="576" 
d="M60.04 175.512c-30.9971 -42.7129 -54.709 -90.6748 -70.0752 -141.15c-14.167 -46.5742 -21.0029 -95.4639 -19.835 -144.146c1.09375 -45.6025 9.41992 -102.748 54.4287 -126.104c47.5449 -24.6709 96.3193 5.34863 124.073 44.4453
c28.0498 39.5107 46.7949 86.4551 62.083 132.115c47.9463 143.186 57.0371 293.94 55.9639 444.468c-3.54199 0.869141 -7.09766 1.7041 -10.6738 2.46484c-45.1855 9.59961 -119.769 9.50488 -131.145 -49.0703c-1.20215 -6.19727 -19.0234 -5.68066 -18.1338 -0.630859
c7.07715 40.2002 48.6523 59.1592 85.4668 63.2988c24.8545 2.79492 49.8857 0.380859 74.4072 -4.71973c-0.730469 70.1787 -3.51855 140.266 -5.45801 209.47c-0.62793 22.4023 40.4922 26.9395 55.1758 27.7549c12.4932 0.696289 35.2422 -0.631836 47.9766 -9.97363
c55.668 -1.06934 100.979 -63.3223 117.74 -113.149c12.959 -38.5195 14.8066 -81.7588 15.6729 -122.125c0.523438 -24.5244 -0.0771484 -48.9404 -1.32324 -73.333c6.74121 -1.89453 13.5264 -3.64355 20.3721 -5.16504c23.9443 -5.32422 60.8506 -15.376 79.1377 6.82227
c4.02441 4.88672 23.0713 2.94043 19.4141 -1.77637c-22.6572 -29.2314 -67.2314 -22.7354 -99.0781 -16.9688c-6.89062 1.25 -13.7295 2.74121 -20.5312 4.39453c-1.02246 -17.0264 -2.32617 -34.0498 -3.76562 -51.1035
c-7.3457 -86.9609 -19.4082 -173.646 -21.5684 -260.978c-1.11426 -45.0391 0.607422 -90.0781 2.83203 -135.049c1.87402 -37.8193 6.21387 -76.4434 17.3418 -112.782c9.20996 -30.0771 25.2285 -64.7656 53.0029 -81.8057
c30.5967 -18.7725 66.8369 -16.6973 92.9473 8.54395c5.66113 5.47363 32.3184 3.35156 24.124 -5.59277c-50.6523 -55.2842 -144.401 -30.3896 -192.188 15.0771c-56.1133 53.3896 -78.1689 140.602 -86.1699 215.106c-9.46777 88.207 1.62598 178.428 11.5723 266.139
c6.44238 56.8057 13.5293 113.397 19.5605 170.139c-8.32031 3.3623 -16.5928 6.80273 -24.8213 10.2529c-2.33594 0.977539 -4.67188 1.96191 -7.00781 2.94629c-3.35547 -59.2881 -9.33887 -118.42 -19.6348 -176.927
c-20.5615 -116.831 -57.4883 -241.859 -133.956 -335.266c-33.4316 -40.8389 -77.0137 -75.6934 -130.189 -84.998c-43.9629 -7.69141 -93.8984 1.04297 -121.792 38.8213c-29.9854 40.6182 -29.873 99.3154 -26.4668 147.384
c3.69824 52.1436 16.3545 103.74 36.7461 151.855c20.4629 48.2783 48.8789 93.0186 83.9375 132.017c32.542 36.1963 73.0137 72.9092 124.131 74.9531c11.1963 0.448242 11.3115 -7.97363 0.298828 -8.56152c-32.4443 -1.72852 -58.8398 -24.1475 -81.1338 -45.8066
c-19.4883 -18.9385 -37.4932 -39.2832 -53.46 -61.2852zM426.725 548.255c-1.71484 21.8018 -10.6738 38.5674 -28.6309 51.4717c-7.85156 5.64355 -16.4297 9.95605 -25.3271 12.1426c0.179688 -0.666016 0.416992 -1.30078 0.529297 -2.00684
c11.9707 -75.2725 13.0508 -151.55 10.1475 -227.597c-0.308594 -8.08887 -0.678711 -16.1748 -1.07617 -24.2607c10.8428 -4.44824 21.6582 -8.96094 32.501 -13.4131c2.97852 28.9463 5.68164 57.9365 7.80762 87.0254c1.52148 20.8164 1.42676 41.6699 2.69727 62.4766
c1.09668 18.0254 2.77441 36.085 1.35156 54.1611z" />
    <glyph glyph-name="A" unicode="&#xc1;" horiz-adv-x="576" 
d="M60.04 175.512c-30.9971 -42.7129 -54.709 -90.6748 -70.0752 -141.15c-14.167 -46.5742 -21.0029 -95.4639 -19.835 -144.146c1.09375 -45.6025 9.41992 -102.748 54.4287 -126.104c47.5449 -24.6709 96.3193 5.34863 124.073 44.4453
c28.0498 39.5107 46.7949 86.4551 62.083 132.115c47.9463 143.186 57.0371 293.94 55.9639 444.468c-3.54199 0.869141 -7.09766 1.7041 -10.6738 2.46484c-45.1855 9.59961 -119.769 9.50488 -131.145 -49.0703c-1.20215 -6.19727 -19.0234 -5.68066 -18.1338 -0.630859
c7.07715 40.2002 48.6523 59.1592 85.4668 63.2988c24.8545 2.79492 49.8857 0.380859 74.4072 -4.71973c-0.730469 70.1787 -3.51855 140.266 -5.45801 209.47c-0.62793 22.4023 40.4922 26.9395 55.1758 27.7549c12.4932 0.696289 35.2422 -0.631836 47.9766 -9.97363
c55.668 -1.06934 100.979 -63.3223 117.74 -113.149c12.959 -38.5195 14.8066 -81.7588 15.6729 -122.125c0.523438 -24.5244 -0.0771484 -48.9404 -1.32324 -73.333c6.74121 -1.89453 13.5264 -3.64355 20.3721 -5.16504c23.9443 -5.32422 60.8506 -15.376 79.1377 6.82227
c4.02441 4.88672 23.0713 2.94043 19.4141 -1.77637c-22.6572 -29.2314 -67.2314 -22.7354 -99.0781 -16.9688c-6.89062 1.25 -13.7295 2.74121 -20.5312 4.39453c-1.02246 -17.0264 -2.32617 -34.0498 -3.76562 -51.1035
c-7.3457 -86.9609 -19.4082 -173.646 -21.5684 -260.978c-1.11426 -45.0391 0.607422 -90.0781 2.83203 -135.049c1.87402 -37.8193 6.21387 -76.4434 17.3418 -112.782c9.20996 -30.0771 25.2285 -64.7656 53.0029 -81.8057
c30.5967 -18.7725 66.8369 -16.6973 92.9473 8.54395c5.66113 5.47363 32.3184 3.35156 24.124 -5.59277c-50.6523 -55.2842 -144.401 -30.3896 -192.188 15.0771c-56.1133 53.3896 -78.1689 140.602 -86.1699 215.106c-9.46777 88.207 1.62598 178.428 11.5723 266.139
c6.44238 56.8057 13.5293 113.397 19.5605 170.139c-8.32031 3.3623 -16.5928 6.80273 -24.8213 10.2529c-2.33594 0.977539 -4.67188 1.96191 -7.00781 2.94629c-3.35547 -59.2881 -9.33887 -118.42 -19.6348 -176.927
c-20.5615 -116.831 -57.4883 -241.859 -133.956 -335.266c-33.4316 -40.8389 -77.0137 -75.6934 -130.189 -84.998c-43.9629 -7.69141 -93.8984 1.04297 -121.792 38.8213c-29.9854 40.6182 -29.873 99.3154 -26.4668 147.384
c3.69824 52.1436 16.3545 103.74 36.7461 151.855c20.4629 48.2783 48.8789 93.0186 83.9375 132.017c32.542 36.1963 73.0137 72.9092 124.131 74.9531c11.1963 0.448242 11.3115 -7.97363 0.298828 -8.56152c-32.4443 -1.72852 -58.8398 -24.1475 -81.1338 -45.8066
c-19.4883 -18.9385 -37.4932 -39.2832 -53.46 -61.2852zM426.725 548.255c-1.71484 21.8018 -10.6738 38.5674 -28.6309 51.4717c-7.85156 5.64355 -16.4297 9.95605 -25.3271 12.1426c0.179688 -0.666016 0.416992 -1.30078 0.529297 -2.00684
c11.9707 -75.2725 13.0508 -151.55 10.1475 -227.597c-0.308594 -8.08887 -0.678711 -16.1748 -1.07617 -24.2607c10.8428 -4.44824 21.6582 -8.96094 32.501 -13.4131c2.97852 28.9463 5.68164 57.9365 7.80762 87.0254c1.52148 20.8164 1.42676 41.6699 2.69727 62.4766
c1.09668 18.0254 2.77441 36.085 1.35156 54.1611z" />
    <glyph glyph-name="B" unicode="B" horiz-adv-x="821" 
d="M-36.4365 498.188c0.46875 6.11914 18.4863 6.14453 18.1436 0.643555c-1.58594 -25.1934 -3.57617 -52.207 5.49121 -76.3584c8.21094 -21.8828 29.0576 -46.1123 54.6084 -40.2881c23.1562 5.27734 39.9082 29.4727 52.7783 47.8105
c12.1875 17.3662 22.7822 35.7754 32.9395 54.3809c18.1338 33.2217 34.8379 67.4072 56.1777 98.7539c17.9434 26.3623 40.4307 57 73.0439 65.1162c30.3389 7.54883 63.6621 -9.4541 81.9824 -33.3027c26.25 -34.1729 25.4111 -81.0156 23.6865 -122.048
c-3.63672 -86.5801 -14.9004 -172.692 -20.6191 -259.175c1.89453 9.95996 3.87402 19.9102 6.00293 29.8291c17.4551 81.3477 40.7607 164.243 78.8379 238.562c16.9453 33.0723 37.667 64.5107 63.8525 91.0322c23.0234 23.3193 51.8096 45.4844 86.5625 39.7793
c35.1367 -5.7666 52.751 -44.1973 57.4062 -76.1152c6.18359 -42.377 -5.41699 -85.834 -15.9609 -126.536c-10.3271 -39.874 -26.5557 -79.0283 -43.6572 -116.45c-5.81348 -12.7207 -11.7764 -25.5371 -17.9199 -38.3057
c34.6953 -1.51758 68.3379 -12.6797 93.7324 -37.9648c47.667 -47.4707 60.2998 -127.874 65.6582 -192.304c0.0507812 -0.631836 0.0878906 -1.27051 0.138672 -1.90234c15.8008 4.36328 31.5098 9.03223 47.0049 14.3975c29.041 10.0547 59.3252 21.6211 74.7461 50.0713
c3.71484 6.85254 27.8154 5.30078 24.0361 -2.2002c-23.4756 -46.5879 -88.7266 -60.2734 -134.607 -72.9736c-3.41992 -0.944336 -6.84668 -1.87793 -10.2803 -2.79785c6.20801 -111.812 -20.6943 -228.921 -82.1318 -322.901
c-36.8242 -56.334 -92.2168 -102.222 -162.147 -104.46c-55.3018 -1.76953 -107.635 25.3428 -114.742 84.5361c-6.70996 55.8994 15.8555 119.904 42.3057 168.306c27.4082 50.1494 66.043 92.1836 115.731 120.763c26.5654 15.2783 55.0088 26.4102 84.1318 35.6504
c-0.132812 5.24609 -0.289062 10.4961 -0.564453 15.7363c-2.59082 49.4775 -9.69531 103.614 -30.7568 148.945c-5.37891 11.5869 -11.8379 23.123 -20.3008 32.7676c-2.62207 2.98828 -5.3457 5.52539 -8.34082 7.93262
c-9.56641 -5.91211 -18.3955 -13.2881 -27.1533 -20.3076c-18.915 -15.166 -48.252 -16.918 -71.2012 -13.2881c-10.9512 1.73145 -45.5205 11.1787 -34.2734 29.9443c22.1787 37.0049 47.4062 72.3115 69.8594 109.231c22.6943 37.3135 43.2324 75.3711 62.0693 114.767
c17.2207 36.0166 33.6562 75.1133 41.7109 114.268c3.42285 16.6494 9.75586 37.8398 4.16602 54.7373c-9.82422 29.6895 -42.7949 8.81152 -57.6182 -3.79004c-53.2471 -45.2598 -85.0488 -111.425 -108.803 -175.8c-47.7656 -129.453 -72.7998 -267.439 -77.2148 -405.386
c1.7627 -25.1904 4.07227 -50.374 7.05371 -75.5508c2.75781 -23.2686 -44.6826 -28.6445 -58.4629 -29.4082c-18.0791 -1.00195 -56.7031 1.92188 -60.3711 25.2578c-16.1035 102.493 -14.46 209.234 -3.84766 312.251c4.57422 44.4072 10.001 88.9473 17.3086 132.998
c7.73535 46.6152 20.2998 92.1777 29.5195 138.467c4.58105 22.9932 8.26855 46.6895 9.62305 70.0967c0.618164 10.6523 2.78809 31.2715 -3.62695 39.707c-14.7344 19.373 -52.8184 -27.333 -60.0078 -36.4473c-11.4199 -14.4766 -21.4785 -29.9824 -30.8984 -45.8174
c-19.9404 -33.5273 -36.7773 -68.8203 -57.5156 -101.882c-17.458 -27.8359 -38.7598 -61.2744 -70.334 -74.4609c-25.2822 -10.5576 -53.709 -5.39551 -73.2627 13.8594c-28.6885 28.25 -26.5283 70.5791 -23.6895 107.624zM532.159 -264.693
c46.4346 78.916 68.3555 170.183 68.4814 261.398c-12.7852 -4.56445 -25.3906 -9.62109 -37.7178 -15.4277c-95.4033 -44.9404 -155.153 -137.705 -157.707 -243.115c-0.625 -25.6895 0.241211 -53.875 14.0625 -76.4033
c7.24316 -11.8076 15.3086 -16.4434 27.3711 -22.1924c-1.6709 0.794922 0.675781 0.30957 2.28906 -0.125c0.349609 0.407227 3.30078 0.719727 1.45703 -0.234375c12.7275 5.59668 30.5723 22.7627 40.875 35.2832c15.3662 18.6738 28.6436 40.0029 40.8887 60.8164z
M551.876 223.568c2.61523 -0.0302734 7.0459 3.36133 -0.146484 0.00292969c0.0439453 0 0.105469 -0.00292969 0.146484 -0.00292969z" />
    <glyph glyph-name="C" unicode="C" horiz-adv-x="411" 
d="M243.431 613.192c19.835 -39.46 26.416 -86.6836 21.9814 -130.521c37.1914 3.74902 75.666 3.1543 106.966 25.9746c4.97852 3.62988 25.0137 0.712891 18.3037 -4.24121c-34.8584 -25.7471 -77.0283 -26.9795 -118.519 -31.1191
c-2.60449 -0.261719 -5.26367 -0.577148 -7.95996 -0.950195c-5.10742 -37.208 -19.21 -90.4785 -55.165 -106.592c-13.4678 -6.03809 -32.1143 -6.75781 -44.9844 1.18164c-16.0723 9.91211 -17.6816 30.124 -12.6084 46.8115
c11.2061 36.8516 48.5811 56.1504 83.5957 64.2393c1.1543 0.264648 2.31543 0.512695 3.47656 0.753906c4.16699 45.127 -4.35645 96.1836 -31.8291 133.345c-3.54492 4.79199 -7.61621 9.5127 -12.1465 13.3877c-2.34277 2.00684 -7.22949 3.86426 -8.22461 5.32812
c-0.322266 -0.224609 -0.607422 -0.421875 -0.987305 -0.683594c-8.48926 -5.875 -14.3438 -15.251 -19.2852 -24.0869c-13.6953 -24.4941 -21.0166 -51.8135 -28.0967 -78.7529c-12.6357 -48.0889 -22.8848 -95.9502 -30.9365 -145
c-20.4668 -124.686 -24.3857 -255.354 -8.77539 -380.811c6.78516 -54.5508 17.5059 -109.94 39.1543 -160.705c8.79492 -20.626 20.4863 -42.7666 34.4639 -60.3535c6.19043 -7.78711 13.8584 -12.2119 19.9502 -16.4639
c1.14746 -0.797852 5.07324 -3.28711 5.1377 -3.8877c1.69824 -0.0986328 4.48633 -0.15332 6.02441 -0.0546875c24.4229 1.54199 45.9863 20.667 62.8262 36.8008c24.3213 23.2988 44.5605 50.8662 62.46 79.293c45.3145 71.9648 77.2559 152.623 103.655 233.152
c1.72168 5.24707 19.5869 4.63965 17.5664 -1.60547c-8.20801 -25.3428 -16.9766 -50.499 -26.5596 -75.3564c-30.7764 -79.8428 -68.7451 -162.678 -126.183 -227.212c-38.0674 -42.7705 -93.7256 -76.1113 -149.899 -63.7471
c-64.9561 14.2969 -105.774 70.1826 -128.608 128.737c-26.6436 68.3242 -37.0586 141.749 -41.8193 214.583c-4.90332 74.9902 -1.97656 151.017 5.77246 225.712c6.21094 59.8828 15.6377 121.382 38.3389 177.525c13.8105 34.1523 30.3857 66.2705 52.2656 96.0215
c19.9814 27.167 44.7744 54.2656 77.4863 65.584c39.4092 13.6348 74.4785 0.879883 93.1621 -36.2881zM218.801 405.531c9.24023 19.2236 15.2021 39.9346 18.2686 61.0225c-31.4561 -9.24707 -60.8984 -28.0869 -64.6377 -63.166
c-1.5957 -14.9756 4.10547 -37.7139 25.791 -26.6201c9.3418 4.77832 16.2861 19.8359 20.5781 28.7637z" />
    <glyph glyph-name="D" unicode="D" horiz-adv-x="816" 
d="M-36.4365 498.188c0.46875 6.11914 18.4844 6.14648 18.1348 0.641602c-1.58594 -25.1934 -3.57617 -52.207 5.49121 -76.3584c8.21094 -21.8828 29.0576 -46.1123 54.6084 -40.2881c23.1562 5.27734 39.9082 29.4727 52.7783 47.8105
c12.1875 17.3662 22.7822 35.7754 32.9395 54.3809c18.1338 33.2217 34.8379 67.4072 56.1777 98.7539c17.9434 26.3623 40.4307 57 73.0439 65.1162c30.3418 7.54883 63.665 -9.4541 81.9854 -33.3027c26.25 -34.1729 25.4082 -81.0156 23.6865 -122.048
c-3.85449 -91.7559 -16.2871 -182.988 -21.5918 -274.693c-0.204102 -3.51855 -0.3125 -7.03027 -0.492188 -10.5449c4.73047 24.375 9.94336 48.6621 15.6758 72.834c20.8604 87.9727 46.832 176.862 95.1514 254.107c17.0371 27.2344 38.0742 61.8682 69.5566 74.0215
c30.3008 11.6953 60.1025 -1.4873 83.2246 -21.7949c30.875 -27.1162 44.5498 -68.6953 56.7236 -107c12.8223 -40.3428 16.7344 -86.6113 20.2393 -128.648c7.42676 -89.0869 4.60156 -178.071 -9.62695 -266.35c-2.90039 -17.9941 -6.17773 -36.2812 -9.95703 -54.6084
c63.4414 10.123 127.072 23.2578 173.521 71.0781c5.03613 5.18555 28.4199 2.56055 21.2139 -4.91699c-51.6338 -53.5762 -126.798 -67.6348 -197.435 -78.8066c-12.9004 -58.585 -31.6826 -117.011 -62.6055 -167.109
c-21.207 -34.3623 -52.3301 -64.0254 -87.834 -83.4697c-32.084 -17.5732 -72.5928 -31.7744 -109.428 -22.6025c-33.8223 8.42188 -45.3643 37.8506 -42.1787 70.2266c3.73242 37.9453 23.6523 72.1377 47.9424 100.663c38.3867 45.0801 87.5889 73.9688 142.068 91.4775
c33.7852 124.994 43.1172 257.436 41.9248 385.843c-0.349609 37.6162 -2.18359 75.6152 -5.84766 113.03c-1.80664 18.4424 -6.03809 35.8193 -9.90625 53.8135c-2.46191 11.4404 -3.52441 25.9336 -12.0381 35.126c-42.7471 46.1602 -122.298 -128.043 -133.317 -155.295
c-29.1436 -72.0664 -47.8242 -148.548 -63.1357 -224.602c-10.3535 -51.4268 -18.415 -103.271 -24.3408 -155.367c1.71875 -37.8125 4.7373 -75.5908 9.21289 -113.363c2.75781 -23.2686 -44.6826 -28.6445 -58.4629 -29.4082
c-18.0791 -1.00195 -56.7031 1.92188 -60.3711 25.2578c-16.1035 102.493 -14.46 209.234 -3.84766 312.251c4.57422 44.4072 10.001 88.9473 17.3086 132.998c7.73535 46.6152 20.2998 92.1777 29.5195 138.467c4.58105 22.9932 8.26855 46.6895 9.62305 70.0967
c0.618164 10.6523 2.78809 31.2715 -3.62695 39.707c-14.7344 19.373 -52.8184 -27.333 -60.0078 -36.4473c-11.4199 -14.4766 -21.4785 -29.9824 -30.8984 -45.8174c-19.9404 -33.5273 -36.7773 -68.8203 -57.5156 -101.882
c-17.458 -27.8359 -38.7598 -61.2744 -70.334 -74.4609c-25.2822 -10.5576 -53.709 -5.39551 -73.2627 13.8594c-28.6885 28.25 -26.5283 70.5791 -23.6895 107.624zM483.254 -155.613c15.6074 27.0547 28.0127 55.6797 38.791 84.9824
c7.52539 20.46 14.249 41.209 20.2832 62.1748c-7.10449 -2.67969 -14.124 -5.63379 -21.0146 -8.96875c-35.6221 -17.2441 -67.4238 -42.9883 -91.9346 -74.0605c-21.5605 -27.333 -38.957 -60.1475 -40.6416 -95.5254
c-0.770508 -16.1406 2.11621 -36.4746 16.9463 -46.1523c10.0039 -6.53027 20.2012 0.12207 28.3242 7.20898c21.7842 19.0029 35.082 45.7891 49.2461 70.3408z" />
    <glyph glyph-name="E" unicode="E" horiz-adv-x="384" 
d="M-27.5684 -74.2695c-12.2656 95.8066 21.877 200.568 102.48 253.306c-29.0107 18.5918 -53.3994 44.2881 -70.2119 74.7764c-44.0684 79.9043 -39.5244 182.526 1.29004 262.654c20.7793 40.7939 47.6914 84.2168 84.8145 112.185
c34.6924 26.1348 86.6045 37.0762 115.605 -2.75391c28.1377 -38.6377 36.04 -95.457 30.7666 -144.307c37.7139 3.81348 76.2334 4.41797 107.274 27.0576c4.98145 3.63379 25.0098 0.709961 18.3027 -4.24121c-38.1152 -28.1445 -82.8486 -25.126 -126.695 -31.707
c-0.78418 -5.4541 -1.68359 -10.8193 -2.79102 -15.9814c-8.66602 -40.3965 -37.4863 -116.182 -93.1777 -91.7109c-22.9629 10.0889 -22.0566 38.1211 -13.0439 57.7793c9.86816 21.5264 29.5781 36.6748 50.9248 45.7861c10.5684 4.50977 21.6387 7.41309 32.9639 9.4707
c2.37012 24.8916 0.75 50.1904 -4.71777 74.0635c-5.68164 24.7998 -17.1729 52.5205 -34.9092 71.252c-5.14844 5.44043 -10.0996 11.9229 -17.1934 9.70215c-4.48242 -1.40234 -8.96484 -7.68848 -11.9189 -11.1729
c-21.5566 -25.4111 -32.5049 -60.7178 -40.3115 -92.4961c-8.12988 -33.0996 -13.2744 -66.5586 -14.4424 -100.582c-2.33984 -68.1582 6.3125 -138.829 52.6758 -191.879c1.21875 -1.39551 4.24414 -4.58398 4.60742 -5.03516
c1.00195 -0.97168 1.99023 -1.95605 3.01562 -2.90723c3.51172 -3.25684 7.14844 -6.37793 10.9043 -9.34961c6.41504 -5.08008 13.2441 -9.28711 20.0762 -13.7051c0.536133 -0.285156 1.06934 -0.574219 1.61914 -0.822266
c2.02051 -0.910156 4.02734 -1.84766 6.05078 -2.75098c1.87109 -0.834961 3.81738 -1.58496 5.76953 -2.20605c9.63086 -3.05957 18.7725 -11.1924 16.6367 -21.7266c-2.14258 -10.5742 -14.3643 -15.9971 -23.9609 -19.3525
c-5.49414 -2.70605 -10.832 -5.56152 -16.1533 -8.59375c-1.54199 -1.1543 -3.23633 -2.18359 -4.77148 -3.30078c-4.53711 -3.29688 -8.9248 -6.79492 -13.1592 -10.4658c-4.42188 -3.83398 -8.67383 -7.86523 -12.7422 -12.0723
c-1.67383 -1.73145 -3.29004 -3.52148 -4.90332 -5.31152c-0.563477 -0.726562 -3.14062 -3.79297 -4.02051 -4.91992c-43.9766 -56.3096 -53.8037 -129.446 -46.791 -198.986c4.16992 -41.3652 17.0811 -81.8027 41.7656 -115.604
c7.59961 -10.4121 18.7002 -16.1582 27.4717 -22.6914c2.69629 -2.00684 6.90332 -6.52637 9.05664 -7.4873c1.51074 -0.675781 9.88477 -2.10156 14.0615 -2.5293c27.3027 -2.80176 56.4287 13.2842 77.9922 28.4502c27.8896 19.6143 51.6504 45.2393 70.8643 73.2959
c48.207 70.3955 72.6299 154.918 80.1787 239.261c0.553711 6.16992 18.6025 6.04785 18.1377 0.634766c-8.52734 -99.2568 -40.5195 -200.694 -106.867 -276.866c-41.7549 -47.9326 -100.062 -81.3848 -165.018 -80.3291
c-20.1582 0.329102 -39.2598 1.1709 -58.5146 7.69043c-19.0645 6.45508 -37.501 15.8984 -53.3701 28.3242c-40.8389 31.9717 -59.2754 88.584 -65.6221 138.156zM188.602 400.622c10.7686 20.5586 17.6914 43.2676 21.04 66.5703
c-22.9561 -6.55762 -44.8623 -18.9219 -57.0088 -40.1904c-6.91016 -12.0996 -11.79 -28.2979 -6.13965 -41.8232c3.62988 -8.68359 5.10059 -9.58691 15.0234 -8.97949c9.86523 0.604492 7.33203 -0.390625 12.8193 3.93555
c6.11914 4.8252 10.6797 13.6377 14.2656 20.4873z" />
    <glyph glyph-name="E" unicode="&#xcb;" horiz-adv-x="384" 
d="M-27.5684 -74.2695c-12.2656 95.8066 21.877 200.568 102.48 253.306c-29.0107 18.5918 -53.3994 44.2881 -70.2119 74.7764c-44.0684 79.9043 -39.5244 182.526 1.29004 262.654c20.7793 40.7939 47.6914 84.2168 84.8145 112.185
c34.6924 26.1348 86.6045 37.0762 115.605 -2.75391c28.1377 -38.6377 36.04 -95.457 30.7666 -144.307c37.7139 3.81348 76.2334 4.41797 107.274 27.0576c4.98145 3.63379 25.0098 0.709961 18.3027 -4.24121c-38.1152 -28.1445 -82.8486 -25.126 -126.695 -31.707
c-0.78418 -5.4541 -1.68359 -10.8193 -2.79102 -15.9814c-8.66602 -40.3965 -37.4863 -116.182 -93.1777 -91.7109c-22.9629 10.0889 -22.0566 38.1211 -13.0439 57.7793c9.86816 21.5264 29.5781 36.6748 50.9248 45.7861c10.5684 4.50977 21.6387 7.41309 32.9639 9.4707
c2.37012 24.8916 0.75 50.1904 -4.71777 74.0635c-5.68164 24.7998 -17.1729 52.5205 -34.9092 71.252c-5.14844 5.44043 -10.0996 11.9229 -17.1934 9.70215c-4.48242 -1.40234 -8.96484 -7.68848 -11.9189 -11.1729
c-21.5566 -25.4111 -32.5049 -60.7178 -40.3115 -92.4961c-8.12988 -33.0996 -13.2744 -66.5586 -14.4424 -100.582c-2.33984 -68.1582 6.3125 -138.829 52.6758 -191.879c1.21875 -1.39551 4.24414 -4.58398 4.60742 -5.03516
c1.00195 -0.97168 1.99023 -1.95605 3.01562 -2.90723c3.51172 -3.25684 7.14844 -6.37793 10.9043 -9.34961c6.41504 -5.08008 13.2441 -9.28711 20.0762 -13.7051c0.536133 -0.285156 1.06934 -0.574219 1.61914 -0.822266
c2.02051 -0.910156 4.02734 -1.84766 6.05078 -2.75098c1.87109 -0.834961 3.81738 -1.58496 5.76953 -2.20605c9.63086 -3.05957 18.7725 -11.1924 16.6367 -21.7266c-2.14258 -10.5742 -14.3643 -15.9971 -23.9609 -19.3525
c-5.49414 -2.70605 -10.832 -5.56152 -16.1533 -8.59375c-1.54199 -1.1543 -3.23633 -2.18359 -4.77148 -3.30078c-4.53711 -3.29688 -8.9248 -6.79492 -13.1592 -10.4658c-4.42188 -3.83398 -8.67383 -7.86523 -12.7422 -12.0723
c-1.67383 -1.73145 -3.29004 -3.52148 -4.90332 -5.31152c-0.563477 -0.726562 -3.14062 -3.79297 -4.02051 -4.91992c-43.9766 -56.3096 -53.8037 -129.446 -46.791 -198.986c4.16992 -41.3652 17.0811 -81.8027 41.7656 -115.604
c7.59961 -10.4121 18.7002 -16.1582 27.4717 -22.6914c2.69629 -2.00684 6.90332 -6.52637 9.05664 -7.4873c1.51074 -0.675781 9.88477 -2.10156 14.0615 -2.5293c27.3027 -2.80176 56.4287 13.2842 77.9922 28.4502c27.8896 19.6143 51.6504 45.2393 70.8643 73.2959
c48.207 70.3955 72.6299 154.918 80.1787 239.261c0.553711 6.16992 18.6025 6.04785 18.1377 0.634766c-8.52734 -99.2568 -40.5195 -200.694 -106.867 -276.866c-41.7549 -47.9326 -100.062 -81.3848 -165.018 -80.3291
c-20.1582 0.329102 -39.2598 1.1709 -58.5146 7.69043c-19.0645 6.45508 -37.501 15.8984 -53.3701 28.3242c-40.8389 31.9717 -59.2754 88.584 -65.6221 138.156zM188.602 400.622c10.7686 20.5586 17.6914 43.2676 21.04 66.5703
c-22.9561 -6.55762 -44.8623 -18.9219 -57.0088 -40.1904c-6.91016 -12.0996 -11.79 -28.2979 -6.13965 -41.8232c3.62988 -8.68359 5.10059 -9.58691 15.0234 -8.97949c9.86523 0.604492 7.33203 -0.390625 12.8193 3.93555
c6.11914 4.8252 10.6797 13.6377 14.2656 20.4873z" />
    <glyph glyph-name="E" unicode="&#xca;" horiz-adv-x="384" 
d="M-27.5684 -74.2695c-12.2656 95.8066 21.877 200.568 102.48 253.306c-29.0107 18.5918 -53.3994 44.2881 -70.2119 74.7764c-44.0684 79.9043 -39.5244 182.526 1.29004 262.654c20.7793 40.7939 47.6914 84.2168 84.8145 112.185
c34.6924 26.1348 86.6045 37.0762 115.605 -2.75391c28.1377 -38.6377 36.04 -95.457 30.7666 -144.307c37.7139 3.81348 76.2334 4.41797 107.274 27.0576c4.98145 3.63379 25.0098 0.709961 18.3027 -4.24121c-38.1152 -28.1445 -82.8486 -25.126 -126.695 -31.707
c-0.78418 -5.4541 -1.68359 -10.8193 -2.79102 -15.9814c-8.66602 -40.3965 -37.4863 -116.182 -93.1777 -91.7109c-22.9629 10.0889 -22.0566 38.1211 -13.0439 57.7793c9.86816 21.5264 29.5781 36.6748 50.9248 45.7861c10.5684 4.50977 21.6387 7.41309 32.9639 9.4707
c2.37012 24.8916 0.75 50.1904 -4.71777 74.0635c-5.68164 24.7998 -17.1729 52.5205 -34.9092 71.252c-5.14844 5.44043 -10.0996 11.9229 -17.1934 9.70215c-4.48242 -1.40234 -8.96484 -7.68848 -11.9189 -11.1729
c-21.5566 -25.4111 -32.5049 -60.7178 -40.3115 -92.4961c-8.12988 -33.0996 -13.2744 -66.5586 -14.4424 -100.582c-2.33984 -68.1582 6.3125 -138.829 52.6758 -191.879c1.21875 -1.39551 4.24414 -4.58398 4.60742 -5.03516
c1.00195 -0.97168 1.99023 -1.95605 3.01562 -2.90723c3.51172 -3.25684 7.14844 -6.37793 10.9043 -9.34961c6.41504 -5.08008 13.2441 -9.28711 20.0762 -13.7051c0.536133 -0.285156 1.06934 -0.574219 1.61914 -0.822266
c2.02051 -0.910156 4.02734 -1.84766 6.05078 -2.75098c1.87109 -0.834961 3.81738 -1.58496 5.76953 -2.20605c9.63086 -3.05957 18.7725 -11.1924 16.6367 -21.7266c-2.14258 -10.5742 -14.3643 -15.9971 -23.9609 -19.3525
c-5.49414 -2.70605 -10.832 -5.56152 -16.1533 -8.59375c-1.54199 -1.1543 -3.23633 -2.18359 -4.77148 -3.30078c-4.53711 -3.29688 -8.9248 -6.79492 -13.1592 -10.4658c-4.42188 -3.83398 -8.67383 -7.86523 -12.7422 -12.0723
c-1.67383 -1.73145 -3.29004 -3.52148 -4.90332 -5.31152c-0.563477 -0.726562 -3.14062 -3.79297 -4.02051 -4.91992c-43.9766 -56.3096 -53.8037 -129.446 -46.791 -198.986c4.16992 -41.3652 17.0811 -81.8027 41.7656 -115.604
c7.59961 -10.4121 18.7002 -16.1582 27.4717 -22.6914c2.69629 -2.00684 6.90332 -6.52637 9.05664 -7.4873c1.51074 -0.675781 9.88477 -2.10156 14.0615 -2.5293c27.3027 -2.80176 56.4287 13.2842 77.9922 28.4502c27.8896 19.6143 51.6504 45.2393 70.8643 73.2959
c48.207 70.3955 72.6299 154.918 80.1787 239.261c0.553711 6.16992 18.6025 6.04785 18.1377 0.634766c-8.52734 -99.2568 -40.5195 -200.694 -106.867 -276.866c-41.7549 -47.9326 -100.062 -81.3848 -165.018 -80.3291
c-20.1582 0.329102 -39.2598 1.1709 -58.5146 7.69043c-19.0645 6.45508 -37.501 15.8984 -53.3701 28.3242c-40.8389 31.9717 -59.2754 88.584 -65.6221 138.156zM188.602 400.622c10.7686 20.5586 17.6914 43.2676 21.04 66.5703
c-22.9561 -6.55762 -44.8623 -18.9219 -57.0088 -40.1904c-6.91016 -12.0996 -11.79 -28.2979 -6.13965 -41.8232c3.62988 -8.68359 5.10059 -9.58691 15.0234 -8.97949c9.86523 0.604492 7.33203 -0.390625 12.8193 3.93555
c6.11914 4.8252 10.6797 13.6377 14.2656 20.4873z" />
    <glyph glyph-name="E" unicode="&#xc9;" horiz-adv-x="384" 
d="M-27.5684 -74.2695c-12.2656 95.8066 21.877 200.568 102.48 253.306c-29.0107 18.5918 -53.3994 44.2881 -70.2119 74.7764c-44.0684 79.9043 -39.5244 182.526 1.29004 262.654c20.7793 40.7939 47.6914 84.2168 84.8145 112.185
c34.6924 26.1348 86.6045 37.0762 115.605 -2.75391c28.1377 -38.6377 36.04 -95.457 30.7666 -144.307c37.7139 3.81348 76.2334 4.41797 107.274 27.0576c4.98145 3.63379 25.0098 0.709961 18.3027 -4.24121c-38.1152 -28.1445 -82.8486 -25.126 -126.695 -31.707
c-0.78418 -5.4541 -1.68359 -10.8193 -2.79102 -15.9814c-8.66602 -40.3965 -37.4863 -116.182 -93.1777 -91.7109c-22.9629 10.0889 -22.0566 38.1211 -13.0439 57.7793c9.86816 21.5264 29.5781 36.6748 50.9248 45.7861c10.5684 4.50977 21.6387 7.41309 32.9639 9.4707
c2.37012 24.8916 0.75 50.1904 -4.71777 74.0635c-5.68164 24.7998 -17.1729 52.5205 -34.9092 71.252c-5.14844 5.44043 -10.0996 11.9229 -17.1934 9.70215c-4.48242 -1.40234 -8.96484 -7.68848 -11.9189 -11.1729
c-21.5566 -25.4111 -32.5049 -60.7178 -40.3115 -92.4961c-8.12988 -33.0996 -13.2744 -66.5586 -14.4424 -100.582c-2.33984 -68.1582 6.3125 -138.829 52.6758 -191.879c1.21875 -1.39551 4.24414 -4.58398 4.60742 -5.03516
c1.00195 -0.97168 1.99023 -1.95605 3.01562 -2.90723c3.51172 -3.25684 7.14844 -6.37793 10.9043 -9.34961c6.41504 -5.08008 13.2441 -9.28711 20.0762 -13.7051c0.536133 -0.285156 1.06934 -0.574219 1.61914 -0.822266
c2.02051 -0.910156 4.02734 -1.84766 6.05078 -2.75098c1.87109 -0.834961 3.81738 -1.58496 5.76953 -2.20605c9.63086 -3.05957 18.7725 -11.1924 16.6367 -21.7266c-2.14258 -10.5742 -14.3643 -15.9971 -23.9609 -19.3525
c-5.49414 -2.70605 -10.832 -5.56152 -16.1533 -8.59375c-1.54199 -1.1543 -3.23633 -2.18359 -4.77148 -3.30078c-4.53711 -3.29688 -8.9248 -6.79492 -13.1592 -10.4658c-4.42188 -3.83398 -8.67383 -7.86523 -12.7422 -12.0723
c-1.67383 -1.73145 -3.29004 -3.52148 -4.90332 -5.31152c-0.563477 -0.726562 -3.14062 -3.79297 -4.02051 -4.91992c-43.9766 -56.3096 -53.8037 -129.446 -46.791 -198.986c4.16992 -41.3652 17.0811 -81.8027 41.7656 -115.604
c7.59961 -10.4121 18.7002 -16.1582 27.4717 -22.6914c2.69629 -2.00684 6.90332 -6.52637 9.05664 -7.4873c1.51074 -0.675781 9.88477 -2.10156 14.0615 -2.5293c27.3027 -2.80176 56.4287 13.2842 77.9922 28.4502c27.8896 19.6143 51.6504 45.2393 70.8643 73.2959
c48.207 70.3955 72.6299 154.918 80.1787 239.261c0.553711 6.16992 18.6025 6.04785 18.1377 0.634766c-8.52734 -99.2568 -40.5195 -200.694 -106.867 -276.866c-41.7549 -47.9326 -100.062 -81.3848 -165.018 -80.3291
c-20.1582 0.329102 -39.2598 1.1709 -58.5146 7.69043c-19.0645 6.45508 -37.501 15.8984 -53.3701 28.3242c-40.8389 31.9717 -59.2754 88.584 -65.6221 138.156zM188.602 400.622c10.7686 20.5586 17.6914 43.2676 21.04 66.5703
c-22.9561 -6.55762 -44.8623 -18.9219 -57.0088 -40.1904c-6.91016 -12.0996 -11.79 -28.2979 -6.13965 -41.8232c3.62988 -8.68359 5.10059 -9.58691 15.0234 -8.97949c9.86523 0.604492 7.33203 -0.390625 12.8193 3.93555
c6.11914 4.8252 10.6797 13.6377 14.2656 20.4873z" />
    <glyph glyph-name="F" unicode="F" horiz-adv-x="413" 
d="M10.3281 536.405c24.1445 -27.2178 58.5371 -28.7344 91.2734 -17.7422c4.24512 1.42285 8.43555 3.01172 12.6025 4.66895c-2.67969 30.3965 -4.95117 60.8135 -5.74902 91.1992c-0.618164 23.5537 42.5264 28.3115 57.9941 29.1709
c17.9033 0.995117 56.2861 -1.90527 59.8857 -25.0547c1.33496 -8.58496 2.52051 -17.2002 3.62402 -25.8359c3.91895 2.75098 7.83105 5.49121 11.7227 8.1875c42.4824 29.4219 85.498 58.8438 133.196 79.2764c40.4814 17.3428 89.168 32.2266 133.697 25.6484
c45.083 -6.65918 59.3223 -42.8789 63.3359 -83.9316c0.770508 -7.89844 -24.5391 -9.21582 -25.2959 -0.882812c-2.29883 25.3398 -6.9209 57.7197 -32.7432 70.0332c-26.9834 12.8701 -67.2646 1.01562 -93.8643 -7.51172
c-69.9375 -22.4258 -127.948 -66.8467 -188.045 -107.62c5.48047 -48.5098 8.19336 -97.5596 12.1357 -146.062c4.84277 -59.5186 8.93848 -119.085 12.7617 -178.675c19.9473 5.87109 40.166 10.7988 60.7012 14.4795c10.792 1.93262 22.5752 -7.52148 6.71289 -10.3643
c-22.5996 -4.05469 -44.7812 -9.75977 -66.6162 -16.6436c3.67773 -57.7568 7.18555 -115.53 10.167 -173.327c1.62695 -31.5166 2.18066 -63.1045 3.0293 -94.6523c0.777344 -28.8682 4.74707 -67.3936 -8.6123 -93.7627
c-11.376 -22.4531 -72.8271 -23.9814 -86.0576 -3.00488c-15.6816 24.8643 -15.7695 64.1504 -18.123 92.8281c-2.58398 31.4893 -5.64355 62.9619 -7.76953 94.4854c-2.94434 43.6943 -6.00781 87.3789 -9.17578 131.057
c-7.97363 -3.2666 -15.9951 -6.39453 -24.1113 -9.2373c-4.08203 -1.42578 -21.4453 1.24707 -12.1035 6.65625c11.2334 6.50293 23.0371 12.3643 35.0996 17.832c-0.879883 11.9844 -1.71484 23.9717 -2.625 35.9561c-4.61133 60.7275 -9.56934 121.432 -14.3779 182.143
c-2.25781 28.5254 -5.11328 57.1152 -7.72461 85.7217c-29.8867 -10.2998 -62.6836 -14.4629 -92.0029 -1.92578c-38.9639 16.6602 -54.2422 58.4326 -65.1904 96.2285c-1.40234 4.83887 16.2627 6.65527 18.1338 0.634766
c7.66113 -24.627 16.7109 -50.3506 34.1143 -69.9717z" />
    <glyph glyph-name="G" unicode="G" horiz-adv-x="523" 
d="M263.733 569.471c10.5273 -30.2363 10.9707 -64.3291 4.08398 -96.708c14.585 0.587891 29.2002 0.886719 43.7207 2.26855c30.7734 2.93066 72.4775 14.2588 75.5879 51.2969c0.682617 8.10938 24.4502 7.97363 23.8623 0.832031
c-4.12305 -50.1094 -67.0781 -61.1631 -106.8 -63.832c-11.8887 -0.797852 -25.3125 -1.08008 -39.1094 -1.88867c-5.18555 -19.2275 -12.8877 -37.6094 -22.6475 -53.8691c-12.0889 -20.1475 -28.498 -42.625 -52.123 -49.6133
c-19.8994 -5.88477 -46.5029 -2.02051 -54.7275 19.5264c-18.2285 47.749 43.7793 81.1982 80.4854 89.5693c8.83594 2.01758 17.75 3.27441 26.7012 4.12988c8.40137 38.5801 7.45703 84.9092 -16.5273 115.336c-39.8506 50.5576 -75.1738 -30.1582 -89.0527 -59.5664
c-20.6162 -43.6777 -36.1523 -91.7832 -45.7725 -139.087c-10.1641 -49.9834 -12.4971 -100.514 -3.38965 -150.826c3.78613 -20.9082 8.94141 -44.2988 19.5156 -62.9287c2.98535 -5.26367 8.72461 -15.0576 14.9424 -17.0479
c9.33203 -2.98828 26.3213 10.2695 34.4268 16.3281c51.9697 38.8516 95.3418 87.8809 128.196 143.335c-0.0849609 1.11035 -0.146484 2.22754 -0.234375 3.33789c-1.92188 24.2256 -5.10059 48.4688 -3.1416 72.7461c1.85742 23 38.9023 27.1631 55.8818 28.1074
c19.5332 1.08691 51.2432 -2.13574 57.7051 -24.1406c9.0293 -30.749 9.57617 -63.8037 11.4102 -95.6602c1.84082 -31.999 2.99219 -64.0352 3.4502 -96.082c0.668945 -46.9609 -0.458008 -93.9561 -3.65332 -140.815c49.2529 6.28613 98.1221 13.1729 141.681 40.5977
c3.82324 2.40723 21.9844 -0.245117 15.5557 -4.91797c-47.043 -34.1787 -102.589 -39.4971 -158.026 -46.3193c-0.822266 -10.958 -1.71875 -21.9131 -2.77441 -32.8516c-4.93457 -51.0732 -14.6973 -103.063 -30.957 -151.808
c-16.6631 -49.9629 -41.3066 -101.787 -87.5713 -130.387c-34.2705 -21.1836 -83.7822 -29.9043 -119.846 -7.97754c-37.7686 22.9658 -48.2959 70.168 -41.9385 111.274c13.6348 88.1562 85.002 165.965 166.557 197.902
c0.549805 0.217773 1.10645 0.408203 1.66016 0.619141c0.638672 16.9619 0.992188 33.9883 1.11816 51.0928c0.363281 49.7188 -0.0849609 99.5186 -2.24121 149.196c-0.706055 16.3203 -1.66016 32.6309 -2.72656 48.9307
c-13.8789 -21.0234 -29.1367 -41.2324 -45.4805 -60.7344c-39.6943 -47.3555 -90.7949 -103.662 -158.188 -96.8945c-69 6.93066 -104.035 76.3252 -111.896 138.312c-8.18359 64.5244 4.7373 131.827 29.7783 191.441c23.8799 56.8535 69.7988 122.76 129.066 146.582
c48.8457 19.6348 113.356 18.8711 133.439 -38.8076zM259.158 -184.086c18.9248 69.1836 27.6797 138.87 31.0723 209.67c-70.4297 -33.3984 -128.978 -103.319 -141.841 -180.113c-6.8252 -40.7363 2.70996 -97.1211 47.5693 -112.637
c41.4189 -14.3271 55.8848 56.3477 63.1992 83.0801zM236.623 448.879c1.11719 3.31055 2.16699 6.74805 3.14844 10.2695c-34.0264 -4.50977 -66.1035 -16.042 -79.042 -50.1904c-3.73926 -9.86133 -5.55566 -24.2295 0.947266 -33.5068
c6.33008 -9.0332 20.9287 -7.25391 28.8545 -0.805664c5.38965 4.3877 9.99414 9.72266 14.293 15.1387c13.9531 17.5801 24.6299 37.8535 31.7988 59.0947z" />
    <glyph glyph-name="H" unicode="H" horiz-adv-x="847" 
d="M-39.4365 498.188c0.46875 6.11914 18.4824 6.13965 18.1357 0.631836c-1.58594 -25.1934 -3.57617 -52.207 5.49121 -76.3584c8.21094 -21.8828 29.0576 -46.1123 54.6084 -40.2881c23.1562 5.27734 39.9082 29.4727 52.7783 47.8105
c12.1914 17.3662 22.7832 35.7754 32.9404 54.3809c18.1338 33.2217 34.8379 67.4072 56.1777 98.7539c17.9473 26.3623 40.4316 57 73.0449 65.1162c30.3389 7.54883 63.6621 -9.4541 81.9824 -33.3027c26.25 -34.1729 25.4082 -81.0156 23.6865 -122.048
c-3.85449 -91.7559 -16.2871 -182.988 -21.5918 -274.693c-0.618164 -10.6494 -1.10059 -21.2949 -1.49414 -31.9346c31.4082 34.9707 62.541 70.5898 92.54 107.18c3.89844 116.983 21.6787 234.106 74.6025 339.157c18.1914 36.1084 39.3643 71.7754 72.8809 95.6553
c19.6416 13.9912 58.3105 33.9414 78.6348 10.3467c19.0342 -22.1006 6.77832 -65.292 1.08398 -89.9658c-8.48633 -36.7666 -22.6846 -71.625 -39.7422 -105.206c-19.3193 -38.0332 -41.0498 -74.6777 -64.4707 -110.26
c-12.6768 -96.5879 -15.0977 -194.734 -11.6309 -291.743c2.47266 -69.1865 7.77344 -137.742 21.2686 -205.744c6.6084 -33.2998 16.6602 -65.4482 26.5967 -97.8516c4.55078 -14.8467 9.20312 -31.4834 18.8164 -43.9834c8.61523 -11.1992 14.6357 -12.4287 28.168 -9.125
c31.626 7.72168 60.0293 33.707 82.9141 55.9365c22.9902 22.3311 43.3447 47.2021 61.876 73.3096c36.1016 50.8633 65.1865 106.253 93.8711 161.5c2.66895 5.1377 20.3271 3.78613 17.5664 -1.60645c-36.4512 -71.2041 -73.7783 -143.148 -125.721 -204.545
c-23.3262 -27.5742 -49.6133 -53.2197 -79.0078 -74.2979c-31.9785 -22.9287 -60.7783 -40.9941 -102.072 -35.7168c-41.9932 5.36914 -64.7285 35.4121 -84.2822 69.9717c-19.5264 34.5088 -31.8838 73.6318 -42.4141 111.716
c-20.8848 75.5205 -26.8271 155.181 -28.9258 233.187c-0.852539 31.5781 -1.18848 63.4824 -0.611328 95.4541c-28.6748 -34.0498 -58.1846 -67.3496 -87.9121 -100.109c-0.875977 -0.960938 -2.56348 -1.5752 -4.5332 -1.88379
c-1.84766 -74.0703 1.56543 -147.89 10.3096 -221.688c2.75781 -23.2686 -44.6826 -28.6445 -58.4629 -29.4082c-18.0791 -1.00195 -56.7031 1.92188 -60.3711 25.2578c-16.1035 102.493 -14.46 209.234 -3.84766 312.251c4.57422 44.4072 10.001 88.9473 17.3086 132.998
c7.73535 46.6152 20.2998 92.1777 29.5195 138.467c4.58105 22.9932 8.26855 46.6895 9.62305 70.0967c0.618164 10.6523 2.78809 31.2715 -3.62695 39.707c-14.7344 19.373 -52.8184 -27.333 -60.0078 -36.4473c-11.4199 -14.4766 -21.4785 -29.9824 -30.8984 -45.8174
c-19.9404 -33.5273 -36.7773 -68.8203 -57.5156 -101.882c-17.458 -27.8359 -38.7598 -61.2744 -70.334 -74.4609c-25.2822 -10.5576 -53.709 -5.39551 -73.2627 13.8594c-28.6885 28.25 -26.5283 70.5791 -23.6895 107.624zM572.792 550.529
c-5.92578 -25.7402 -10.9414 -51.6719 -15.1689 -77.7451c15.2881 25.3232 29.6084 51.2168 42.7363 77.7617c15.7295 31.8125 29.7852 65.3975 36.7705 100.33c3.2666 16.3438 5.1377 33.6689 4.57031 50.3564c-0.230469 6.75098 -0.865234 13.5762 -3.66016 19.8311
c-0.142578 0.3125 -4.90039 9.84082 -3.81055 9.2666c1.31055 3.56543 0.166016 2.82129 -3.43066 -2.23145c-0.458008 -0.614258 -0.916016 -1.23242 -1.37402 -1.85059c-17.1045 -22.1201 -24.0762 -55.6953 -32.1074 -82.0029
c-9.4375 -30.9229 -17.2715 -62.2158 -24.5254 -93.7158z" />
    <glyph glyph-name="I" unicode="I" horiz-adv-x="526" 
d="M-25.3281 394.021c6.67578 -27.0547 36.0752 -25.3223 54.8945 -12.0752c13.9131 9.79688 25.8496 22.7217 37.4697 35.0518c25.1533 26.6914 47.8613 55.543 69.8457 84.8623c41.5273 55.3828 80.7188 112.939 128.926 162.896
c35.1162 36.3936 86.0947 86.458 140.105 53.8477c28.0088 -16.9082 36.2061 -53.8008 38.5664 -83.874c2.67969 -34.1553 0 -69.873 -3.37891 -103.906c-14.3477 -144.585 -50.5537 -285.095 -72.6914 -428.45c-11.0703 -71.6729 -16.4492 -143.321 -19.1045 -215.737
c-1.19922 -32.6514 -3.36914 -66.0869 -1.27344 -98.7275c0.916992 -14.2764 2.13574 -30.0635 5.6875 -43.9385c1.54883 -6.05859 3.95312 -11.3867 7.77637 -16.3545c2.16992 -2.82227 11.3213 -9.66504 7.6709 -9.60742
c13.8213 -0.220703 29.4863 24.1348 36.0508 33.7686c8.79883 12.918 16.4805 26.583 23.9414 40.3018c16.6602 30.6445 32.1045 61.9473 46.3262 93.7939c28.4473 63.7129 51.7188 129.593 70.0527 196.905c1.86816 6.85938 25.3809 6.39453 23.1123 -2.11523
c-21.6348 -81.1914 -50.5576 -160.287 -86.8418 -236.086c-16.5986 -34.6748 -33.4727 -71.333 -54.7412 -103.424c-16.7451 -25.2686 -38.3799 -43.457 -69.6621 -44.6592c-38.4033 -1.47754 -69.584 19.5732 -93.627 48.0166
c-21.0918 24.9531 -27.585 61.6729 -31.3438 93.2715c-9.11426 76.624 0.794922 156.107 12.0762 231.984c22.8984 154.028 64.9219 303.649 101.893 454.608c9.30762 37.999 20.0381 75.6416 26.9961 114.181c1.90137 10.5234 2.58398 21.1758 4.32617 31.6855
c1.3584 8.1875 3.70801 16.1777 3.55566 24.5654c-0.119141 6.61133 -1.42969 15.8379 -7.24316 20.0186c-11.4473 8.22852 -28.8643 -3.71094 -37.8936 -10.1836c-55.8721 -40.0439 -98.9072 -98.6289 -139.776 -152.982
c-39.5723 -52.6318 -78.3154 -106.483 -125.575 -152.64c-18.9492 -18.5039 -41.0361 -36.8555 -69.0078 -36.5938c-20.2559 0.19043 -40.8037 10.0693 -45.7246 30.9473c-1.22949 5.20605 17.0703 6.89746 18.6123 0.649414z" />
    <glyph glyph-name="I" unicode="&#xcf;" horiz-adv-x="526" 
d="M-25.3281 394.021c6.67578 -27.0547 36.0752 -25.3223 54.8945 -12.0752c13.9131 9.79688 25.8496 22.7217 37.4697 35.0518c25.1533 26.6914 47.8613 55.543 69.8457 84.8623c41.5273 55.3828 80.7188 112.939 128.926 162.896
c35.1162 36.3936 86.0947 86.458 140.105 53.8477c28.0088 -16.9082 36.2061 -53.8008 38.5664 -83.874c2.67969 -34.1553 0 -69.873 -3.37891 -103.906c-14.3477 -144.585 -50.5537 -285.095 -72.6914 -428.45c-11.0703 -71.6729 -16.4492 -143.321 -19.1045 -215.737
c-1.19922 -32.6514 -3.36914 -66.0869 -1.27344 -98.7275c0.916992 -14.2764 2.13574 -30.0635 5.6875 -43.9385c1.54883 -6.05859 3.95312 -11.3867 7.77637 -16.3545c2.16992 -2.82227 11.3213 -9.66504 7.6709 -9.60742
c13.8213 -0.220703 29.4863 24.1348 36.0508 33.7686c8.79883 12.918 16.4805 26.583 23.9414 40.3018c16.6602 30.6445 32.1045 61.9473 46.3262 93.7939c28.4473 63.7129 51.7188 129.593 70.0527 196.905c1.86816 6.85938 25.3809 6.39453 23.1123 -2.11523
c-21.6348 -81.1914 -50.5576 -160.287 -86.8418 -236.086c-16.5986 -34.6748 -33.4727 -71.333 -54.7412 -103.424c-16.7451 -25.2686 -38.3799 -43.457 -69.6621 -44.6592c-38.4033 -1.47754 -69.584 19.5732 -93.627 48.0166
c-21.0918 24.9531 -27.585 61.6729 -31.3438 93.2715c-9.11426 76.624 0.794922 156.107 12.0762 231.984c22.8984 154.028 64.9219 303.649 101.893 454.608c9.30762 37.999 20.0381 75.6416 26.9961 114.181c1.90137 10.5234 2.58398 21.1758 4.32617 31.6855
c1.3584 8.1875 3.70801 16.1777 3.55566 24.5654c-0.119141 6.61133 -1.42969 15.8379 -7.24316 20.0186c-11.4473 8.22852 -28.8643 -3.71094 -37.8936 -10.1836c-55.8721 -40.0439 -98.9072 -98.6289 -139.776 -152.982
c-39.5723 -52.6318 -78.3154 -106.483 -125.575 -152.64c-18.9492 -18.5039 -41.0361 -36.8555 -69.0078 -36.5938c-20.2559 0.19043 -40.8037 10.0693 -45.7246 30.9473c-1.22949 5.20605 17.0703 6.89746 18.6123 0.649414z" />
    <glyph glyph-name="I" unicode="&#xce;" horiz-adv-x="526" 
d="M-25.3281 394.021c6.67578 -27.0547 36.0752 -25.3223 54.8945 -12.0752c13.9131 9.79688 25.8496 22.7217 37.4697 35.0518c25.1533 26.6914 47.8613 55.543 69.8457 84.8623c41.5273 55.3828 80.7188 112.939 128.926 162.896
c35.1162 36.3936 86.0947 86.458 140.105 53.8477c28.0088 -16.9082 36.2061 -53.8008 38.5664 -83.874c2.67969 -34.1553 0 -69.873 -3.37891 -103.906c-14.3477 -144.585 -50.5537 -285.095 -72.6914 -428.45c-11.0703 -71.6729 -16.4492 -143.321 -19.1045 -215.737
c-1.19922 -32.6514 -3.36914 -66.0869 -1.27344 -98.7275c0.916992 -14.2764 2.13574 -30.0635 5.6875 -43.9385c1.54883 -6.05859 3.95312 -11.3867 7.77637 -16.3545c2.16992 -2.82227 11.3213 -9.66504 7.6709 -9.60742
c13.8213 -0.220703 29.4863 24.1348 36.0508 33.7686c8.79883 12.918 16.4805 26.583 23.9414 40.3018c16.6602 30.6445 32.1045 61.9473 46.3262 93.7939c28.4473 63.7129 51.7188 129.593 70.0527 196.905c1.86816 6.85938 25.3809 6.39453 23.1123 -2.11523
c-21.6348 -81.1914 -50.5576 -160.287 -86.8418 -236.086c-16.5986 -34.6748 -33.4727 -71.333 -54.7412 -103.424c-16.7451 -25.2686 -38.3799 -43.457 -69.6621 -44.6592c-38.4033 -1.47754 -69.584 19.5732 -93.627 48.0166
c-21.0918 24.9531 -27.585 61.6729 -31.3438 93.2715c-9.11426 76.624 0.794922 156.107 12.0762 231.984c22.8984 154.028 64.9219 303.649 101.893 454.608c9.30762 37.999 20.0381 75.6416 26.9961 114.181c1.90137 10.5234 2.58398 21.1758 4.32617 31.6855
c1.3584 8.1875 3.70801 16.1777 3.55566 24.5654c-0.119141 6.61133 -1.42969 15.8379 -7.24316 20.0186c-11.4473 8.22852 -28.8643 -3.71094 -37.8936 -10.1836c-55.8721 -40.0439 -98.9072 -98.6289 -139.776 -152.982
c-39.5723 -52.6318 -78.3154 -106.483 -125.575 -152.64c-18.9492 -18.5039 -41.0361 -36.8555 -69.0078 -36.5938c-20.2559 0.19043 -40.8037 10.0693 -45.7246 30.9473c-1.22949 5.20605 17.0703 6.89746 18.6123 0.649414z" />
    <glyph glyph-name="I" unicode="&#xcd;" horiz-adv-x="526" 
d="M-25.3281 394.021c6.67578 -27.0547 36.0752 -25.3223 54.8945 -12.0752c13.9131 9.79688 25.8496 22.7217 37.4697 35.0518c25.1533 26.6914 47.8613 55.543 69.8457 84.8623c41.5273 55.3828 80.7188 112.939 128.926 162.896
c35.1162 36.3936 86.0947 86.458 140.105 53.8477c28.0088 -16.9082 36.2061 -53.8008 38.5664 -83.874c2.67969 -34.1553 0 -69.873 -3.37891 -103.906c-14.3477 -144.585 -50.5537 -285.095 -72.6914 -428.45c-11.0703 -71.6729 -16.4492 -143.321 -19.1045 -215.737
c-1.19922 -32.6514 -3.36914 -66.0869 -1.27344 -98.7275c0.916992 -14.2764 2.13574 -30.0635 5.6875 -43.9385c1.54883 -6.05859 3.95312 -11.3867 7.77637 -16.3545c2.16992 -2.82227 11.3213 -9.66504 7.6709 -9.60742
c13.8213 -0.220703 29.4863 24.1348 36.0508 33.7686c8.79883 12.918 16.4805 26.583 23.9414 40.3018c16.6602 30.6445 32.1045 61.9473 46.3262 93.7939c28.4473 63.7129 51.7188 129.593 70.0527 196.905c1.86816 6.85938 25.3809 6.39453 23.1123 -2.11523
c-21.6348 -81.1914 -50.5576 -160.287 -86.8418 -236.086c-16.5986 -34.6748 -33.4727 -71.333 -54.7412 -103.424c-16.7451 -25.2686 -38.3799 -43.457 -69.6621 -44.6592c-38.4033 -1.47754 -69.584 19.5732 -93.627 48.0166
c-21.0918 24.9531 -27.585 61.6729 -31.3438 93.2715c-9.11426 76.624 0.794922 156.107 12.0762 231.984c22.8984 154.028 64.9219 303.649 101.893 454.608c9.30762 37.999 20.0381 75.6416 26.9961 114.181c1.90137 10.5234 2.58398 21.1758 4.32617 31.6855
c1.3584 8.1875 3.70801 16.1777 3.55566 24.5654c-0.119141 6.61133 -1.42969 15.8379 -7.24316 20.0186c-11.4473 8.22852 -28.8643 -3.71094 -37.8936 -10.1836c-55.8721 -40.0439 -98.9072 -98.6289 -139.776 -152.982
c-39.5723 -52.6318 -78.3154 -106.483 -125.575 -152.64c-18.9492 -18.5039 -41.0361 -36.8555 -69.0078 -36.5938c-20.2559 0.19043 -40.8037 10.0693 -45.7246 30.9473c-1.22949 5.20605 17.0703 6.89746 18.6123 0.649414z" />
    <glyph glyph-name="J" unicode="J" horiz-adv-x="475" 
d="M27.0635 503.275c34.0674 -19.6348 72.3135 -6.37109 103.542 12.3125c21.3057 12.7441 40.9678 27.7266 59.8555 43.7588c-0.923828 10.4424 -1.80664 20.8877 -2.62891 31.3398c-1.72852 21.9844 41.0898 26.7588 54.707 27.5156
c3.53125 0.197266 7.80957 0.220703 12.3936 -0.0205078c38.2812 35.6494 77.4424 70.043 125.327 92.4287c41.6807 19.4824 91.9053 29.0654 135.946 11.4883c38.0234 -15.1758 69.0039 -50.8154 66.7656 -93.3047
c-0.424805 -8.03809 -24.2471 -8.12305 -23.8633 -0.832031c3.375 64.0596 -63.4209 101.088 -120.447 89.9424c-54.7822 -10.7041 -101.716 -48.1602 -142.748 -83.9355c-7.09375 -6.18359 -14.0928 -12.4795 -21.0713 -18.8057
c11.8477 -3.23633 22.1201 -9.39941 24.1816 -20.5957c17.5732 -95.3994 24.8877 -192.304 27.3428 -289.234c22.3721 -9.05664 42.5742 -23.4248 60.0869 -39.9424c48.1465 -45.4062 84.6074 -106.613 110.046 -167.154
c2.65527 -6.31641 -15.1963 -7.73633 -17.8691 -2.9043c-33.0586 59.7266 -65.5127 122.513 -117.799 168.115c-10.4658 9.12793 -21.8594 17.6006 -34.0771 24.4258c0.0205078 -0.974609 0.0478516 -1.94922 0.0644531 -2.92383
c1.87793 -101.257 -3.49414 -203.417 -20.8193 -303.31c-15.166 -87.4463 -36.5869 -177.042 -82.8584 -253.856c-17.6855 -29.3574 -46.9375 -62.834 -82.4209 -68.957c-31.5205 -5.43652 -56.1338 11.4951 -71.3135 38.2607
c-39.2764 69.2549 -38.3291 160.997 -28.7803 237.431c9.73633 77.9346 27.3506 159.004 57.543 231.739c21.5674 51.9531 58.2354 119.031 114.606 141.026c-0.797852 13.2646 -1.65723 26.5225 -2.63477 39.7598c-4.8291 65.2412 -12.127 130.244 -18.1377 195.366
c-5.43359 -4.27539 -10.9346 -8.47266 -16.541 -12.541c-36.7021 -26.6504 -80.9502 -51.3076 -127.989 -44.4004c-43.0088 6.31641 -72.8887 39.7285 -89.2197 78.1152c-2.57422 6.04785 15.2197 7.86426 17.4102 2.82812
c10.9111 -25.1123 27.1943 -49.1855 51.4004 -63.1357zM217.358 102.979c1.10352 62.2627 -0.211914 124.741 -3.57422 187.004c-3.42969 -2.03027 -6.75391 -4.27539 -9.89844 -6.79883c-54.1875 -43.4736 -82.8857 -116.155 -101.842 -180.859
c-20.9658 -71.5674 -36.7119 -146.925 -39.5986 -221.589c-1.43262 -37.0049 0.753906 -74.2979 8.66309 -110.542c6.81543 -31.2422 17.3965 -76.4785 46.3633 -95.3389c27.9102 -18.1748 51.1348 54.0723 57.6416 72.8037
c13.0303 37.5068 20.3652 76.6709 25.1299 116.012c9.61719 79.3984 15.6924 159.326 17.1152 239.309z" />
    <glyph glyph-name="K" unicode="K" horiz-adv-x="753" 
d="M338.72 614.935c26.25 -34.1729 25.4121 -81.0117 23.7002 -122.044c-3.34863 -79.7246 -13.166 -159.048 -19.166 -238.63c5.93555 6.23828 12.3975 12.1064 19.21 17.7539c20.0898 16.6494 38.3154 36.7559 56.4629 55.5684
c39.3066 40.7539 72.2256 85.1211 96.8926 136.272c16.4092 34.0264 58.1846 138.941 -3.84082 152.437c-29.3506 6.3877 -55.1895 -20.0762 -67.6484 -43.5752c-14.6396 -27.6113 -17.3662 -59.4131 -18.9727 -90.0811
c-0.411133 -7.84473 -23.6934 -8.00781 -23.3848 -0.81543c2.25488 52.3975 12.3809 115.883 66.0352 140.248c37.1367 16.8633 88.9336 6.93359 108.48 -31.3379c24.3486 -47.668 19.0176 -101.441 -3.54395 -148.685
c-22.9766 -48.1094 -60.1914 -94.0859 -102.605 -126.381c-23.9785 -18.2559 -50.1094 -29.3877 -76.4473 -43.4531c-21.2305 -11.3389 -37.2822 -29.4043 -50.2305 -49.3242c31.2686 11.2539 63.9268 14.7891 93.2979 -6.46191
c18.1104 -13.1045 35.585 -27.0449 44.9639 -47.9668c11.166 -24.9082 17.7949 -51.9863 21.8086 -78.9053c7.33496 -49.2061 3.01855 -101.088 0.668945 -150.542c-2.49609 -52.6152 -6.84961 -105.074 -8.91406 -157.724
c-1.80273 -45.9395 -1.37793 -92.0342 2.96582 -137.811c1.60938 -16.9932 4.53613 -32.7705 11.3584 -48.208c0.301758 -0.682617 0.706055 -1.9082 1.12402 -3.1582c1.31055 0.78125 5.875 -0.556641 9.18555 0.102539c12.4658 2.47852 24.2227 11.498 33.1738 20.1406
c30.6748 29.6152 48.9307 75.001 65.4756 113.486c18.2871 42.543 33.0518 86.4004 47.4502 130.373c28.0664 85.7148 55.4365 172.366 102.836 249.774c4.28906 7.00586 28.6816 4.58789 24.498 -2.24121c-54.5547 -89.0967 -82.3633 -190.106 -115.605 -288.253
c-14.1641 -41.8193 -29.1631 -83.4658 -47.874 -123.496c-17.1797 -36.7568 -37.1572 -78.6816 -72.0898 -101.93c-34.9268 -23.2441 -87.1885 -26.8604 -124.61 -7.56836c-43.0596 22.1953 -54.5752 63.4893 -56.8574 109.105
c-5.20605 104.042 15.835 207.19 30.4678 309.653c3.74902 26.2637 6.64258 52.6631 10.4355 78.9092c3.6748 25.4141 7.61719 50.584 6.4834 76.3857c-0.696289 15.835 2.00293 45.5898 -11.7363 56.29c-21.292 16.582 -49.4609 5.18945 -71.8428 -5.20508
c-4.46191 -87.5107 -1.51465 -174.617 8.80176 -261.693c2.75781 -23.2686 -44.6826 -28.6445 -58.4629 -29.4082c-18.0791 -1.00195 -56.7031 1.92188 -60.3711 25.2578c-16.0996 102.493 -14.4561 209.234 -3.84375 312.251
c4.57422 44.4072 10.001 88.9473 17.3086 132.998c7.73535 46.6152 20.2998 92.1777 29.5195 138.467c4.58105 22.9932 8.26855 46.6895 9.62305 70.0967c0.618164 10.6523 2.79102 31.2715 -3.62695 39.707c-14.7344 19.373 -52.8154 -27.333 -60.0078 -36.4473
c-11.4199 -14.4766 -21.4785 -29.9824 -30.8984 -45.8174c-19.9404 -33.5273 -36.7773 -68.8203 -57.5156 -101.882c-17.458 -27.8359 -38.7598 -61.2744 -70.334 -74.4609c-25.2822 -10.5576 -53.709 -5.39551 -73.2627 13.8594
c-28.6885 28.25 -26.5283 70.5791 -23.6895 107.624c0.46875 6.11621 18.4805 6.13965 18.1338 0.631836c-1.58594 -25.1934 -3.57617 -52.207 5.49121 -76.3584c8.21094 -21.8828 29.0576 -46.1123 54.6084 -40.2881c23.1562 5.27734 39.9082 29.4727 52.7783 47.8105
c12.1875 17.3662 22.7822 35.7754 32.9395 54.3809c18.1338 33.2217 34.8379 67.4072 56.1777 98.7539c17.9434 26.3623 40.4307 57 73.0439 65.1162c30.3389 7.54883 63.6621 -9.4541 81.9824 -33.3027z" />
    <glyph glyph-name="L" unicode="L" horiz-adv-x="538" 
d="M-20.0889 141.455c-3.13086 -7.0127 -26.9766 -5.5 -23.5811 2.16406c49.335 110.99 172.937 153.187 268.846 217.779c-5.0293 67.0918 -4.1123 134.193 10.2178 200.164c13.0566 60.1104 35.4727 138.364 94.2002 169.154
c23.9131 12.5371 58.1465 18.6738 83.252 6.07227c19.6826 -9.87891 27.123 -33.4971 28.7432 -54.1338c4.53711 -57.7529 -18.5508 -121.639 -46.7227 -170.956c-15.1826 -26.5791 -33.4453 -51.2197 -53.915 -73.9141c3.21582 -130.832 28.5967 -258.899 40.6826 -388.934
c4.07812 -43.8848 7.0293 -87.8877 8.49316 -131.936c56.4521 68.0527 121.728 128.598 172.21 201.687c3.59277 5.20215 22.8672 3.59277 19.4141 -1.77637c-49.8916 -77.5576 -114.641 -143.308 -168.444 -217.86c-7.73535 -10.7207 -15.1924 -21.6895 -22.1914 -32.9326
c0.0341797 -6.28223 0.0683594 -12.5615 0.0341797 -18.8438c-0.200195 -35.0928 -4.68945 -70.0254 -9.19238 -104.782c-3.66406 -28.2842 -9.36914 -61.2783 -21.1562 -87.4805c-5.02539 -11.1719 -29.751 -11.3379 -38.7637 -8.66504
c-46.543 13.8008 -32.8135 73.3125 -22.7314 110.49c-1.16504 7.71875 -2.25195 15.4375 -3.40625 23.0811c-6.06152 40.1826 -10.8936 80.3252 -14.8262 120.787c-7.92285 81.5 -16.5859 162.868 -27.9727 243.978c-9.16211 65.2852 -20.3857 131.81 -26.4033 198.449
c-91.4229 -56.8672 -201.221 -99.6006 -246.786 -201.592zM362.67 671.848c-3.70117 -14.2354 -6.39355 -28.8135 -8.71973 -43.3271c-8.42871 -52.4658 -12.9932 -105.913 -13.3291 -159.149c11.3799 14.9414 21.7783 30.6367 30.9775 47.1172
c26.9492 48.2852 49.1143 109.02 42.1699 165.184c-1.72852 13.9639 -5.49121 27.5781 -17.2549 36.3467c-4.67285 3.48047 -7.58984 5.53809 -12.6807 3.37109c-4.77832 -2.03027 -8.5957 -9.31055 -10.7383 -13.6641
c-5.33789 -10.8564 -7.38574 -24.1992 -10.4248 -35.8779z" />
    <glyph glyph-name="M" unicode="M" horiz-adv-x="907" 
d="M456.049 530.249c-32.502 -54.7646 -52.1768 -115.981 -67.9131 -177.354c-16.4834 -64.3135 -29.2617 -129.599 -38.3867 -195.359c-4.23828 -30.542 -8.31641 -61.6074 -10.0684 -92.7002c1.66016 -39.6562 4.75 -79.2754 9.44336 -118.888
c2.75781 -23.2686 -44.6826 -28.6445 -58.4629 -29.4082c-18.0791 -1.00195 -56.7031 1.92188 -60.3711 25.2578c-16.1035 102.493 -14.46 209.234 -3.84766 312.251c4.57422 44.4072 10.001 88.9473 17.3086 132.998c7.73535 46.6152 20.2998 92.1777 29.5195 138.467
c4.58105 22.9932 8.26855 46.6895 9.62305 70.0967c0.618164 10.6523 2.78809 31.2715 -3.62695 39.707c-14.7344 19.373 -52.8184 -27.333 -60.0078 -36.4473c-11.4199 -14.4766 -21.4814 -29.9824 -30.8984 -45.8174
c-19.9434 -33.5273 -36.7764 -68.8203 -57.5146 -101.882c-17.458 -27.8359 -38.7598 -61.2744 -70.334 -74.4609c-25.2822 -10.5576 -53.709 -5.39551 -73.2627 13.8594c-28.6885 28.25 -26.5283 70.5791 -23.6895 107.624
c0.46875 6.11621 18.4805 6.13965 18.1338 0.631836c-1.58594 -25.1934 -3.57617 -52.207 5.49121 -76.3584c8.21484 -21.8828 29.0615 -46.1123 54.6123 -40.2881c23.1562 5.27734 39.9082 29.4727 52.7783 47.8105c12.1846 17.3662 22.7793 35.7754 32.9365 54.3809
c18.1367 33.2217 34.8379 67.4072 56.1777 98.7539c17.9473 26.3623 40.4307 57 73.0439 65.1162c30.3418 7.54883 63.665 -9.4541 81.9854 -33.3027c26.25 -34.1729 25.4082 -81.0156 23.6865 -122.048c-3.17871 -75.6357 -12.1738 -150.915 -18.2119 -226.397
c10.4121 53.376 23.2217 106.504 40.1602 158.002c11.3555 34.5254 25.1016 68.3818 42.9268 100.105c13.9229 24.7832 29.9414 52.874 59.2441 60.9014c25.2822 6.92383 53.1006 -2.81836 70.4531 -21.9912c24.5488 -27.123 28.498 -64.5283 31.1641 -99.5225
c1.89453 -24.8438 2.66211 -49.8438 2.67871 -74.8984c19.9102 64.752 47.9326 126.842 91.0127 177.841c27.5605 32.6309 73.6494 43.4775 106.77 11.6963c39.127 -37.5479 42.0645 -100.27 39.9385 -150.915c-4.77832 -113.747 -36.7158 -224.482 -56.3809 -336.11
c-9.88574 -56.127 -14.8135 -113.021 -24.458 -169.069c-3.05273 -17.7334 -22.1133 -146.205 23.4453 -125.069c24.6846 11.4512 38.8213 42.0137 51.4033 64.5107c13.9199 24.8916 26.3213 50.5576 37.8809 76.6211c23.1328 52.1572 42.8154 105.737 62.4668 159.272
c2.58789 7.05273 26.5459 5.98633 23.5742 -2.15723c-22.0625 -60.4629 -44.1631 -121.024 -71.2383 -179.467c-13.0674 -28.209 -26.8779 -56.3604 -42.7637 -83.0996c-12.6562 -21.3057 -28.9766 -40.8857 -53.1006 -49.3008
c-45.0801 -15.7227 -88.1152 9.97363 -112.12 47.5693c-30.8105 48.252 -34.8926 106.671 -28.5693 161.962c13.1211 114.715 48.4854 224.951 74.9902 336.916c13.0811 55.2568 25.0713 110.782 37.7344 166.101c5.36914 23.459 13.1494 54.8398 4.75781 78.2949
c-7.48145 20.9111 -31.4658 9.03613 -43.249 -1.84375c-9.4375 -8.70996 -17.0234 -19.3359 -24.3721 -29.8086c-53.7188 -76.5801 -81.8193 -166.883 -100.996 -257.752c-1.04297 -19.0605 -2.23535 -38.0742 -3.41016 -56.9922
c-1.38867 -22.29 -38.1084 -26.3857 -54.2383 -27.2822c-13.9365 -0.774414 -56.3643 1.95898 -56.0078 23.4307c1.29688 78.3281 20.4053 155.655 29.4482 233.268c2.07812 17.8184 3.33496 35.6631 5.75977 53.4336c1.71484 12.585 5.23633 26.1143 5.23633 38.7773
c0 6.29297 -0.570312 15.54 -5.09668 20.4297c-8.7168 9.41992 -18.626 2.79492 -26.2832 -3.61328c-11.417 -9.55566 -19.4004 -23.835 -26.9053 -36.4814z" />
    <glyph glyph-name="N" unicode="N" horiz-adv-x="687" 
d="M707.073 80.6455c2.24512 5.93262 22.417 5.02441 19.8838 -1.81836c-27.1299 -73.1875 -54.2051 -146.5 -85.793 -217.915c-24.4062 -55.1826 -59.7363 -122.58 -131.667 -103.591c-63.0303 16.6426 -86.0879 93.5586 -88.3701 150.996
c-2.56348 64.6094 5.26758 128.359 16.8408 191.811c23.4277 128.444 60.0215 254.406 74.9834 384.375c3.51465 30.5146 11.4307 62.7891 10.1094 93.5381c-0.988281 22.9561 -19.2412 37.6807 -42.1289 25.2822c-15.3936 -8.33691 -25.8701 -23.791 -34.7432 -38.3623
c-33.2764 -54.6357 -51.4854 -117.041 -64.9941 -179.106c-26.8682 -123.445 -39.457 -250.022 -38.252 -376.345c1.64355 -21.1973 3.68066 -42.3838 6.19043 -63.5703c2.75781 -23.2686 -44.6826 -28.6445 -58.4629 -29.4082
c-18.0791 -1.00195 -56.7031 1.92188 -60.3711 25.2578c-16.1035 102.493 -14.46 209.234 -3.84766 312.251c4.57129 44.4072 9.99805 88.9473 17.3057 132.998c7.73535 46.6152 20.2998 92.1777 29.5195 138.467c4.58105 22.9932 8.26855 46.6895 9.62305 70.0967
c0.618164 10.6523 2.78809 31.2715 -3.62695 39.707c-14.7344 19.373 -52.8184 -27.333 -60.0078 -36.4473c-11.4199 -14.4766 -21.4785 -29.9824 -30.8984 -45.8174c-19.9404 -33.5273 -36.7773 -68.8203 -57.5156 -101.882
c-17.458 -27.8359 -38.7598 -61.2744 -70.334 -74.4609c-25.2822 -10.5576 -53.709 -5.39551 -73.2627 13.8594c-28.6885 28.25 -26.5283 70.5791 -23.6895 107.624c0.47168 6.11621 18.4834 6.13965 18.1367 0.631836c-1.58594 -25.1934 -3.57617 -52.207 5.49121 -76.3584
c8.21094 -21.8828 29.0576 -46.1123 54.6084 -40.2881c23.1562 5.27734 39.9082 29.4727 52.7783 47.8105c12.1875 17.3662 22.7822 35.7754 32.9395 54.3809c18.1338 33.2217 34.835 67.4072 56.1748 98.7539c17.9434 26.3623 40.4307 57 73.0439 65.1162
c30.3389 7.54883 63.6621 -9.4541 81.9824 -33.3027c26.25 -34.1729 25.4111 -81.0156 23.6865 -122.048c-2.24805 -53.4746 -7.40332 -106.772 -12.3682 -160.087c2.04785 11.3662 4.17383 22.7188 6.46973 34.0439c10.2891 50.7539 22.7891 101.488 43.2324 149.217
c16.3506 38.1797 39.3877 91.1816 84.8311 100.561c44.7607 9.24023 80.5664 -32.9092 96.1631 -70.5322c20.3408 -49.0664 17.5527 -107.665 14.3301 -159.574c-6.74707 -108.596 -35.5137 -214.346 -50.1357 -321.905
c-7.28027 -53.5664 -11.2432 -107.452 -10.2002 -161.511c0.485352 -25.1865 -1.81055 -51.124 0.454102 -76.1279c1.46387 -16.1475 5.90527 -38.4551 17.1689 -51.9365c23.7676 5.0498 44.0068 40.7676 53.6035 59.0137c13.0879 24.8779 23.7881 51.1621 34.665 77.0557
c23.5127 55.9736 44.9844 112.77 66.4531 169.548z" />
    <glyph glyph-name="O" unicode="O" horiz-adv-x="537" 
d="M120.802 -42.9434c-11.376 90.3193 -6.49512 181.358 1.82129 271.834c-19.0273 37.9043 -30.7363 79.4863 -33.582 121.744c-4.18066 62.0586 14.2998 128.217 53.7158 176.404c-0.719727 12.2354 -3.11426 24.25 -9.20312 35.8096
c-4.59082 8.7168 -9.98633 21.3291 -19.0059 25.8281c-15.7529 7.86133 -34.2568 -3.03613 -46.7295 -12.752c-41.5752 -32.3926 -59.4951 -87.9453 -68.375 -137.772c-10.1807 -57.1318 -12.1133 -115.836 -2.28223 -173.134
c1.0625 -6.20801 -19.7373 -7.75977 -21.001 -0.733398c-4.74023 26.3447 -7.14062 52.9277 -7.16113 79.7002c-0.0615234 82.1113 13.3789 205.323 96.0166 248.505c34.0234 17.7773 84.0234 10.0381 111.078 -17.5596c2.98828 -3.0498 5.71484 -6.27246 8.33008 -9.57031
c12.3271 8.34668 25.7949 15.3184 40.4004 20.5918c43.1953 15.5967 96.4053 13.916 133.515 -15.3457c35.4727 -27.9746 54.5576 -70.7725 67.6963 -112.83c34.6611 -110.963 34.4951 -233.362 19.9102 -347.769c-1.49707 -11.7637 -3.24902 -23.4385 -5.1543 -35.0654
c39.7012 5.27344 78.957 17.1182 115.482 33.0791c4.37402 1.91211 12.9043 3.59277 17.21 0.600586c3.3623 -2.33301 5.43066 -5.65723 0.279297 -7.91504c-23.3975 -10.2627 -47.3516 -19.1533 -72.0361 -25.8027c-20.6504 -5.5625 -41.7559 -9.65137 -62.9863 -12.0391
c-6.98828 -39.5986 -16.2822 -78.5596 -27.876 -117.374c-15.0537 -50.4043 -34.1211 -97.4941 -69.1318 -137.46c-39.0391 -44.5635 -120.536 -42.4414 -163.884 -4.51367c-41.9453 36.7021 -50.4551 101.192 -57.0469 153.539zM288.174 -186.924
c0.899414 -0.533203 1.51074 -0.873047 1.49414 -0.811523c-0.0917969 0.376953 -0.655273 0.631836 -1.49414 0.811523zM304.779 -156.922c14.877 19.2139 26.9004 40.4648 37.2676 62.4023c23.2852 49.2432 38.791 101.702 49.668 154.986
c-58.6025 0.666016 -116.271 15.5742 -166.063 49.4238c-0.875977 -52.8838 0.886719 -105.944 8.58203 -158.332c3.875 -26.3926 8.99609 -53.002 16.0293 -78.749c5.11719 -18.7383 14.3467 -41.6875 29.7334 -54.5371c9.22656 7.52832 17.3223 15.1719 24.7832 24.8057z
M240.576 574.421c-17.085 -5.68848 -32.2832 -14.0039 -45.748 -24.2695c19.7705 -33.6328 25.8594 -75.4463 29.958 -113.313c10.9482 -101.128 3.82715 -203.017 1.33789 -304.461c10.6494 -8.83984 21.9443 -16.9287 33.8398 -24.1377
c41.6055 -25.2109 87.4795 -35.9414 133.969 -36.2949c19.2676 100.941 22.2695 208.852 5.54199 310.092c-12.0625 73.0039 -53.3965 227.508 -158.898 192.385zM117.927 327.021c2.19727 -15.0469 5.5459 -29.9355 9.92676 -44.5244
c0.879883 8.66602 1.76953 17.3223 2.65625 25.9717c5.92871 57.7773 9.05273 115.463 11.0254 173.468c0.0205078 0.631836 0.0507812 1.2666 0.078125 1.89844c-23.7539 -48.0752 -31.0791 -106.185 -23.6865 -156.813z" />
    <glyph glyph-name="O" unicode="&#xd6;" horiz-adv-x="537" 
d="M120.802 -42.9434c-11.376 90.3193 -6.49512 181.358 1.82129 271.834c-19.0273 37.9043 -30.7363 79.4863 -33.582 121.744c-4.18066 62.0586 14.2998 128.217 53.7158 176.404c-0.719727 12.2354 -3.11426 24.25 -9.20312 35.8096
c-4.59082 8.7168 -9.98633 21.3291 -19.0059 25.8281c-15.7529 7.86133 -34.2568 -3.03613 -46.7295 -12.752c-41.5752 -32.3926 -59.4951 -87.9453 -68.375 -137.772c-10.1807 -57.1318 -12.1133 -115.836 -2.28223 -173.134
c1.0625 -6.20801 -19.7373 -7.75977 -21.001 -0.733398c-4.74023 26.3447 -7.14062 52.9277 -7.16113 79.7002c-0.0615234 82.1113 13.3789 205.323 96.0166 248.505c34.0234 17.7773 84.0234 10.0381 111.078 -17.5596c2.98828 -3.0498 5.71484 -6.27246 8.33008 -9.57031
c12.3271 8.34668 25.7949 15.3184 40.4004 20.5918c43.1953 15.5967 96.4053 13.916 133.515 -15.3457c35.4727 -27.9746 54.5576 -70.7725 67.6963 -112.83c34.6611 -110.963 34.4951 -233.362 19.9102 -347.769c-1.49707 -11.7637 -3.24902 -23.4385 -5.1543 -35.0654
c39.7012 5.27344 78.957 17.1182 115.482 33.0791c4.37402 1.91211 12.9043 3.59277 17.21 0.600586c3.3623 -2.33301 5.43066 -5.65723 0.279297 -7.91504c-23.3975 -10.2627 -47.3516 -19.1533 -72.0361 -25.8027c-20.6504 -5.5625 -41.7559 -9.65137 -62.9863 -12.0391
c-6.98828 -39.5986 -16.2822 -78.5596 -27.876 -117.374c-15.0537 -50.4043 -34.1211 -97.4941 -69.1318 -137.46c-39.0391 -44.5635 -120.536 -42.4414 -163.884 -4.51367c-41.9453 36.7021 -50.4551 101.192 -57.0469 153.539zM288.174 -186.924
c0.899414 -0.533203 1.51074 -0.873047 1.49414 -0.811523c-0.0917969 0.376953 -0.655273 0.631836 -1.49414 0.811523zM304.779 -156.922c14.877 19.2139 26.9004 40.4648 37.2676 62.4023c23.2852 49.2432 38.791 101.702 49.668 154.986
c-58.6025 0.666016 -116.271 15.5742 -166.063 49.4238c-0.875977 -52.8838 0.886719 -105.944 8.58203 -158.332c3.875 -26.3926 8.99609 -53.002 16.0293 -78.749c5.11719 -18.7383 14.3467 -41.6875 29.7334 -54.5371c9.22656 7.52832 17.3223 15.1719 24.7832 24.8057z
M240.576 574.421c-17.085 -5.68848 -32.2832 -14.0039 -45.748 -24.2695c19.7705 -33.6328 25.8594 -75.4463 29.958 -113.313c10.9482 -101.128 3.82715 -203.017 1.33789 -304.461c10.6494 -8.83984 21.9443 -16.9287 33.8398 -24.1377
c41.6055 -25.2109 87.4795 -35.9414 133.969 -36.2949c19.2676 100.941 22.2695 208.852 5.54199 310.092c-12.0625 73.0039 -53.3965 227.508 -158.898 192.385zM117.927 327.021c2.19727 -15.0469 5.5459 -29.9355 9.92676 -44.5244
c0.879883 8.66602 1.76953 17.3223 2.65625 25.9717c5.92871 57.7773 9.05273 115.463 11.0254 173.468c0.0205078 0.631836 0.0507812 1.2666 0.078125 1.89844c-23.7539 -48.0752 -31.0791 -106.185 -23.6865 -156.813z" />
    <glyph glyph-name="O" unicode="&#xd5;" horiz-adv-x="537" 
d="M120.802 -42.9434c-11.376 90.3193 -6.49512 181.358 1.82129 271.834c-19.0273 37.9043 -30.7363 79.4863 -33.582 121.744c-4.18066 62.0586 14.2998 128.217 53.7158 176.404c-0.719727 12.2354 -3.11426 24.25 -9.20312 35.8096
c-4.59082 8.7168 -9.98633 21.3291 -19.0059 25.8281c-15.7529 7.86133 -34.2568 -3.03613 -46.7295 -12.752c-41.5752 -32.3926 -59.4951 -87.9453 -68.375 -137.772c-10.1807 -57.1318 -12.1133 -115.836 -2.28223 -173.134
c1.0625 -6.20801 -19.7373 -7.75977 -21.001 -0.733398c-4.74023 26.3447 -7.14062 52.9277 -7.16113 79.7002c-0.0615234 82.1113 13.3789 205.323 96.0166 248.505c34.0234 17.7773 84.0234 10.0381 111.078 -17.5596c2.98828 -3.0498 5.71484 -6.27246 8.33008 -9.57031
c12.3271 8.34668 25.7949 15.3184 40.4004 20.5918c43.1953 15.5967 96.4053 13.916 133.515 -15.3457c35.4727 -27.9746 54.5576 -70.7725 67.6963 -112.83c34.6611 -110.963 34.4951 -233.362 19.9102 -347.769c-1.49707 -11.7637 -3.24902 -23.4385 -5.1543 -35.0654
c39.7012 5.27344 78.957 17.1182 115.482 33.0791c4.37402 1.91211 12.9043 3.59277 17.21 0.600586c3.3623 -2.33301 5.43066 -5.65723 0.279297 -7.91504c-23.3975 -10.2627 -47.3516 -19.1533 -72.0361 -25.8027c-20.6504 -5.5625 -41.7559 -9.65137 -62.9863 -12.0391
c-6.98828 -39.5986 -16.2822 -78.5596 -27.876 -117.374c-15.0537 -50.4043 -34.1211 -97.4941 -69.1318 -137.46c-39.0391 -44.5635 -120.536 -42.4414 -163.884 -4.51367c-41.9453 36.7021 -50.4551 101.192 -57.0469 153.539zM288.174 -186.924
c0.899414 -0.533203 1.51074 -0.873047 1.49414 -0.811523c-0.0917969 0.376953 -0.655273 0.631836 -1.49414 0.811523zM304.779 -156.922c14.877 19.2139 26.9004 40.4648 37.2676 62.4023c23.2852 49.2432 38.791 101.702 49.668 154.986
c-58.6025 0.666016 -116.271 15.5742 -166.063 49.4238c-0.875977 -52.8838 0.886719 -105.944 8.58203 -158.332c3.875 -26.3926 8.99609 -53.002 16.0293 -78.749c5.11719 -18.7383 14.3467 -41.6875 29.7334 -54.5371c9.22656 7.52832 17.3223 15.1719 24.7832 24.8057z
M240.576 574.421c-17.085 -5.68848 -32.2832 -14.0039 -45.748 -24.2695c19.7705 -33.6328 25.8594 -75.4463 29.958 -113.313c10.9482 -101.128 3.82715 -203.017 1.33789 -304.461c10.6494 -8.83984 21.9443 -16.9287 33.8398 -24.1377
c41.6055 -25.2109 87.4795 -35.9414 133.969 -36.2949c19.2676 100.941 22.2695 208.852 5.54199 310.092c-12.0625 73.0039 -53.3965 227.508 -158.898 192.385zM117.927 327.021c2.19727 -15.0469 5.5459 -29.9355 9.92676 -44.5244
c0.879883 8.66602 1.76953 17.3223 2.65625 25.9717c5.92871 57.7773 9.05273 115.463 11.0254 173.468c0.0205078 0.631836 0.0507812 1.2666 0.078125 1.89844c-23.7539 -48.0752 -31.0791 -106.185 -23.6865 -156.813z" />
    <glyph glyph-name="O" unicode="&#xd4;" horiz-adv-x="537" 
d="M120.802 -42.9434c-11.376 90.3193 -6.49512 181.358 1.82129 271.834c-19.0273 37.9043 -30.7363 79.4863 -33.582 121.744c-4.18066 62.0586 14.2998 128.217 53.7158 176.404c-0.719727 12.2354 -3.11426 24.25 -9.20312 35.8096
c-4.59082 8.7168 -9.98633 21.3291 -19.0059 25.8281c-15.7529 7.86133 -34.2568 -3.03613 -46.7295 -12.752c-41.5752 -32.3926 -59.4951 -87.9453 -68.375 -137.772c-10.1807 -57.1318 -12.1133 -115.836 -2.28223 -173.134
c1.0625 -6.20801 -19.7373 -7.75977 -21.001 -0.733398c-4.74023 26.3447 -7.14062 52.9277 -7.16113 79.7002c-0.0615234 82.1113 13.3789 205.323 96.0166 248.505c34.0234 17.7773 84.0234 10.0381 111.078 -17.5596c2.98828 -3.0498 5.71484 -6.27246 8.33008 -9.57031
c12.3271 8.34668 25.7949 15.3184 40.4004 20.5918c43.1953 15.5967 96.4053 13.916 133.515 -15.3457c35.4727 -27.9746 54.5576 -70.7725 67.6963 -112.83c34.6611 -110.963 34.4951 -233.362 19.9102 -347.769c-1.49707 -11.7637 -3.24902 -23.4385 -5.1543 -35.0654
c39.7012 5.27344 78.957 17.1182 115.482 33.0791c4.37402 1.91211 12.9043 3.59277 17.21 0.600586c3.3623 -2.33301 5.43066 -5.65723 0.279297 -7.91504c-23.3975 -10.2627 -47.3516 -19.1533 -72.0361 -25.8027c-20.6504 -5.5625 -41.7559 -9.65137 -62.9863 -12.0391
c-6.98828 -39.5986 -16.2822 -78.5596 -27.876 -117.374c-15.0537 -50.4043 -34.1211 -97.4941 -69.1318 -137.46c-39.0391 -44.5635 -120.536 -42.4414 -163.884 -4.51367c-41.9453 36.7021 -50.4551 101.192 -57.0469 153.539zM288.174 -186.924
c0.899414 -0.533203 1.51074 -0.873047 1.49414 -0.811523c-0.0917969 0.376953 -0.655273 0.631836 -1.49414 0.811523zM304.779 -156.922c14.877 19.2139 26.9004 40.4648 37.2676 62.4023c23.2852 49.2432 38.791 101.702 49.668 154.986
c-58.6025 0.666016 -116.271 15.5742 -166.063 49.4238c-0.875977 -52.8838 0.886719 -105.944 8.58203 -158.332c3.875 -26.3926 8.99609 -53.002 16.0293 -78.749c5.11719 -18.7383 14.3467 -41.6875 29.7334 -54.5371c9.22656 7.52832 17.3223 15.1719 24.7832 24.8057z
M240.576 574.421c-17.085 -5.68848 -32.2832 -14.0039 -45.748 -24.2695c19.7705 -33.6328 25.8594 -75.4463 29.958 -113.313c10.9482 -101.128 3.82715 -203.017 1.33789 -304.461c10.6494 -8.83984 21.9443 -16.9287 33.8398 -24.1377
c41.6055 -25.2109 87.4795 -35.9414 133.969 -36.2949c19.2676 100.941 22.2695 208.852 5.54199 310.092c-12.0625 73.0039 -53.3965 227.508 -158.898 192.385zM117.927 327.021c2.19727 -15.0469 5.5459 -29.9355 9.92676 -44.5244
c0.879883 8.66602 1.76953 17.3223 2.65625 25.9717c5.92871 57.7773 9.05273 115.463 11.0254 173.468c0.0205078 0.631836 0.0507812 1.2666 0.078125 1.89844c-23.7539 -48.0752 -31.0791 -106.185 -23.6865 -156.813z" />
    <glyph glyph-name="O" unicode="&#xd3;" horiz-adv-x="537" 
d="M120.802 -42.9434c-11.376 90.3193 -6.49512 181.358 1.82129 271.834c-19.0273 37.9043 -30.7363 79.4863 -33.582 121.744c-4.18066 62.0586 14.2998 128.217 53.7158 176.404c-0.719727 12.2354 -3.11426 24.25 -9.20312 35.8096
c-4.59082 8.7168 -9.98633 21.3291 -19.0059 25.8281c-15.7529 7.86133 -34.2568 -3.03613 -46.7295 -12.752c-41.5752 -32.3926 -59.4951 -87.9453 -68.375 -137.772c-10.1807 -57.1318 -12.1133 -115.836 -2.28223 -173.134
c1.0625 -6.20801 -19.7373 -7.75977 -21.001 -0.733398c-4.74023 26.3447 -7.14062 52.9277 -7.16113 79.7002c-0.0615234 82.1113 13.3789 205.323 96.0166 248.505c34.0234 17.7773 84.0234 10.0381 111.078 -17.5596c2.98828 -3.0498 5.71484 -6.27246 8.33008 -9.57031
c12.3271 8.34668 25.7949 15.3184 40.4004 20.5918c43.1953 15.5967 96.4053 13.916 133.515 -15.3457c35.4727 -27.9746 54.5576 -70.7725 67.6963 -112.83c34.6611 -110.963 34.4951 -233.362 19.9102 -347.769c-1.49707 -11.7637 -3.24902 -23.4385 -5.1543 -35.0654
c39.7012 5.27344 78.957 17.1182 115.482 33.0791c4.37402 1.91211 12.9043 3.59277 17.21 0.600586c3.3623 -2.33301 5.43066 -5.65723 0.279297 -7.91504c-23.3975 -10.2627 -47.3516 -19.1533 -72.0361 -25.8027c-20.6504 -5.5625 -41.7559 -9.65137 -62.9863 -12.0391
c-6.98828 -39.5986 -16.2822 -78.5596 -27.876 -117.374c-15.0537 -50.4043 -34.1211 -97.4941 -69.1318 -137.46c-39.0391 -44.5635 -120.536 -42.4414 -163.884 -4.51367c-41.9453 36.7021 -50.4551 101.192 -57.0469 153.539zM288.174 -186.924
c0.899414 -0.533203 1.51074 -0.873047 1.49414 -0.811523c-0.0917969 0.376953 -0.655273 0.631836 -1.49414 0.811523zM304.779 -156.922c14.877 19.2139 26.9004 40.4648 37.2676 62.4023c23.2852 49.2432 38.791 101.702 49.668 154.986
c-58.6025 0.666016 -116.271 15.5742 -166.063 49.4238c-0.875977 -52.8838 0.886719 -105.944 8.58203 -158.332c3.875 -26.3926 8.99609 -53.002 16.0293 -78.749c5.11719 -18.7383 14.3467 -41.6875 29.7334 -54.5371c9.22656 7.52832 17.3223 15.1719 24.7832 24.8057z
M240.576 574.421c-17.085 -5.68848 -32.2832 -14.0039 -45.748 -24.2695c19.7705 -33.6328 25.8594 -75.4463 29.958 -113.313c10.9482 -101.128 3.82715 -203.017 1.33789 -304.461c10.6494 -8.83984 21.9443 -16.9287 33.8398 -24.1377
c41.6055 -25.2109 87.4795 -35.9414 133.969 -36.2949c19.2676 100.941 22.2695 208.852 5.54199 310.092c-12.0625 73.0039 -53.3965 227.508 -158.898 192.385zM117.927 327.021c2.19727 -15.0469 5.5459 -29.9355 9.92676 -44.5244
c0.879883 8.66602 1.76953 17.3223 2.65625 25.9717c5.92871 57.7773 9.05273 115.463 11.0254 173.468c0.0205078 0.631836 0.0507812 1.2666 0.078125 1.89844c-23.7539 -48.0752 -31.0791 -106.185 -23.6865 -156.813z" />
    <glyph glyph-name="P" unicode="P" horiz-adv-x="696" 
d="M357.004 108.743c-2.63184 -49.3174 -5.16992 -98.4629 -9.79492 -146.762c-0.0576172 -0.597656 -0.308594 -1.12402 -0.634766 -1.62012c0.526367 -4.80469 0.981445 -9.60938 1.55176 -14.4141c2.75781 -23.2686 -44.6826 -28.6445 -58.4629 -29.4082
c-18.0791 -1.00195 -56.7031 1.92188 -60.3711 25.2578c-16.1035 102.493 -14.46 209.234 -3.84766 312.251c4.57422 44.4072 10.001 88.9473 17.3086 132.998c7.73535 46.6152 20.2998 92.1777 29.5195 138.467c4.58105 22.9932 8.26855 46.6895 9.62305 70.0967
c0.618164 10.6523 2.78809 31.2715 -3.62695 39.707c-14.7344 19.373 -52.8184 -27.333 -60.0078 -36.4473c-11.4199 -14.4766 -21.4814 -29.9824 -30.8984 -45.8174c-19.9434 -33.5273 -36.7764 -68.8203 -57.5146 -101.882
c-17.458 -27.8359 -38.7598 -61.2744 -70.334 -74.4609c-25.2822 -10.5576 -53.709 -5.39551 -73.2627 13.8594c-28.6885 28.25 -26.5283 70.5791 -23.6895 107.624c0.46875 6.11621 18.4805 6.13965 18.1338 0.631836c-1.58594 -25.1934 -3.57617 -52.207 5.49121 -76.3584
c8.21484 -21.8828 29.0615 -46.1123 54.6123 -40.2881c23.1562 5.27734 39.9082 29.4727 52.7783 47.8105c12.1846 17.3662 22.7793 35.7754 32.9365 54.3809c18.1367 33.2217 34.8379 67.4072 56.1777 98.7539c17.9473 26.3623 40.4307 57 73.0439 65.1162
c30.3418 7.54883 63.665 -9.4541 81.9854 -33.3027c26.25 -34.1729 25.4082 -81.0146 23.6865 -122.047c-3.52148 -83.8945 -14.2012 -167.351 -20.0625 -251.133c3.21973 32.9805 7.40332 65.8457 13.0947 98.5107c16.5107 94.7471 44.8965 200.188 110.834 273.308
c28.1885 31.2549 66.0654 56.6152 109.399 57.668c42.7432 1.03613 77.293 -25.3154 93.7188 -63.8613c39.9248 -93.6846 -17.9404 -194.895 -69.8252 -271.383c-48.085 -70.8887 -106.541 -134 -171.67 -189.396c8.04102 2.57031 16.1641 4.88965 24.3652 6.92383
c30.1924 7.48828 61.1689 11.7129 92.2783 12.3789c65.0508 1.38867 129.84 -12.2588 188.388 -40.709c10.5576 -5.12793 -9.26758 -10.2656 -14.9424 -7.51465c-59.9668 29.085 -126.355 42.1279 -192.891 37.3057c-33.8701 -2.45508 -67.4717 -9.61719 -99.3789 -21.2578
c-10.6455 -3.88477 -20.9551 -8.98535 -31.3633 -13.6143c-4.35352 -2.41797 -9.09766 -4.31934 -14.0723 -5.7627c-7.24023 -2.63867 -14.6191 -4.67578 -22.2764 -5.60938zM524.503 640.702c-35.1475 -23.4619 -60.6123 -59.6748 -79.9922 -96.5771
c-57.7773 -110.042 -74.2266 -231.25 -82.6758 -353.596c57.9639 49.1582 111.296 103.957 156.138 165.303c26.2705 35.9385 50.7754 74.1318 69.8975 114.396c19.1455 40.3086 35.4766 87.1709 32.1621 132.44c-1.41992 19.3936 -8.2832 43.4502 -27.5312 52.6221
c-21.7402 10.3604 -49.8506 -2.47266 -67.998 -14.5889z" />
    <glyph glyph-name="Q" unicode="Q" horiz-adv-x="537" 
d="M120.814 -42.9434c-11.376 90.3193 -6.49219 181.355 1.81055 271.824c-19.0273 37.9043 -30.7324 79.4863 -33.5781 121.744c-4.17676 62.0586 14.3037 128.217 53.7158 176.404c-0.719727 12.2354 -3.11426 24.25 -9.20312 35.8096
c-4.59082 8.7168 -9.98633 21.3291 -19.0059 25.8281c-15.7529 7.86133 -34.2607 -3.03613 -46.7334 -12.752c-41.5752 -32.3926 -59.4951 -87.9453 -68.375 -137.772c-10.1807 -57.1318 -12.1133 -115.836 -2.28223 -173.134
c1.0625 -6.20801 -19.7373 -7.75977 -21.001 -0.733398c-4.74023 26.3447 -7.14062 52.9277 -7.16113 79.7002c-0.0615234 82.1113 13.3789 205.323 96.0166 248.505c34.0195 17.7773 84.0234 10.0381 111.078 -17.5596c2.98828 -3.0498 5.71484 -6.27246 8.33008 -9.56934
c12.3271 8.34668 25.7949 15.3184 40.4004 20.5918c43.1953 15.5967 96.4053 13.916 133.515 -15.3457c35.4727 -27.9746 54.5576 -70.7725 67.6963 -112.83c34.6611 -110.963 34.4951 -233.362 19.9102 -347.769c-1.49707 -11.7637 -3.24902 -23.4385 -5.1543 -35.0654
c39.7012 5.27344 78.957 17.1182 115.482 33.0791c4.37402 1.91211 12.9014 3.59277 17.2109 0.600586c3.3623 -2.33301 5.43066 -5.65723 0.279297 -7.91504c-23.3975 -10.2627 -47.3516 -19.1533 -72.0361 -25.8027c-20.6504 -5.5625 -41.7559 -9.65137 -62.9863 -12.0391
c-6.98828 -39.5986 -16.2822 -78.5596 -27.876 -117.374c-10.8604 -36.3623 -23.8457 -70.9834 -43.3652 -102.466c6.45508 -8.26562 12.0518 -17.1113 16.3066 -26.5752c10.459 -23.2578 16.0791 -49.5654 20.8125 -74.46
c9.53223 -50.1299 17.7363 -101.968 36.6377 -149.648c7.83105 -19.75 23.0479 -40.6787 45.6064 -35.8291c30.8447 6.63184 54.6123 34.04 75.1201 56.0146c3.93262 4.21387 23.7715 1.57227 19.7607 -3.12109c-32.9639 -38.5596 -67.9307 -71.8555 -121.5 -73.6318
c-53.1963 -1.76562 -100.09 40.6924 -118.72 88.3799c-18.249 46.7168 -20.4805 99.7969 -25.8701 149.139c-0.496094 4.55762 -1.07031 9.09082 -1.66504 13.6211c-42.248 -21.1426 -101.414 -13.7637 -136.13 16.6123c-41.9453 36.7021 -50.4521 101.192 -57.0469 153.539
zM329.235 -119.547c4.56738 8.1875 8.82812 16.5527 12.8281 25.0254c23.2852 49.2432 38.791 101.702 49.668 154.986c-58.5986 0.666016 -116.271 15.5771 -166.063 49.4238c-0.875977 -52.8838 0.886719 -105.944 8.58203 -158.332
c3.25684 -22.1787 7.4707 -44.4824 12.8838 -66.3281c8.37109 5.12402 17.1055 8.94727 22.2021 10.3604c23.6621 6.56445 41.6973 -0.753906 59.8994 -15.1357zM288.192 -186.926c0.899414 -0.533203 1.50781 -0.873047 1.49414 -0.811523
c-0.0917969 0.376953 -0.655273 0.631836 -1.49414 0.811523zM280.013 -181.73c9.22656 7.52832 17.3232 15.1738 24.7871 24.8076c0.828125 1.06934 1.6123 2.16602 2.42383 3.24902c-0.583984 11.1895 -1.21875 26.1377 -8.52344 34.1523
c-10.8125 11.8613 -27.4082 2.83203 -37.0664 -4.82227c-1.99316 -1.5791 -6.19336 -4.67969 -9.82324 -8.12305c5.34473 -17.6113 14.2314 -37.5957 28.2021 -49.2637zM240.598 574.42c-17.0879 -5.68848 -32.2881 -14.0039 -45.749 -24.2695
c19.7705 -33.6328 25.8594 -75.4463 29.958 -113.313c10.9482 -101.128 3.82715 -203.017 1.33789 -304.461c10.6494 -8.83984 21.9443 -16.9287 33.8398 -24.1377c41.6025 -25.2109 87.4805 -35.9414 133.97 -36.2949c19.2676 100.941 22.2695 208.852 5.54199 310.092
c-12.0625 73.0039 -53.3965 227.508 -158.898 192.385zM117.943 327.02c2.19727 -15.0469 5.54883 -29.9355 9.92578 -44.5244c0.879883 8.66602 1.76953 17.3223 2.65625 25.9717c5.92871 57.7773 9.05273 115.463 11.0254 173.468
c0.0205078 0.631836 0.0507812 1.2666 0.078125 1.89844c-23.7568 -48.0752 -31.082 -106.185 -23.6855 -156.813z" />
    <glyph glyph-name="R" unicode="R" horiz-adv-x="752" 
d="M427.281 -60.8018c8.47266 41.1445 15.3613 82.9316 18.7842 124.836c1.6709 20.4971 0.540039 42.3154 -21.8281 50.7715c-10.8799 4.1123 -23.8389 3.92871 -36.7979 2.46875c-9.28809 -3.94238 -19.8291 -5.94238 -30.3252 -6.4043
c-2.67285 -50.0273 -5.2168 -99.8818 -9.90332 -148.881c-0.0576172 -0.597656 -0.308594 -1.12402 -0.634766 -1.62012c0.526367 -4.80469 0.981445 -9.60938 1.55176 -14.4141c2.75781 -23.2686 -44.6826 -28.6445 -58.4629 -29.4082
c-18.0791 -1.00195 -56.7031 1.92188 -60.3711 25.2578c-16.0996 102.493 -14.4561 209.234 -3.84375 312.251c4.57129 44.4072 9.99805 88.9473 17.3057 132.998c7.73535 46.6152 20.2998 92.1777 29.5195 138.467c4.58105 22.9932 8.26855 46.6895 9.62305 70.0967
c0.618164 10.6523 2.78809 31.2715 -3.62695 39.707c-14.7344 19.373 -52.8184 -27.333 -60.0078 -36.4473c-11.4199 -14.4766 -21.4814 -29.9824 -30.8984 -45.8174c-19.9434 -33.5273 -36.7764 -68.8203 -57.5146 -101.882
c-17.458 -27.8359 -38.7598 -61.2744 -70.334 -74.4609c-25.2822 -10.5576 -53.709 -5.39551 -73.2627 13.8594c-28.6885 28.25 -26.5283 70.5791 -23.6895 107.624c0.46875 6.11621 18.4805 6.13965 18.1338 0.631836c-1.58594 -25.1934 -3.57227 -52.207 5.49121 -76.3584
c8.21484 -21.8828 29.0615 -46.1123 54.6123 -40.2881c23.1562 5.27734 39.9082 29.4727 52.7783 47.8105c12.1875 17.3662 22.7822 35.7754 32.9395 54.3809c18.1338 33.2217 34.835 67.4072 56.1748 98.7539c17.9434 26.3623 40.4307 57 73.0439 65.1162
c30.3389 7.54883 63.6621 -9.4541 81.9824 -33.3027c26.25 -34.1729 25.4082 -81.0156 23.6865 -122.048c-3.52148 -83.8945 -14.2012 -167.351 -20.0625 -251.133c3.21973 32.9805 7.40332 65.8457 13.0947 98.5107c16.5107 94.7471 44.8965 200.188 110.834 273.308
c28.1885 31.2549 66.0654 56.6152 109.399 57.668c42.7432 1.03613 77.293 -25.3154 93.7188 -63.8613c39.9248 -93.6846 -17.9404 -194.895 -69.8252 -271.383c-53.6846 -79.1406 -120.298 -148.586 -194.69 -208.424c19.6006 0.282227 38.5293 -3.30078 53.8408 -16.6768
c32.3857 -28.291 47.752 -66.8271 53.7422 -108.579c11.7734 -82.0605 -13.166 -165.119 -11.3252 -247.428c0.441406 -19.8486 2.40039 -40.0332 5.41602 -59.6514c2.9209 -19.0029 3.91602 -38.1865 8.32715 -56.9619c2.56348 -10.9043 5.50098 -22.2021 10.1123 -32.4375
c1.15137 -2.5498 3.46094 -5.72461 4.33691 -8.26172l1.75195 0.925781c14.9961 9.64453 24.9932 24.6572 33.707 39.7988c42.9541 74.627 65.6211 158.725 94.7168 239.186c28.6914 79.3477 62.0078 157.234 108.161 228.149
c4.65918 7.15527 29.8633 4.52734 25.4248 -2.3252c-52.748 -81.4121 -88.4043 -171.83 -119.856 -263.186c-14.3779 -41.7617 -28.0088 -83.7822 -43.793 -125.049c-14.5684 -38.0879 -30.6006 -78.2842 -55.998 -110.626
c-22.5283 -28.6885 -63.085 -44.0645 -96.6465 -23.5195c-17.9336 10.9785 -30.9434 32.2227 -42.0752 49.5352c-11.2031 17.417 -22.0049 35.4795 -27.8691 55.4297c-24.6943 84.0166 4.44531 170.801 21.4316 253.293zM524.499 640.706
c-35.1475 -23.4619 -60.6123 -59.6748 -79.9922 -96.5771c-57.7773 -110.042 -74.2266 -231.25 -82.6758 -353.596c57.9639 49.1582 111.296 103.957 156.138 165.303c26.2705 35.9385 50.7754 74.1318 69.8975 114.396c19.1455 40.3086 35.4766 87.1709 32.1621 132.44
c-1.41992 19.3936 -8.2832 43.4502 -27.5312 52.6221c-21.7402 10.3604 -49.8506 -2.47266 -67.998 -14.5889z" />
    <glyph glyph-name="S" unicode="S" horiz-adv-x="424" 
d="M57.6143 542.009c52.9072 51.1377 151.798 94.1865 219.627 44.9268c82.5527 -59.9473 35.8564 -176.985 2.77734 -250.672c-33.5303 -74.6885 -75.8428 -144.714 -118.403 -214.505c12.5684 -19.8789 25.9072 -39.1406 39.7695 -57.6348
c12.582 -16.7861 25.8086 -32.9844 39.3955 -48.8701c53.6641 61.916 131.599 118.182 215.194 119.037c12.0654 0.125977 12.1738 -8.3877 0.322266 -9.21973c-28.3047 -1.99023 -55.4678 -11.1113 -80.6143 -23.9678
c-47.3652 -24.2188 -88.6387 -59.2881 -121.938 -100.799c14.8398 -16.8701 30.0156 -33.459 45.2695 -50.0205c33.3203 -36.1729 65.1768 -75.999 83.127 -122.247c18.3037 -47.1582 22.7051 -95.7871 -0.28125 -142.208
c-20.9014 -42.2139 -59.1484 -69.7744 -103.688 -83.1504c-36.8721 -11.0703 -76.2227 -0.777344 -102.744 27.0684c-33.0889 34.7461 -38.7256 85.3506 -36.9492 131.219c2.30957 59.6416 18.5791 118.427 46.0137 171.402
c-27.085 28.7529 -54.0381 57.5908 -78.9775 88.2998c-0.923828 1.1377 -1.84375 2.28516 -2.76367 3.42969c-16.833 -28.6475 -33.1299 -57.6416 -47.7861 -87.4092c-23.7744 -48.2822 -41.6709 -99.8447 -37.6914 -154.358
c0.441406 -6.05469 -18.6533 -6.89648 -19.0918 -0.665039c-1.73535 24.8037 0.682617 49.2568 6.72363 73.3779c12.9717 51.8037 39.2354 99.1719 65.502 145.236c7.11816 12.4834 14.3789 24.8818 21.7041 37.2432c-54.0654 69.3262 -101.061 147.906 -116.76 235.196
c-8.85645 49.2295 -6.59473 96.1123 5.87793 144.537c12.748 49.4873 39.8193 89.4092 76.3857 124.753zM205.856 -90.335c-1.68066 1.79297 -3.36621 3.57715 -5.05078 5.36719c-1.24609 -2.67578 -2.54004 -5.33105 -3.72559 -8.02734
c-18.0723 -41.0625 -29.4648 -85.0146 -32.8643 -129.775c-3.52832 -46.4521 -1.32422 -99.7803 29.9346 -137.199c16.4326 -19.6719 41.2969 -34.5352 67.5469 -28.3408c21.251 5.0127 32.7188 23.6113 40.9912 42.1904c17.6006 39.5244 4.87598 93.1885 -10.334 131.518
c-18.7549 47.2568 -52.0645 87.5244 -86.498 124.268zM282.452 559.631c-30.6982 43.2559 -87.2598 44.083 -130.727 21.0215c-20.501 -10.873 -38.2744 -26.9385 -52.4521 -45.2256c-14.959 -19.2988 -21.6416 -37.9453 -27.7607 -61.2578
c-6.39062 -24.3379 -9.09668 -48.9648 -8.32617 -74.1318c0.760742 -24.8477 6.91406 -49.3691 11.8926 -73.6592c13.6279 -66.4971 41.7451 -130.536 77.167 -189.41c53.3652 88.0371 107.811 178.679 139.334 277.236c15.0703 47.124 21.2002 102.693 -9.12793 145.427z
" />
    <glyph glyph-name="T" unicode="T" horiz-adv-x="671" 
d="M909.714 497.078c-1.50098 -7.61719 -23.1387 -6.68262 -21.9502 -0.773438c8.6084 43.002 7.0127 90.3193 -30.6846 119.269c-32.5762 25.0205 -76.4639 29.333 -116.151 28.0762c-119.781 -3.79688 -228.303 -54.9551 -336.138 -105.115
c-9.58984 -84.5156 -23.2959 -168.539 -32.8281 -253.079c-9.82031 -87.1035 -15.1992 -174.584 -15.8818 -262.244c-0.333008 -42.625 0.274414 -85.5859 2.98438 -128.136c1.34863 -21.1631 3.125 -42.3125 4.79883 -63.4512
c1.20215 -15.1758 -1.48047 -34.6377 5.55957 -48.6182c1.03613 -1.63379 1.93945 -3.3418 2.70996 -5.11816c1.33496 -2.71289 2.63184 -2.91309 3.88867 -0.59082c2.22461 -0.386719 13.4482 4.78223 13.2207 4.66699c8.9375 4.55078 16.9648 12.1611 24.5918 18.5049
c13.3525 11.1074 26.2295 22.7793 38.6855 34.8789c28.3486 27.5371 54.3643 57.3662 79.1025 88.1602c47.2803 58.8535 89.959 121.215 138.384 179.168c3.59961 4.30957 20.9053 2.77832 17.5635 -1.60547c-55.9531 -73.3945 -107.447 -150.46 -167.822 -220.4
c-27.4727 -31.8223 -56.9727 -61.9844 -89.4102 -88.7812c-27.8428 -22.9971 -56.3477 -42.6553 -94.3535 -33.6328c-43.2393 10.2656 -58.9521 57.1387 -69.9443 95.2842c-13.1895 45.7588 -17.3525 95.2197 -20.3887 142.571
c-6.10254 95.1309 -1.08691 190.422 7.84766 285.224c6.37402 67.6113 14.6768 135.186 25.7607 202.25c-3.4502 -1.33496 -6.90039 -2.67676 -10.3604 -3.9707c-37.3105 -13.9639 -75.5107 -25.6592 -114.597 -33.5039
c-36.4238 -7.31152 -75.7002 -13.084 -112.151 -2.89648c-68.1719 19.0537 -100.948 94.8018 -68.6094 157.662c2.65234 5.15137 20.3213 3.79004 17.5674 -1.60547c-21.3936 -41.918 -14.5029 -93.7695 20.9053 -125.969
c38.2305 -34.7666 90.1494 -28.2939 136.89 -18.8535c45.6572 9.22266 89.4268 23.7734 132.293 40.9053c4.38379 25.6963 9.16211 51.3213 14.4531 76.8311c4.75781 22.9355 36.2881 26.9121 55.6445 27.9883c12.9961 0.723633 59.5596 -2.3125 57.4609 -24.0391
c-0.81543 -8.43848 -1.74609 -16.8604 -2.65918 -25.2852c67.8389 31.5986 135.82 62.9219 208.05 82.4756c66.7793 18.0762 143.794 30.8984 211.769 11.5049c26.7393 -7.63086 52.8838 -21.0312 69.71 -43.8652c22.2021 -30.1279 20.9971 -68.8682 14.0898 -103.886z" />
    <glyph glyph-name="U" unicode="U" horiz-adv-x="898" 
d="M496.669 -3.89453c-6.10254 95.1309 -1.08984 190.421 7.85449 285.213c6.67578 70.8271 15.4375 141.624 27.3369 211.826c-71.4082 -130.274 -123.062 -270.102 -169.439 -411.138c-21.7705 -66.2119 -42.3047 -133.511 -75.6621 -195.05
c-15.0303 -27.7275 -31.6836 -55.5977 -52.9922 -79.0254c-21.3057 -23.4248 -62.5215 -29.7139 -91.3076 -18.0352c-17.3525 7.04004 -26.9863 21.999 -35.0137 38.0986c-8.67969 17.4102 -15.7734 34.0361 -19.0439 53.3037
c-6.16309 36.3047 -2.71289 73.9443 1.6748 110.297c8.78809 72.7695 27.9814 143.512 47.8916 213.884c20.002 70.7012 42.167 141.216 57.9072 213.021c7.64453 34.875 14.375 70.2393 18.2764 105.739c1.56934 14.2695 -0.179688 26.7119 -0.763672 40.7432
c-0.349609 8.35059 2.64258 13.1729 -4.07812 20.3994c-8.69336 9.34863 -23.7842 9.3623 -35.1465 6.40137c-34.6885 -9.03613 -62.2764 -39.9521 -82.3936 -67.8662c-20.3857 -28.2842 -37.6436 -59.0508 -52.2998 -90.6494
c-14.9014 -32.125 -26.9463 -65.6182 -35.8877 -99.8857c-4.84961 -18.5918 -8.76172 -37.4453 -11.7471 -56.4277c-1.01562 -6.44531 -10.3164 -42.5771 -2.50293 -46.0781c9.31445 -4.17676 -8.15039 -7.94922 -12.6191 -6.34668
c-18.2119 6.52637 -8.14648 38.0127 -6.08496 51.6846c3.58301 23.7705 8.65625 47.3066 15.0508 70.4795c13.5869 49.2334 33.5137 96.7246 59.2334 140.854c21.5195 36.9199 47.0566 74.043 83.6162 97.5049c27.9512 17.9365 69.873 29.4961 99.3389 7.91211
c15.9229 -11.665 29.7031 -21.6523 36.7627 -40.7197c6.3877 -17.2539 8.99902 -34.9365 10.6631 -53.1582c4.35352 -47.623 1.42676 -95.8369 -6.07812 -143.022c-14.9014 -93.7012 -43.6777 -184.407 -62.6602 -277.304
c-9.69824 -47.46 -16.792 -95.7285 -17.8145 -144.228c-0.523438 -24.8613 1.34473 -49.4609 1.95215 -74.2471c0.291992 -11.8418 -0.115234 -23.4795 3.59668 -34.9609c0.760742 -2.35352 3.72168 -8.74121 6.15332 -13.5527
c21.7197 10.2891 39.8193 42.876 50.5127 60.0625c14.7646 23.7266 27.0303 49.083 38.0664 74.7246c42.2373 98.1396 70.4844 202.161 108.45 302.006c39.0117 102.603 83.8779 203.561 142.354 296.682c0.411133 0.648438 1.05664 1.18848 1.83398 1.65332
c1.64355 8.42871 3.27051 16.8604 5.0127 25.2646c4.75781 22.9355 36.2881 26.9121 55.6445 27.9883c12.9961 0.723633 59.5596 -2.3125 57.4609 -24.0391c-9.39941 -97.2227 -25.8555 -193.601 -36.7969 -290.664c-9.82031 -87.1035 -15.1992 -174.584 -15.8818 -262.244
c-0.333008 -42.625 0.274414 -85.5859 2.98438 -128.136c1.34766 -21.1631 3.12402 -42.3125 4.79785 -63.4512c1.20215 -15.1758 -1.48047 -34.6377 5.55957 -48.6182c1.03613 -1.63379 1.93945 -3.3418 2.70996 -5.11816
c1.33496 -2.71289 2.63184 -2.91309 3.88867 -0.59082c2.22461 -0.386719 13.4482 4.78223 13.2207 4.66699c8.9375 4.55078 16.9648 12.1611 24.5918 18.5049c13.3525 11.1074 26.2295 22.7793 38.6855 34.8789c28.3486 27.5371 54.3643 57.3662 79.1025 88.1602
c47.2803 58.8535 89.959 121.215 138.384 179.168c3.59961 4.30957 20.9053 2.77832 17.5635 -1.60547c-55.9531 -73.3945 -107.447 -150.46 -167.822 -220.4c-27.4727 -31.8223 -56.9727 -61.9844 -89.4102 -88.7812
c-27.8428 -22.9971 -56.3477 -42.6553 -94.3535 -33.6328c-43.2393 10.2656 -58.9521 57.1387 -69.9443 95.2842c-13.1895 45.7588 -17.3525 95.2197 -20.3887 142.571z" />
    <glyph glyph-name="U" unicode="&#xdc;" horiz-adv-x="898" 
d="M496.669 -3.89453c-6.10254 95.1309 -1.08984 190.421 7.85449 285.213c6.67578 70.8271 15.4375 141.624 27.3369 211.826c-71.4082 -130.274 -123.062 -270.102 -169.439 -411.138c-21.7705 -66.2119 -42.3047 -133.511 -75.6621 -195.05
c-15.0303 -27.7275 -31.6836 -55.5977 -52.9922 -79.0254c-21.3057 -23.4248 -62.5215 -29.7139 -91.3076 -18.0352c-17.3525 7.04004 -26.9863 21.999 -35.0137 38.0986c-8.67969 17.4102 -15.7734 34.0361 -19.0439 53.3037
c-6.16309 36.3047 -2.71289 73.9443 1.6748 110.297c8.78809 72.7695 27.9814 143.512 47.8916 213.884c20.002 70.7012 42.167 141.216 57.9072 213.021c7.64453 34.875 14.375 70.2393 18.2764 105.739c1.56934 14.2695 -0.179688 26.7119 -0.763672 40.7432
c-0.349609 8.35059 2.64258 13.1729 -4.07812 20.3994c-8.69336 9.34863 -23.7842 9.3623 -35.1465 6.40137c-34.6885 -9.03613 -62.2764 -39.9521 -82.3936 -67.8662c-20.3857 -28.2842 -37.6436 -59.0508 -52.2998 -90.6494
c-14.9014 -32.125 -26.9463 -65.6182 -35.8877 -99.8857c-4.84961 -18.5918 -8.76172 -37.4453 -11.7471 -56.4277c-1.01562 -6.44531 -10.3164 -42.5771 -2.50293 -46.0781c9.31445 -4.17676 -8.15039 -7.94922 -12.6191 -6.34668
c-18.2119 6.52637 -8.14648 38.0127 -6.08496 51.6846c3.58301 23.7705 8.65625 47.3066 15.0508 70.4795c13.5869 49.2334 33.5137 96.7246 59.2334 140.854c21.5195 36.9199 47.0566 74.043 83.6162 97.5049c27.9512 17.9365 69.873 29.4961 99.3389 7.91211
c15.9229 -11.665 29.7031 -21.6523 36.7627 -40.7197c6.3877 -17.2539 8.99902 -34.9365 10.6631 -53.1582c4.35352 -47.623 1.42676 -95.8369 -6.07812 -143.022c-14.9014 -93.7012 -43.6777 -184.407 -62.6602 -277.304
c-9.69824 -47.46 -16.792 -95.7285 -17.8145 -144.228c-0.523438 -24.8613 1.34473 -49.4609 1.95215 -74.2471c0.291992 -11.8418 -0.115234 -23.4795 3.59668 -34.9609c0.760742 -2.35352 3.72168 -8.74121 6.15332 -13.5527
c21.7197 10.2891 39.8193 42.876 50.5127 60.0625c14.7646 23.7266 27.0303 49.083 38.0664 74.7246c42.2373 98.1396 70.4844 202.161 108.45 302.006c39.0117 102.603 83.8779 203.561 142.354 296.682c0.411133 0.648438 1.05664 1.18848 1.83398 1.65332
c1.64355 8.42871 3.27051 16.8604 5.0127 25.2646c4.75781 22.9355 36.2881 26.9121 55.6445 27.9883c12.9961 0.723633 59.5596 -2.3125 57.4609 -24.0391c-9.39941 -97.2227 -25.8555 -193.601 -36.7969 -290.664c-9.82031 -87.1035 -15.1992 -174.584 -15.8818 -262.244
c-0.333008 -42.625 0.274414 -85.5859 2.98438 -128.136c1.34766 -21.1631 3.12402 -42.3125 4.79785 -63.4512c1.20215 -15.1758 -1.48047 -34.6377 5.55957 -48.6182c1.03613 -1.63379 1.93945 -3.3418 2.70996 -5.11816
c1.33496 -2.71289 2.63184 -2.91309 3.88867 -0.59082c2.22461 -0.386719 13.4482 4.78223 13.2207 4.66699c8.9375 4.55078 16.9648 12.1611 24.5918 18.5049c13.3525 11.1074 26.2295 22.7793 38.6855 34.8789c28.3486 27.5371 54.3643 57.3662 79.1025 88.1602
c47.2803 58.8535 89.959 121.215 138.384 179.168c3.59961 4.30957 20.9053 2.77832 17.5635 -1.60547c-55.9531 -73.3945 -107.447 -150.46 -167.822 -220.4c-27.4727 -31.8223 -56.9727 -61.9844 -89.4102 -88.7812
c-27.8428 -22.9971 -56.3477 -42.6553 -94.3535 -33.6328c-43.2393 10.2656 -58.9521 57.1387 -69.9443 95.2842c-13.1895 45.7588 -17.3525 95.2197 -20.3887 142.571z" />
    <glyph glyph-name="U" unicode="&#xdb;" horiz-adv-x="898" 
d="M496.669 -3.89453c-6.10254 95.1309 -1.08984 190.421 7.85449 285.213c6.67578 70.8271 15.4375 141.624 27.3369 211.826c-71.4082 -130.274 -123.062 -270.102 -169.439 -411.138c-21.7705 -66.2119 -42.3047 -133.511 -75.6621 -195.05
c-15.0303 -27.7275 -31.6836 -55.5977 -52.9922 -79.0254c-21.3057 -23.4248 -62.5215 -29.7139 -91.3076 -18.0352c-17.3525 7.04004 -26.9863 21.999 -35.0137 38.0986c-8.67969 17.4102 -15.7734 34.0361 -19.0439 53.3037
c-6.16309 36.3047 -2.71289 73.9443 1.6748 110.297c8.78809 72.7695 27.9814 143.512 47.8916 213.884c20.002 70.7012 42.167 141.216 57.9072 213.021c7.64453 34.875 14.375 70.2393 18.2764 105.739c1.56934 14.2695 -0.179688 26.7119 -0.763672 40.7432
c-0.349609 8.35059 2.64258 13.1729 -4.07812 20.3994c-8.69336 9.34863 -23.7842 9.3623 -35.1465 6.40137c-34.6885 -9.03613 -62.2764 -39.9521 -82.3936 -67.8662c-20.3857 -28.2842 -37.6436 -59.0508 -52.2998 -90.6494
c-14.9014 -32.125 -26.9463 -65.6182 -35.8877 -99.8857c-4.84961 -18.5918 -8.76172 -37.4453 -11.7471 -56.4277c-1.01562 -6.44531 -10.3164 -42.5771 -2.50293 -46.0781c9.31445 -4.17676 -8.15039 -7.94922 -12.6191 -6.34668
c-18.2119 6.52637 -8.14648 38.0127 -6.08496 51.6846c3.58301 23.7705 8.65625 47.3066 15.0508 70.4795c13.5869 49.2334 33.5137 96.7246 59.2334 140.854c21.5195 36.9199 47.0566 74.043 83.6162 97.5049c27.9512 17.9365 69.873 29.4961 99.3389 7.91211
c15.9229 -11.665 29.7031 -21.6523 36.7627 -40.7197c6.3877 -17.2539 8.99902 -34.9365 10.6631 -53.1582c4.35352 -47.623 1.42676 -95.8369 -6.07812 -143.022c-14.9014 -93.7012 -43.6777 -184.407 -62.6602 -277.304
c-9.69824 -47.46 -16.792 -95.7285 -17.8145 -144.228c-0.523438 -24.8613 1.34473 -49.4609 1.95215 -74.2471c0.291992 -11.8418 -0.115234 -23.4795 3.59668 -34.9609c0.760742 -2.35352 3.72168 -8.74121 6.15332 -13.5527
c21.7197 10.2891 39.8193 42.876 50.5127 60.0625c14.7646 23.7266 27.0303 49.083 38.0664 74.7246c42.2373 98.1396 70.4844 202.161 108.45 302.006c39.0117 102.603 83.8779 203.561 142.354 296.682c0.411133 0.648438 1.05664 1.18848 1.83398 1.65332
c1.64355 8.42871 3.27051 16.8604 5.0127 25.2646c4.75781 22.9355 36.2881 26.9121 55.6445 27.9883c12.9961 0.723633 59.5596 -2.3125 57.4609 -24.0391c-9.39941 -97.2227 -25.8555 -193.601 -36.7969 -290.664c-9.82031 -87.1035 -15.1992 -174.584 -15.8818 -262.244
c-0.333008 -42.625 0.274414 -85.5859 2.98438 -128.136c1.34766 -21.1631 3.12402 -42.3125 4.79785 -63.4512c1.20215 -15.1758 -1.48047 -34.6377 5.55957 -48.6182c1.03613 -1.63379 1.93945 -3.3418 2.70996 -5.11816
c1.33496 -2.71289 2.63184 -2.91309 3.88867 -0.59082c2.22461 -0.386719 13.4482 4.78223 13.2207 4.66699c8.9375 4.55078 16.9648 12.1611 24.5918 18.5049c13.3525 11.1074 26.2295 22.7793 38.6855 34.8789c28.3486 27.5371 54.3643 57.3662 79.1025 88.1602
c47.2803 58.8535 89.959 121.215 138.384 179.168c3.59961 4.30957 20.9053 2.77832 17.5635 -1.60547c-55.9531 -73.3945 -107.447 -150.46 -167.822 -220.4c-27.4727 -31.8223 -56.9727 -61.9844 -89.4102 -88.7812
c-27.8428 -22.9971 -56.3477 -42.6553 -94.3535 -33.6328c-43.2393 10.2656 -58.9521 57.1387 -69.9443 95.2842c-13.1895 45.7588 -17.3525 95.2197 -20.3887 142.571z" />
    <glyph glyph-name="U" unicode="&#xda;" horiz-adv-x="898" 
d="M496.669 -3.89453c-6.10254 95.1309 -1.08984 190.421 7.85449 285.213c6.67578 70.8271 15.4375 141.624 27.3369 211.826c-71.4082 -130.274 -123.062 -270.102 -169.439 -411.138c-21.7705 -66.2119 -42.3047 -133.511 -75.6621 -195.05
c-15.0303 -27.7275 -31.6836 -55.5977 -52.9922 -79.0254c-21.3057 -23.4248 -62.5215 -29.7139 -91.3076 -18.0352c-17.3525 7.04004 -26.9863 21.999 -35.0137 38.0986c-8.67969 17.4102 -15.7734 34.0361 -19.0439 53.3037
c-6.16309 36.3047 -2.71289 73.9443 1.6748 110.297c8.78809 72.7695 27.9814 143.512 47.8916 213.884c20.002 70.7012 42.167 141.216 57.9072 213.021c7.64453 34.875 14.375 70.2393 18.2764 105.739c1.56934 14.2695 -0.179688 26.7119 -0.763672 40.7432
c-0.349609 8.35059 2.64258 13.1729 -4.07812 20.3994c-8.69336 9.34863 -23.7842 9.3623 -35.1465 6.40137c-34.6885 -9.03613 -62.2764 -39.9521 -82.3936 -67.8662c-20.3857 -28.2842 -37.6436 -59.0508 -52.2998 -90.6494
c-14.9014 -32.125 -26.9463 -65.6182 -35.8877 -99.8857c-4.84961 -18.5918 -8.76172 -37.4453 -11.7471 -56.4277c-1.01562 -6.44531 -10.3164 -42.5771 -2.50293 -46.0781c9.31445 -4.17676 -8.15039 -7.94922 -12.6191 -6.34668
c-18.2119 6.52637 -8.14648 38.0127 -6.08496 51.6846c3.58301 23.7705 8.65625 47.3066 15.0508 70.4795c13.5869 49.2334 33.5137 96.7246 59.2334 140.854c21.5195 36.9199 47.0566 74.043 83.6162 97.5049c27.9512 17.9365 69.873 29.4961 99.3389 7.91211
c15.9229 -11.665 29.7031 -21.6523 36.7627 -40.7197c6.3877 -17.2539 8.99902 -34.9365 10.6631 -53.1582c4.35352 -47.623 1.42676 -95.8369 -6.07812 -143.022c-14.9014 -93.7012 -43.6777 -184.407 -62.6602 -277.304
c-9.69824 -47.46 -16.792 -95.7285 -17.8145 -144.228c-0.523438 -24.8613 1.34473 -49.4609 1.95215 -74.2471c0.291992 -11.8418 -0.115234 -23.4795 3.59668 -34.9609c0.760742 -2.35352 3.72168 -8.74121 6.15332 -13.5527
c21.7197 10.2891 39.8193 42.876 50.5127 60.0625c14.7646 23.7266 27.0303 49.083 38.0664 74.7246c42.2373 98.1396 70.4844 202.161 108.45 302.006c39.0117 102.603 83.8779 203.561 142.354 296.682c0.411133 0.648438 1.05664 1.18848 1.83398 1.65332
c1.64355 8.42871 3.27051 16.8604 5.0127 25.2646c4.75781 22.9355 36.2881 26.9121 55.6445 27.9883c12.9961 0.723633 59.5596 -2.3125 57.4609 -24.0391c-9.39941 -97.2227 -25.8555 -193.601 -36.7969 -290.664c-9.82031 -87.1035 -15.1992 -174.584 -15.8818 -262.244
c-0.333008 -42.625 0.274414 -85.5859 2.98438 -128.136c1.34766 -21.1631 3.12402 -42.3125 4.79785 -63.4512c1.20215 -15.1758 -1.48047 -34.6377 5.55957 -48.6182c1.03613 -1.63379 1.93945 -3.3418 2.70996 -5.11816
c1.33496 -2.71289 2.63184 -2.91309 3.88867 -0.59082c2.22461 -0.386719 13.4482 4.78223 13.2207 4.66699c8.9375 4.55078 16.9648 12.1611 24.5918 18.5049c13.3525 11.1074 26.2295 22.7793 38.6855 34.8789c28.3486 27.5371 54.3643 57.3662 79.1025 88.1602
c47.2803 58.8535 89.959 121.215 138.384 179.168c3.59961 4.30957 20.9053 2.77832 17.5635 -1.60547c-55.9531 -73.3945 -107.447 -150.46 -167.822 -220.4c-27.4727 -31.8223 -56.9727 -61.9844 -89.4102 -88.7812
c-27.8428 -22.9971 -56.3477 -42.6553 -94.3535 -33.6328c-43.2393 10.2656 -58.9521 57.1387 -69.9443 95.2842c-13.1895 45.7588 -17.3525 95.2197 -20.3887 142.571z" />
    <glyph glyph-name="V" unicode="V" horiz-adv-x="859" 
d="M894.396 77.0557c4.01367 -0.135742 9.85254 -1.90918 8.9082 -6.71094c-0.933594 -4.76758 -11.79 -4.63184 -15.125 -4.51953c-29.5371 0.991211 -58.9346 5.01172 -87.5918 12.2852c-37.8945 9.61328 -73.9756 24.3408 -107.526 43.3545
c-0.0302734 -0.115234 -0.0576172 -0.230469 -0.0878906 -0.345703c-17.2578 -65.1289 -39.3682 -131.816 -72.5859 -190.697c-15.04 -26.6641 -28.8711 -54.5371 -49.6807 -77.3438c-22.5146 -24.6738 -54.6699 -37.5 -87.874 -38.3184
c-40.2236 -0.991211 -80.3018 12.7588 -107.547 42.9346c-23.0947 25.5811 -32.7461 59.7598 -39.0654 92.876c-27.5508 144.36 -11.3457 293.067 -15.0264 438.97c-1.69824 67.207 -9.95703 133.511 -29.2246 197.987c-16.7959 56.1914 -44.4414 120.077 -101.111 145.801
c-69.2617 31.4424 -132.788 -24.4639 -164.736 -82.3594c-31.6152 -57.2842 -41.2803 -125.673 -35.2461 -190.272c11.9668 -128.104 105.077 -259.32 245.033 -257.585c10.8467 0.132812 11.1045 -8.06836 0.291992 -8.34375
c-26.2568 -0.666016 -52.2246 2.66211 -77.3535 10.3906c-117.507 36.1455 -184.877 150.487 -192.209 268.666c-6.66309 107.38 38.3486 259.056 161.943 279.176c55.0156 8.95801 103.76 -18.4189 143.383 -54.1807c47.1445 -42.5469 80.0605 -99.2168 103.139 -157.806
c51.0869 -129.69 54.5098 -267.878 61.251 -405.236c3.52832 -71.8867 12.0586 -142.334 26.7627 -212.771c3.21289 -15.4004 7.22363 -30.21 15.1631 -43.9287c3.27051 -5.64746 7.13867 -11.0811 11.4951 -15.9512c0.597656 -0.672852 3.68066 -3.40625 6.2373 -5.64453
c4.58398 2.17969 11.6406 4.45508 13.8242 5.77246c13.2031 7.96973 25.7881 18.4395 36.8174 29.1875c48.8184 47.5762 76.5283 116.067 99.1582 179.189c7.80664 21.7773 14.7236 43.7861 20.9316 65.9746c-61.1865 40.4512 -112.498 95.6777 -148.898 160.199
c-60.582 107.384 -89.8369 247.689 -57.498 368.521c13.9736 52.2148 45.0391 114.586 99.7939 133.559c56.4258 19.5498 112.25 -15.4141 135.93 -66.6406c13.0371 -28.2021 18.3311 -59.3145 22.9082 -89.8027c5.29785 -35.2725 9.28809 -70.7422 11.8994 -106.313
c5.14844 -70.1104 4.96191 -140.669 -1.35059 -210.701c-5.71875 -63.4482 -16.7246 -126.438 -32.21 -188.242c59.0742 -36.5635 126.747 -58.7383 197.078 -61.1289zM499.317 -145.383c0.179688 -0.152344 0.295898 -0.254883 0.295898 -0.254883
c0.00976562 0.139648 -0.105469 0.213867 -0.295898 0.254883zM577.341 247.787c26.5928 -35.3232 58.5176 -66.5322 94.2148 -92.3164c10.1064 38.9297 17.9131 78.4268 23.4043 118.44c18.2119 132.703 17.1523 273.937 -9.88184 405.458
c-6.3125 30.7051 -16.7178 62.4219 -38.7979 85.6084c-26.5254 27.8564 -62.2021 36.9268 -94.082 11.9844c-49.4912 -38.7266 -70.1992 -108.667 -76.0674 -168.566c-12.3232 -125.789 25.2549 -259.728 101.21 -360.608z" />
    <glyph glyph-name="W" unicode="W" horiz-adv-x="1059" 
d="M939.712 517.131c6.75781 -110.936 -14.8428 -221.517 -37.7852 -329.494c-3.2666 -15.3594 -6.85938 -30.583 -10.6631 -45.7422c64.2734 -23.6318 133.708 -35.0215 202.372 -34.3047c14.833 0.152344 15.2061 -11.2578 0.400391 -11.417
c-23.1836 -0.250977 -46.377 0.496094 -69.4648 2.63574c-46.5771 4.31934 -92.7676 14.167 -136.795 29.3906c-7.71191 -29.6084 -16.2324 -58.9688 -25.0752 -88.3975c-14.3848 -47.8643 -29.333 -95.627 -52.1426 -140.248
c-22.3447 -43.7109 -48.5713 -87.7412 -93.9463 -110.49c-52.5742 -26.3584 -123.941 -19.7939 -168.224 20.0117c-38.2236 34.3594 -55.7627 86.7705 -69.3154 134.927c-12.2178 43.4121 -19.4268 88.292 -23.3486 133.283
c-16.9316 -55.335 -38.499 -109.254 -65.1357 -160.966c-16.3477 -31.7441 -33.8057 -63.2031 -52.6426 -93.4365c-19.377 -31.1025 -57.8418 -42.0273 -92.7881 -38.2344c-88.3154 9.58691 -103.087 118.251 -99.4639 189.146
c4.19727 82.1426 22.8096 164.573 40.9268 244.597c18.2148 80.4648 36.002 161.833 43.873 244.08c3.95605 41.3516 5.51465 83.2432 2.16602 124.689c-2.90332 35.9346 -8.1875 72.9834 -29.5537 103.159c-24.8096 35.0352 -62.7988 41.1035 -100.303 21.2041
c-33.6836 -17.8721 -58.1914 -49.9189 -76.6035 -82.5195c-36.7129 -64.9961 -51.4238 -147.139 -23.1836 -218.132c24.875 -62.5312 80.7979 -111.041 148.419 -119.426c12.4766 -1.54492 3.38574 -8.49609 -4.54004 -8.21094
c-70.834 2.55664 -133.653 51.8271 -163.108 114.871c-34.3525 73.5234 -21.0039 161.33 17.2129 230.626c32.7666 59.4141 86.9102 110.979 159.204 106.215c77.7988 -5.12793 128.455 -68.2158 147.499 -139.227c44.2891 -165.144 -7.77637 -338.321 -33.751 -501.797
c-6.59766 -41.541 -11.7861 -83.4658 -14.7881 -125.432c-2.87598 -40.1826 -4.18652 -82.6064 3.39941 -122.341c1.56934 -8.21094 2.95508 -16.3809 7.12891 -23.7324c0.930664 -1.64062 2.61133 -3.49121 3.7998 -5.25684
c15.4678 7.42285 29.0342 16.7168 39.748 30.7686c23.8184 31.2422 44.2275 64.5859 62.2119 99.4785c34.5762 67.085 59.3691 138.659 76.2021 212.23c-0.703125 40.9912 0.43457 82.0332 3.79688 122.858c2.46875 30.0225 5.68848 59.8213 9.92676 89.6475
c2.06836 14.5547 4.82227 28.7939 7.69824 43.2021c2.87598 14.4121 8.7334 26.8643 14.2852 40.4883c6.79492 16.6738 54.7881 16.1885 59.6582 -1.62598c4.34375 -15.8994 7.94629 -29.4248 9.25391 -45.8604c1.22266 -15.3828 1.33789 -30.7656 1.72461 -46.1895
c0.723633 -28.6543 0.59082 -57.3115 1.17871 -85.9688c1.1748 -57.373 1.85059 -114.604 7.71875 -171.745c5.61328 -54.6973 13.04 -109.622 29.085 -162.37c7.57617 -24.8984 17.5908 -49.1758 29.833 -72.1416c8.94141 -16.7754 18.7246 -36.0029 33.2656 -48.6152
c0.0986328 -0.0878906 0.360352 -0.311523 0.716797 -0.617188c0.699219 -1.47363 1.53125 -3.17871 2.54297 -5.17188c0.282227 -0.563477 1.63086 -0.261719 3.46777 0.485352c1.8916 -1.28711 3.58301 -2.16699 4.11914 -1.64746
c-0.0947266 -0.0917969 -0.960938 0.951172 -2.2002 2.50293c5.10352 2.43848 12.1162 6.83301 13.2949 7.63477c17.6855 12.0352 31.7812 29.0146 44.6279 45.8682c28.1143 36.8789 53.1758 77.1094 74.7529 118.138c25.0039 47.5352 43.0869 98.7549 57.4922 151.014
c-118.179 48.6553 -216.906 137.81 -259.12 264.634c-27.877 83.7549 -28.5596 181.335 14.6221 260.278c40.5332 74.1045 128.713 120.702 211.863 90.1426c90.7773 -33.3604 109.373 -154.015 114.453 -237.45zM652.475 340.412
c47.2129 -86.5156 122.335 -148.463 209.248 -186.629c9.27441 35.334 17.0205 71.0312 24.1963 106.283c20.0088 98.3096 35.168 200.32 22.2539 300.62c-9.96387 77.3877 -40.9238 191.672 -138.626 190.796c-92.8936 -0.832031 -147.23 -95.8955 -160.481 -176.998
c-13.1113 -80.2646 4.70312 -163.144 43.4092 -234.072z" />
    <glyph glyph-name="X" unicode="X" horiz-adv-x="807" 
d="M521.657 554.261c-23.2578 -23.1426 -42.75 -49.6846 -61.4951 -76.5215c-37.3643 -53.4912 -70.4707 -109.274 -100.888 -166.562c11.7393 -83.5342 13.7158 -169.395 22.8135 -252.494c8.43164 -77.042 21.7734 -155.917 46.1523 -229.675
c7.9873 -24.1611 19.0068 -78.6406 49.9941 -84.2266c19.6855 -3.54883 44.5703 13.9326 59.3486 24.9795c13.3486 9.98047 26.0928 20.9453 37.9512 32.6572c95.4229 94.2451 139.905 230.191 250.386 311.084c5.92578 4.33984 29.5303 0.770508 21.6318 -5.0127
c-119.999 -87.8604 -165.079 -240.829 -274.863 -338.857c-24.2158 -21.6211 -51.2803 -40.6074 -84.084 -45.5752c-38.5527 -5.84082 -74.4912 8.58789 -101.376 35.8936c-54.5986 55.4473 -83.0078 132.458 -96.5508 207.652
c-9.91211 55.0361 -14.0146 110.731 -17.0605 166.494c-19.04 -40.4277 -39.7686 -80.1553 -66.3848 -116.147c-21.3936 -28.9297 -61.2949 -67.707 -98.3262 -37.2568c-5.92578 4.87305 11.4062 8.09863 15.5117 4.75684c44.9102 -36.5498 111.917 111.812 125.738 141.084
c7.31445 15.499 14.3984 31.0996 21.4277 46.7207c-0.431641 8.57129 -0.863281 17.1426 -1.31445 25.71c-3.91895 74.4131 -9.78711 148.286 -22.4844 221.766c-6.28906 36.3965 -15.2402 73.085 -28.3682 107.647c-11.6338 30.6309 -24.5381 66.2227 -46.4238 91.1484
c-53.2705 60.6631 -141.206 19.5293 -170.193 -44.1025c-30.0801 -66.0322 -9.69141 -141.468 35.9961 -194.684c52.54 -61.2002 130.39 -89.1582 207.071 -105.761c13.4746 -2.91699 -3.55176 -9.94336 -10.3057 -8.71094
c-81.8232 14.9346 -164.539 46.0508 -220.133 110.674c-49.2227 57.2168 -69.5234 140.86 -32.1318 209.885c29.6523 54.7412 94.6113 83.4736 155.41 72.1348c73.8086 -13.7637 125.29 -79.9551 158.875 -142.611c29.3398 -54.7412 46.0605 -112.953 56.5703 -172.717
c16.5752 30.2744 34.0234 60.0664 52.4795 89.2334c28.3516 44.8115 57.9971 90.9033 95.9053 128.359c32.6885 32.2979 76.2744 60.9248 124.115 49.6504c15.0742 -3.55176 -3.77246 -11.7529 -11.7119 -9.89844c-35.4492 8.27539 -70.124 -23.6689 -93.2832 -46.7168z" />
    <glyph glyph-name="Y" unicode="Y" horiz-adv-x="738" 
d="M257.254 117.311c-9.3457 -49.9053 -18.4551 -100.627 -22.5537 -151.256c-1.77637 -21.8926 -4.43164 -44.6689 -2.67969 -66.5791c0.855469 -10.707 3.13379 -20.6396 6.65527 -30.7393c0.600586 -1.73145 1.07227 -3.10645 1.44922 -4.37012
c0.648438 0.744141 1.17773 1.35156 1.5 1.70508c6.22461 6.8125 11.6338 14.4053 16.4453 22.2568c7.20898 11.7598 13.1582 24.3105 18.5068 37.0146c11.7393 27.8867 20.4941 57.1211 28.6377 86.2305c17.1045 61.1387 28.7695 123.802 40.3154 186.18
c21.4854 116.06 41.5713 233.114 83.6836 343.812c-0.0371094 0.546875 -0.0712891 1.08984 -0.108398 1.63672c-1.49805 21.4619 39.8701 26.0635 53.2969 26.8105c16.6699 0.923828 51.4502 -1.7627 55.04 -23.0273c27.4453 -162.556 20.1611 -331.071 11.6309 -495.101
c-1.37891 -26.5146 -2.92773 -53.0059 -4.84668 -79.4629c21.5811 17.2236 43.834 33.6123 66.7725 49.0225c52.0586 34.9668 106.759 67.1182 150.205 113.061c4 4.22754 23.2412 2.54004 17.4717 -4.04785c-42.7881 -48.8594 -99.1221 -80.7666 -152.229 -116.875
c-29.1299 -19.8076 -57.1523 -41.208 -83.9932 -64.001c-3.1582 -38.6855 -7.24707 -77.2793 -13.0332 -115.73c-10.2559 -68.1582 -23.4863 -138.079 -53.1182 -200.756c-25.207 -53.3213 -60.6729 -114.837 -122.226 -129.677
c-21.876 -5.27344 -47.4395 -2.5127 -63.875 14.124c-17.1182 17.3252 -19.4854 44.4209 -17.3154 67.4375c5.80664 61.6045 35.4658 118.686 69.4619 169.253c27.792 41.3379 59.0947 80.4512 93.002 117.024c4.89648 88.7812 5.43945 177.732 6.53613 266.781
c1.40625 114.294 -2 228.364 -8.76074 342.387c-40.4277 -131.426 -56.0557 -269.287 -85.8545 -403.443c-14.4463 -65.0479 -28.4814 -135.583 -62.1924 -193.781c-14.3301 -24.7383 -30.6201 -47.6533 -61.8281 -48.1045
c-16.1875 -0.234375 -36.3115 3.50781 -49.6406 13.4033c-11.4443 8.49609 -19.7812 24.6943 -25.4287 37.459c-28.708 64.918 -9.93555 141.565 2.46582 208.497c13.7393 74.165 31.4414 147.614 47.7549 221.243c8.30664 37.4795 15.3799 75.0508 22.1885 112.823
c6.29297 34.916 10.5205 71.248 6.99219 106.725c-2.7334 27.4658 -10.5811 55.2646 -26.6572 77.9893c-19.7031 27.8525 -55.8115 39.6396 -88.4053 29.6729c-69.8828 -21.3662 -102.048 -105.59 -115.808 -170.314c-7.38574 -34.7393 -10.1768 -70.4258 -8.16992 -105.885
c1.74902 -30.9434 4.4043 -68.7217 30.5283 -89.542c6.58789 -5.25 -12.5547 -8.88672 -17.1455 -5.25684c-35.8232 28.3076 -35.5957 85.9756 -34.6758 127.523c1.16797 52.6152 12.5918 105.812 34.3799 153.809c17.5938 38.7637 44.5225 74.7227 84.3018 92.541
c32.9941 14.7754 71.0176 15.2715 103.709 -0.59082c34.875 -16.9248 68.4023 -44.4648 87.5723 -78.5762c23.835 -42.418 27.6895 -93.8613 26.5859 -141.44c-2.4043 -103.665 -27.5439 -206.386 -46.5439 -307.864zM385.815 -430.705
c22.2324 55.2744 32.207 115.758 38.9951 174.733c3.73535 32.4473 6.56445 64.9248 8.73828 97.4229c-25.751 -29.8799 -49.7324 -61.3184 -71.3975 -94.2207c-32.1719 -48.8662 -60.7246 -104.398 -65.3633 -163.693
c-1.79297 -22.9424 0.869141 -52.8936 22.3408 -66.4902c35.2383 -22.3174 56.8389 27.7676 66.6865 52.248z" />
    <glyph glyph-name="Y" unicode="&#x178;" horiz-adv-x="738" 
d="M257.254 117.311c-9.3457 -49.9053 -18.4551 -100.627 -22.5537 -151.256c-1.77637 -21.8926 -4.43164 -44.6689 -2.67969 -66.5791c0.855469 -10.707 3.13379 -20.6396 6.65527 -30.7393c0.600586 -1.73145 1.07227 -3.10645 1.44922 -4.37012
c0.648438 0.744141 1.17773 1.35156 1.5 1.70508c6.22461 6.8125 11.6338 14.4053 16.4453 22.2568c7.20898 11.7598 13.1582 24.3105 18.5068 37.0146c11.7393 27.8867 20.4941 57.1211 28.6377 86.2305c17.1045 61.1387 28.7695 123.802 40.3154 186.18
c21.4854 116.06 41.5713 233.114 83.6836 343.812c-0.0371094 0.546875 -0.0712891 1.08984 -0.108398 1.63672c-1.49805 21.4619 39.8701 26.0635 53.2969 26.8105c16.6699 0.923828 51.4502 -1.7627 55.04 -23.0273c27.4453 -162.556 20.1611 -331.071 11.6309 -495.101
c-1.37891 -26.5146 -2.92773 -53.0059 -4.84668 -79.4629c21.5811 17.2236 43.834 33.6123 66.7725 49.0225c52.0586 34.9668 106.759 67.1182 150.205 113.061c4 4.22754 23.2412 2.54004 17.4717 -4.04785c-42.7881 -48.8594 -99.1221 -80.7666 -152.229 -116.875
c-29.1299 -19.8076 -57.1523 -41.208 -83.9932 -64.001c-3.1582 -38.6855 -7.24707 -77.2793 -13.0332 -115.73c-10.2559 -68.1582 -23.4863 -138.079 -53.1182 -200.756c-25.207 -53.3213 -60.6729 -114.837 -122.226 -129.677
c-21.876 -5.27344 -47.4395 -2.5127 -63.875 14.124c-17.1182 17.3252 -19.4854 44.4209 -17.3154 67.4375c5.80664 61.6045 35.4658 118.686 69.4619 169.253c27.792 41.3379 59.0947 80.4512 93.002 117.024c4.89648 88.7812 5.43945 177.732 6.53613 266.781
c1.40625 114.294 -2 228.364 -8.76074 342.387c-40.4277 -131.426 -56.0557 -269.287 -85.8545 -403.443c-14.4463 -65.0479 -28.4814 -135.583 -62.1924 -193.781c-14.3301 -24.7383 -30.6201 -47.6533 -61.8281 -48.1045
c-16.1875 -0.234375 -36.3115 3.50781 -49.6406 13.4033c-11.4443 8.49609 -19.7812 24.6943 -25.4287 37.459c-28.708 64.918 -9.93555 141.565 2.46582 208.497c13.7393 74.165 31.4414 147.614 47.7549 221.243c8.30664 37.4795 15.3799 75.0508 22.1885 112.823
c6.29297 34.916 10.5205 71.248 6.99219 106.725c-2.7334 27.4658 -10.5811 55.2646 -26.6572 77.9893c-19.7031 27.8525 -55.8115 39.6396 -88.4053 29.6729c-69.8828 -21.3662 -102.048 -105.59 -115.808 -170.314c-7.38574 -34.7393 -10.1768 -70.4258 -8.16992 -105.885
c1.74902 -30.9434 4.4043 -68.7217 30.5283 -89.542c6.58789 -5.25 -12.5547 -8.88672 -17.1455 -5.25684c-35.8232 28.3076 -35.5957 85.9756 -34.6758 127.523c1.16797 52.6152 12.5918 105.812 34.3799 153.809c17.5938 38.7637 44.5225 74.7227 84.3018 92.541
c32.9941 14.7754 71.0176 15.2715 103.709 -0.59082c34.875 -16.9248 68.4023 -44.4648 87.5723 -78.5762c23.835 -42.418 27.6895 -93.8613 26.5859 -141.44c-2.4043 -103.665 -27.5439 -206.386 -46.5439 -307.864zM385.815 -430.705
c22.2324 55.2744 32.207 115.758 38.9951 174.733c3.73535 32.4473 6.56445 64.9248 8.73828 97.4229c-25.751 -29.8799 -49.7324 -61.3184 -71.3975 -94.2207c-32.1719 -48.8662 -60.7246 -104.398 -65.3633 -163.693
c-1.79297 -22.9424 0.869141 -52.8936 22.3408 -66.4902c35.2383 -22.3174 56.8389 27.7676 66.6865 52.248z" />
    <glyph glyph-name="Y" unicode="&#xdd;" horiz-adv-x="738" 
d="M257.254 117.311c-9.3457 -49.9053 -18.4551 -100.627 -22.5537 -151.256c-1.77637 -21.8926 -4.43164 -44.6689 -2.67969 -66.5791c0.855469 -10.707 3.13379 -20.6396 6.65527 -30.7393c0.600586 -1.73145 1.07227 -3.10645 1.44922 -4.37012
c0.648438 0.744141 1.17773 1.35156 1.5 1.70508c6.22461 6.8125 11.6338 14.4053 16.4453 22.2568c7.20898 11.7598 13.1582 24.3105 18.5068 37.0146c11.7393 27.8867 20.4941 57.1211 28.6377 86.2305c17.1045 61.1387 28.7695 123.802 40.3154 186.18
c21.4854 116.06 41.5713 233.114 83.6836 343.812c-0.0371094 0.546875 -0.0712891 1.08984 -0.108398 1.63672c-1.49805 21.4619 39.8701 26.0635 53.2969 26.8105c16.6699 0.923828 51.4502 -1.7627 55.04 -23.0273c27.4453 -162.556 20.1611 -331.071 11.6309 -495.101
c-1.37891 -26.5146 -2.92773 -53.0059 -4.84668 -79.4629c21.5811 17.2236 43.834 33.6123 66.7725 49.0225c52.0586 34.9668 106.759 67.1182 150.205 113.061c4 4.22754 23.2412 2.54004 17.4717 -4.04785c-42.7881 -48.8594 -99.1221 -80.7666 -152.229 -116.875
c-29.1299 -19.8076 -57.1523 -41.208 -83.9932 -64.001c-3.1582 -38.6855 -7.24707 -77.2793 -13.0332 -115.73c-10.2559 -68.1582 -23.4863 -138.079 -53.1182 -200.756c-25.207 -53.3213 -60.6729 -114.837 -122.226 -129.677
c-21.876 -5.27344 -47.4395 -2.5127 -63.875 14.124c-17.1182 17.3252 -19.4854 44.4209 -17.3154 67.4375c5.80664 61.6045 35.4658 118.686 69.4619 169.253c27.792 41.3379 59.0947 80.4512 93.002 117.024c4.89648 88.7812 5.43945 177.732 6.53613 266.781
c1.40625 114.294 -2 228.364 -8.76074 342.387c-40.4277 -131.426 -56.0557 -269.287 -85.8545 -403.443c-14.4463 -65.0479 -28.4814 -135.583 -62.1924 -193.781c-14.3301 -24.7383 -30.6201 -47.6533 -61.8281 -48.1045
c-16.1875 -0.234375 -36.3115 3.50781 -49.6406 13.4033c-11.4443 8.49609 -19.7812 24.6943 -25.4287 37.459c-28.708 64.918 -9.93555 141.565 2.46582 208.497c13.7393 74.165 31.4414 147.614 47.7549 221.243c8.30664 37.4795 15.3799 75.0508 22.1885 112.823
c6.29297 34.916 10.5205 71.248 6.99219 106.725c-2.7334 27.4658 -10.5811 55.2646 -26.6572 77.9893c-19.7031 27.8525 -55.8115 39.6396 -88.4053 29.6729c-69.8828 -21.3662 -102.048 -105.59 -115.808 -170.314c-7.38574 -34.7393 -10.1768 -70.4258 -8.16992 -105.885
c1.74902 -30.9434 4.4043 -68.7217 30.5283 -89.542c6.58789 -5.25 -12.5547 -8.88672 -17.1455 -5.25684c-35.8232 28.3076 -35.5957 85.9756 -34.6758 127.523c1.16797 52.6152 12.5918 105.812 34.3799 153.809c17.5938 38.7637 44.5225 74.7227 84.3018 92.541
c32.9941 14.7754 71.0176 15.2715 103.709 -0.59082c34.875 -16.9248 68.4023 -44.4648 87.5723 -78.5762c23.835 -42.418 27.6895 -93.8613 26.5859 -141.44c-2.4043 -103.665 -27.5439 -206.386 -46.5439 -307.864zM385.815 -430.705
c22.2324 55.2744 32.207 115.758 38.9951 174.733c3.73535 32.4473 6.56445 64.9248 8.73828 97.4229c-25.751 -29.8799 -49.7324 -61.3184 -71.3975 -94.2207c-32.1719 -48.8662 -60.7246 -104.398 -65.3633 -163.693
c-1.79297 -22.9424 0.869141 -52.8936 22.3408 -66.4902c35.2383 -22.3174 56.8389 27.7676 66.6865 52.248z" />
    <glyph glyph-name="Z" unicode="Z" horiz-adv-x="616" 
d="M410.14 327.741c2.34961 -3.27051 0.505859 -5.80078 -3.54492 -6.74121c-11.0977 -2.57031 -22.0938 -5.44629 -33.0449 -8.47168c-0.445312 -99.2812 -16.3652 -197.577 -45.5527 -292.457c15.1084 10.0244 30.7227 19.3965 47.0059 27.8721
c85.2051 44.3535 196.874 65.5977 282.592 11.1553c8.57129 -5.44336 -15.4785 -10.4688 -21.6348 -6.63477c-104.463 65.0234 -235.566 3.36523 -320.201 -69.5879c-1.05566 -3.05273 -2.06738 -6.11621 -3.1543 -9.15918
c-21.7432 -60.8945 -48.7539 -119.948 -81.1738 -175.905c-31.7275 -54.7686 -67.5908 -110.487 -118.188 -149.727c-18.7861 -14.5713 -46.7168 -16.5273 -69.3604 -12.9443c-11.4062 1.80273 -43.5479 10.5742 -33.3877 29.1729
c9.0293 16.5273 24.6807 30.2598 36.6377 44.7979c10.8799 13.2334 19.6104 28.4199 29.1631 42.6416c19.0029 28.2939 38.3018 56.6494 59.8311 83.0967c2.24805 2.76465 4.52344 5.50879 6.78809 8.25977c27.4043 51.4033 51.0254 104.749 70.2256 159.771
c30.9531 88.6895 51.2158 181.593 61.1729 275.216c-13.5898 -5.74219 -27.041 -11.8477 -40.3389 -18.3506c-5.37207 -2.62793 -24.6738 1.29102 -14.7441 6.16699c18.4941 9.08008 37.3066 17.3867 56.3604 25.0508c1.75879 18.3066 3.1748 36.6338 4.14941 54.9609
c3.03906 57.0361 6.99902 115.645 -2.94434 172.223c-8.37402 47.6338 -29.8389 107.513 -74.6064 132.282c-52.8018 29.2178 -108.993 17.5664 -149.706 -25.7783c-38.4814 -40.9707 -57.8818 -98.3438 -63.4541 -153.387
c-11.8447 -117.038 42.584 -231.339 139.871 -296.93c6.26172 -4.2207 -11.4336 -7.87793 -15.9199 -4.88281c-115.744 77.2754 -171.623 221.408 -134.676 356.353c14.0215 51.2158 42.1123 102.146 88.2549 130.893c43.4805 27.0918 98.0889 27.8047 144.001 6.17969
c55.25 -26.0225 99.1816 -66.3311 123.917 -122.505c25.4385 -57.7734 35.8369 -122.613 38.377 -185.311c0.427734 -10.541 0.611328 -21.0752 0.686523 -31.5986c7.3623 1.93555 14.752 3.77637 22.1748 5.50781c3.23926 0.756836 11.9326 2.24121 14.4248 -1.22949z" />
    <glyph glyph-name="bracketleft" unicode="[" horiz-adv-x="366" 
d="M300.874 -144.269c6.54688 1.65723 23.5762 -4.18945 10.6377 -7.79199c-34.957 -9.73242 -70.9121 -14.8877 -107.129 -9.44043c-38.665 5.81738 -68.623 32.7773 -90.7842 63.459c-44.2891 61.3223 -59.9131 132.146 -62.9082 206.635
c-3.01562 75.0381 3.9082 151.614 19.2578 225.08c15.8047 75.6318 37.1846 151.916 77.0518 218.712c18.6631 31.2725 40.291 54.0928 73.1699 69.9688c23.5703 11.3799 51.3955 14.0146 75.5195 2.97168c10.334 -4.73047 -9.00488 -9.33887 -14.2783 -7.18262
c-38.1895 15.6211 -62.8945 -18.4834 -74.834 -49.875c-11.8545 -31.1641 -17.9297 -65.9814 -24.1309 -98.666c-11.7461 -61.916 -17.8047 -123.31 -22.6572 -186.058c-4.68945 -60.6631 -6.83887 -122.505 -2.95703 -183.273
c3.70508 -58.0244 13.3633 -117.68 28.9473 -173.729c6.28223 -22.5957 15.9023 -47.3516 34.79 -62.4258c10.9072 -8.70703 21.3018 -13.9268 35.4082 -14.4229c14.9756 -0.526367 30.4541 2.3877 44.8965 6.03809z" />
    <glyph glyph-name="backslash" unicode="\" horiz-adv-x="310" 
d="M259.853 -83.8633c4.98535 -20.5723 -43.1934 -26.457 -53.7676 -27.0449c-18.915 -1.04883 -49.1445 2.08203 -55.5215 23.2275c-31.8594 105.669 -54.6016 214.38 -72.5215 323.244c-9.04004 54.9072 -17.54 110.012 -22.5967 165.438
c-2.38379 26.1279 -4.2002 52.0996 -4.90332 78.3291c-0.733398 27.3262 -2.23438 56.585 7.62402 82.5771c5.9834 15.7734 49.9766 15.4541 57.9844 2.02344c14.4219 -24.1855 18.8701 -54.2627 24.4834 -81.457c5.5791 -27.0205 10.5137 -54.0918 15.5127 -81.2246
c9.94336 -53.9639 18.8164 -108.104 29.5439 -161.928c21.625 -108.494 48.1123 -215.711 74.1621 -323.186z" />
    <glyph glyph-name="bracketright" unicode="]" horiz-adv-x="366" 
d="M301.717 308.717c13.624 -72.7256 17.8428 -149.67 12.0898 -223.411c-5.72168 -73.3604 -27.3604 -143.879 -76.4268 -200.188c-23.2373 -26.668 -53.3037 -45.1309 -89.1094 -47.749c-32.1963 -2.35352 -62.3857 1.55469 -93.4141 10.2178
c-12.9316 3.60938 3.31055 10.2178 10.0713 8.5127c31.1777 -7.8584 62.4707 -11.9268 86.9854 12.3633c19.9268 19.7471 27.7207 50.5479 33.7754 76.9844c13.1797 57.5322 22.7998 116.094 24.7148 175.175c2.00391 61.7266 -2.30566 123.147 -5.76953 184.707
c-3.51855 62.4941 -12.4736 124.805 -25.9482 185.923c-9.06348 41.1064 -26.0938 155.183 -93.7793 127.401c-5.16211 -2.11914 -24.9395 1.51465 -14.7451 6.16699c29.9414 13.6611 59.2607 6.35645 87.4053 -7.75977c35.7988 -17.957 56.3438 -52.7236 74.7695 -86.8584
c36.6074 -67.8154 55.291 -146.273 69.3809 -221.484z" />
    <glyph glyph-name="asciicircum" unicode="^" horiz-adv-x="254" 
d="M200.841 473.191c7.44727 -27.5742 0.139648 -57.6221 -9.05273 -83.8682c-6.24121 -17.835 -42.2949 -19.7061 -56.9951 -19.3125c-8.33984 0.227539 -50.3291 4.46191 -46.3457 22.1309c4.75781 21.0947 12.1025 41.582 16.3545 62.7686
c2.18652 10.9004 4.46191 21.8418 6.1123 32.8447c0.0273438 0.183594 0.0917969 0.530273 0.169922 0.9375c-6.48633 -8.0791 -11.665 -17.6729 -15.6445 -25.0586c-10.4219 -19.3389 -18.5381 -39.666 -24.96 -60.6523
c-1.84375 -6.02734 -22.3848 -5.57227 -20.3369 1.86133c6.87305 24.9492 16.0146 49.7793 29.1875 72.1543c4.8291 8.20117 10.4766 16.0459 17.3535 22.6641c2.46582 2.37402 19.4111 11.2031 20.3076 13.2715c2.94727 6.80176 15.8408 8.34375 21.8145 8.50684
c32.4746 0.893555 53.7158 -17.4375 62.0352 -48.248z" />
    <glyph glyph-name="underscore" unicode="_" horiz-adv-x="347" 
d="M255.741 -50.5977c12.0176 -1.01172 49.7988 -8.95898 39.418 -29.7207c-10.5137 -21.0273 -47.4775 -20.7217 -66.8984 -19.9912c-20.209 0.760742 -42.9648 1.02539 -68.4707 0.75c-26.5625 -0.285156 -53.9775 -2.94043 -80.3564 0.886719
c-8.0791 1.1748 -24.0195 2.79492 -28.2031 11.8008c-3.94629 8.49316 2.23047 14.4492 9.59961 18.1406c29.3809 14.7207 65.0273 16.7891 97.2129 19.2031c32.5967 2.44824 65.1426 1.67773 97.6982 -1.06934z" />
    <glyph glyph-name="grave" unicode="`" horiz-adv-x="215" 
d="M110.556 619.124c12.8428 0.712891 55.541 -2.03711 54.3086 -22.7217c-1.9082 -32.0195 -7.10352 -63.6211 -9.01562 -95.668c-0.886719 -14.877 -1.22949 -29.7715 -2.11914 -44.6348c-0.631836 -10.5547 -0.916992 -26.3896 -7.70508 -34.9365
c-8.90039 -11.2031 -28.5586 -12.4492 -41.3877 -9.25391c-36.7393 9.1582 -46.333 41.8672 -51.749 75.6592c-5.48047 34.21 -2.81152 71.5439 5.07324 105.102c5.08691 21.6416 33.8086 25.4111 52.5947 26.4541z" />
    <glyph glyph-name="a" unicode="a" horiz-adv-x="399" 
d="M407.881 95.7715c3.09375 5.12109 21.0732 3.50977 18.0273 -1.64844c-27.6826 -46.8828 -54.7539 -95.9189 -88.6514 -138.689c-11.1318 -14.0488 -25.7578 -34.2578 -43.2871 -40.3027c-22.3584 -7.71191 -50.3262 -0.31543 -66.6533 16.1406
c-36.7637 37.0518 -35.9287 103.811 -36.4854 152.524c-0.0917969 7.93262 0.00976562 15.8555 0.260742 23.7646c-14.8496 -24.6436 -31.1631 -48.2715 -49.4697 -69.9912c-17.4678 -20.7246 -35.2754 -40.5664 -60.4355 -51.667
c-23.9102 -10.5508 -56.0146 -9.04297 -76.3486 8.88672c-22.3721 19.7266 -25.5439 51.6885 -24.7256 79.7246c0.90625 31.0215 6.03027 63.8867 16.9238 93.084c22.2734 59.6885 78.709 100.208 143.118 78.6719c27.6494 -9.24707 46.3232 -28.6445 59.832 -52.0586
c3.21973 19.0986 7.16895 38.0879 11.7227 56.9316c5.1582 21.3428 33.2354 25.0645 51.8887 26.1006c11.8145 0.655273 26.5352 -0.988281 37.5381 -5.80371c4.66895 -2.04102 17.4473 -9.0293 16.0449 -16.6123c-16.5547 -89.4668 -29.6152 -179.101 -26.6777 -270.344
c0.319336 -9.92969 0.339844 -19.9678 1.21289 -29.8633c0.326172 -3.71191 2.45508 -10.4082 3.49121 -15.8818c1.83398 1.20215 3.66406 2.40723 5.49805 3.60938c4.38086 3.47363 8.46582 7.92871 12.2354 12.0342c7.59277 8.26855 14.374 17.3047 21.0566 26.3105
c27.1465 36.5869 50.3506 76.125 73.8838 115.079zM193.584 146.33c0.0273438 0.298828 0.0498047 0.598633 0.0771484 0.897461c-7.27734 20.3271 -16.334 40.2881 -30.5459 56.2422c-15.7842 17.7197 -43.7148 37.3271 -62.3984 13.916
c-16.208 -20.3076 -23.5566 -50.1436 -30.1104 -74.7021c-7.65723 -28.7021 -13.3145 -60.749 -12.7578 -90.4902c0.244141 -12.9619 0.644531 -27.2344 4.71973 -39.6738c1.00195 -3.0498 2.58789 -8.67969 4.64258 -11.2744
c4.62891 -5.83789 4.3877 -5.31152 11.5635 -0.967773c25.4854 15.4209 45.8809 39.7109 63.21 63.502c19.0469 26.1484 36.0469 53.9541 51.5996 82.5508z" />
    <glyph glyph-name="a" unicode="&#xe5;" horiz-adv-x="399" 
d="M407.881 95.7715c3.09375 5.12109 21.0732 3.50977 18.0273 -1.64844c-27.6826 -46.8828 -54.7539 -95.9189 -88.6514 -138.689c-11.1318 -14.0488 -25.7578 -34.2578 -43.2871 -40.3027c-22.3584 -7.71191 -50.3262 -0.31543 -66.6533 16.1406
c-36.7637 37.0518 -35.9287 103.811 -36.4854 152.524c-0.0917969 7.93262 0.00976562 15.8555 0.260742 23.7646c-14.8496 -24.6436 -31.1631 -48.2715 -49.4697 -69.9912c-17.4678 -20.7246 -35.2754 -40.5664 -60.4355 -51.667
c-23.9102 -10.5508 -56.0146 -9.04297 -76.3486 8.88672c-22.3721 19.7266 -25.5439 51.6885 -24.7256 79.7246c0.90625 31.0215 6.03027 63.8867 16.9238 93.084c22.2734 59.6885 78.709 100.208 143.118 78.6719c27.6494 -9.24707 46.3232 -28.6445 59.832 -52.0586
c3.21973 19.0986 7.16895 38.0879 11.7227 56.9316c5.1582 21.3428 33.2354 25.0645 51.8887 26.1006c11.8145 0.655273 26.5352 -0.988281 37.5381 -5.80371c4.66895 -2.04102 17.4473 -9.0293 16.0449 -16.6123c-16.5547 -89.4668 -29.6152 -179.101 -26.6777 -270.344
c0.319336 -9.92969 0.339844 -19.9678 1.21289 -29.8633c0.326172 -3.71191 2.45508 -10.4082 3.49121 -15.8818c1.83398 1.20215 3.66406 2.40723 5.49805 3.60938c4.38086 3.47363 8.46582 7.92871 12.2354 12.0342c7.59277 8.26855 14.374 17.3047 21.0566 26.3105
c27.1465 36.5869 50.3506 76.125 73.8838 115.079zM193.584 146.33c0.0273438 0.298828 0.0498047 0.598633 0.0771484 0.897461c-7.27734 20.3271 -16.334 40.2881 -30.5459 56.2422c-15.7842 17.7197 -43.7148 37.3271 -62.3984 13.916
c-16.208 -20.3076 -23.5566 -50.1436 -30.1104 -74.7021c-7.65723 -28.7021 -13.3145 -60.749 -12.7578 -90.4902c0.244141 -12.9619 0.644531 -27.2344 4.71973 -39.6738c1.00195 -3.0498 2.58789 -8.67969 4.64258 -11.2744
c4.62891 -5.83789 4.3877 -5.31152 11.5635 -0.967773c25.4854 15.4209 45.8809 39.7109 63.21 63.502c19.0469 26.1484 36.0469 53.9541 51.5996 82.5508z" />
    <glyph glyph-name="a" unicode="&#xe4;" horiz-adv-x="399" 
d="M407.881 95.7715c3.09375 5.12109 21.0732 3.50977 18.0273 -1.64844c-27.6826 -46.8828 -54.7539 -95.9189 -88.6514 -138.689c-11.1318 -14.0488 -25.7578 -34.2578 -43.2871 -40.3027c-22.3584 -7.71191 -50.3262 -0.31543 -66.6533 16.1406
c-36.7637 37.0518 -35.9287 103.811 -36.4854 152.524c-0.0917969 7.93262 0.00976562 15.8555 0.260742 23.7646c-14.8496 -24.6436 -31.1631 -48.2715 -49.4697 -69.9912c-17.4678 -20.7246 -35.2754 -40.5664 -60.4355 -51.667
c-23.9102 -10.5508 -56.0146 -9.04297 -76.3486 8.88672c-22.3721 19.7266 -25.5439 51.6885 -24.7256 79.7246c0.90625 31.0215 6.03027 63.8867 16.9238 93.084c22.2734 59.6885 78.709 100.208 143.118 78.6719c27.6494 -9.24707 46.3232 -28.6445 59.832 -52.0586
c3.21973 19.0986 7.16895 38.0879 11.7227 56.9316c5.1582 21.3428 33.2354 25.0645 51.8887 26.1006c11.8145 0.655273 26.5352 -0.988281 37.5381 -5.80371c4.66895 -2.04102 17.4473 -9.0293 16.0449 -16.6123c-16.5547 -89.4668 -29.6152 -179.101 -26.6777 -270.344
c0.319336 -9.92969 0.339844 -19.9678 1.21289 -29.8633c0.326172 -3.71191 2.45508 -10.4082 3.49121 -15.8818c1.83398 1.20215 3.66406 2.40723 5.49805 3.60938c4.38086 3.47363 8.46582 7.92871 12.2354 12.0342c7.59277 8.26855 14.374 17.3047 21.0566 26.3105
c27.1465 36.5869 50.3506 76.125 73.8838 115.079zM193.584 146.33c0.0273438 0.298828 0.0498047 0.598633 0.0771484 0.897461c-7.27734 20.3271 -16.334 40.2881 -30.5459 56.2422c-15.7842 17.7197 -43.7148 37.3271 -62.3984 13.916
c-16.208 -20.3076 -23.5566 -50.1436 -30.1104 -74.7021c-7.65723 -28.7021 -13.3145 -60.749 -12.7578 -90.4902c0.244141 -12.9619 0.644531 -27.2344 4.71973 -39.6738c1.00195 -3.0498 2.58789 -8.67969 4.64258 -11.2744
c4.62891 -5.83789 4.3877 -5.31152 11.5635 -0.967773c25.4854 15.4209 45.8809 39.7109 63.21 63.502c19.0469 26.1484 36.0469 53.9541 51.5996 82.5508z" />
    <glyph glyph-name="a" unicode="&#xe3;" horiz-adv-x="399" 
d="M407.881 95.7715c3.09375 5.12109 21.0732 3.50977 18.0273 -1.64844c-27.6826 -46.8828 -54.7539 -95.9189 -88.6514 -138.689c-11.1318 -14.0488 -25.7578 -34.2578 -43.2871 -40.3027c-22.3584 -7.71191 -50.3262 -0.31543 -66.6533 16.1406
c-36.7637 37.0518 -35.9287 103.811 -36.4854 152.524c-0.0917969 7.93262 0.00976562 15.8555 0.260742 23.7646c-14.8496 -24.6436 -31.1631 -48.2715 -49.4697 -69.9912c-17.4678 -20.7246 -35.2754 -40.5664 -60.4355 -51.667
c-23.9102 -10.5508 -56.0146 -9.04297 -76.3486 8.88672c-22.3721 19.7266 -25.5439 51.6885 -24.7256 79.7246c0.90625 31.0215 6.03027 63.8867 16.9238 93.084c22.2734 59.6885 78.709 100.208 143.118 78.6719c27.6494 -9.24707 46.3232 -28.6445 59.832 -52.0586
c3.21973 19.0986 7.16895 38.0879 11.7227 56.9316c5.1582 21.3428 33.2354 25.0645 51.8887 26.1006c11.8145 0.655273 26.5352 -0.988281 37.5381 -5.80371c4.66895 -2.04102 17.4473 -9.0293 16.0449 -16.6123c-16.5547 -89.4668 -29.6152 -179.101 -26.6777 -270.344
c0.319336 -9.92969 0.339844 -19.9678 1.21289 -29.8633c0.326172 -3.71191 2.45508 -10.4082 3.49121 -15.8818c1.83398 1.20215 3.66406 2.40723 5.49805 3.60938c4.38086 3.47363 8.46582 7.92871 12.2354 12.0342c7.59277 8.26855 14.374 17.3047 21.0566 26.3105
c27.1465 36.5869 50.3506 76.125 73.8838 115.079zM193.584 146.33c0.0273438 0.298828 0.0498047 0.598633 0.0771484 0.897461c-7.27734 20.3271 -16.334 40.2881 -30.5459 56.2422c-15.7842 17.7197 -43.7148 37.3271 -62.3984 13.916
c-16.208 -20.3076 -23.5566 -50.1436 -30.1104 -74.7021c-7.65723 -28.7021 -13.3145 -60.749 -12.7578 -90.4902c0.244141 -12.9619 0.644531 -27.2344 4.71973 -39.6738c1.00195 -3.0498 2.58789 -8.67969 4.64258 -11.2744
c4.62891 -5.83789 4.3877 -5.31152 11.5635 -0.967773c25.4854 15.4209 45.8809 39.7109 63.21 63.502c19.0469 26.1484 36.0469 53.9541 51.5996 82.5508z" />
    <glyph glyph-name="a" unicode="&#xe2;" horiz-adv-x="399" 
d="M407.881 95.7715c3.09375 5.12109 21.0732 3.50977 18.0273 -1.64844c-27.6826 -46.8828 -54.7539 -95.9189 -88.6514 -138.689c-11.1318 -14.0488 -25.7578 -34.2578 -43.2871 -40.3027c-22.3584 -7.71191 -50.3262 -0.31543 -66.6533 16.1406
c-36.7637 37.0518 -35.9287 103.811 -36.4854 152.524c-0.0917969 7.93262 0.00976562 15.8555 0.260742 23.7646c-14.8496 -24.6436 -31.1631 -48.2715 -49.4697 -69.9912c-17.4678 -20.7246 -35.2754 -40.5664 -60.4355 -51.667
c-23.9102 -10.5508 -56.0146 -9.04297 -76.3486 8.88672c-22.3721 19.7266 -25.5439 51.6885 -24.7256 79.7246c0.90625 31.0215 6.03027 63.8867 16.9238 93.084c22.2734 59.6885 78.709 100.208 143.118 78.6719c27.6494 -9.24707 46.3232 -28.6445 59.832 -52.0586
c3.21973 19.0986 7.16895 38.0879 11.7227 56.9316c5.1582 21.3428 33.2354 25.0645 51.8887 26.1006c11.8145 0.655273 26.5352 -0.988281 37.5381 -5.80371c4.66895 -2.04102 17.4473 -9.0293 16.0449 -16.6123c-16.5547 -89.4668 -29.6152 -179.101 -26.6777 -270.344
c0.319336 -9.92969 0.339844 -19.9678 1.21289 -29.8633c0.326172 -3.71191 2.45508 -10.4082 3.49121 -15.8818c1.83398 1.20215 3.66406 2.40723 5.49805 3.60938c4.38086 3.47363 8.46582 7.92871 12.2354 12.0342c7.59277 8.26855 14.374 17.3047 21.0566 26.3105
c27.1465 36.5869 50.3506 76.125 73.8838 115.079zM193.584 146.33c0.0273438 0.298828 0.0498047 0.598633 0.0771484 0.897461c-7.27734 20.3271 -16.334 40.2881 -30.5459 56.2422c-15.7842 17.7197 -43.7148 37.3271 -62.3984 13.916
c-16.208 -20.3076 -23.5566 -50.1436 -30.1104 -74.7021c-7.65723 -28.7021 -13.3145 -60.749 -12.7578 -90.4902c0.244141 -12.9619 0.644531 -27.2344 4.71973 -39.6738c1.00195 -3.0498 2.58789 -8.67969 4.64258 -11.2744
c4.62891 -5.83789 4.3877 -5.31152 11.5635 -0.967773c25.4854 15.4209 45.8809 39.7109 63.21 63.502c19.0469 26.1484 36.0469 53.9541 51.5996 82.5508z" />
    <glyph glyph-name="a" unicode="&#xe1;" horiz-adv-x="399" 
d="M407.881 95.7715c3.09375 5.12109 21.0732 3.50977 18.0273 -1.64844c-27.6826 -46.8828 -54.7539 -95.9189 -88.6514 -138.689c-11.1318 -14.0488 -25.7578 -34.2578 -43.2871 -40.3027c-22.3584 -7.71191 -50.3262 -0.31543 -66.6533 16.1406
c-36.7637 37.0518 -35.9287 103.811 -36.4854 152.524c-0.0917969 7.93262 0.00976562 15.8555 0.260742 23.7646c-14.8496 -24.6436 -31.1631 -48.2715 -49.4697 -69.9912c-17.4678 -20.7246 -35.2754 -40.5664 -60.4355 -51.667
c-23.9102 -10.5508 -56.0146 -9.04297 -76.3486 8.88672c-22.3721 19.7266 -25.5439 51.6885 -24.7256 79.7246c0.90625 31.0215 6.03027 63.8867 16.9238 93.084c22.2734 59.6885 78.709 100.208 143.118 78.6719c27.6494 -9.24707 46.3232 -28.6445 59.832 -52.0586
c3.21973 19.0986 7.16895 38.0879 11.7227 56.9316c5.1582 21.3428 33.2354 25.0645 51.8887 26.1006c11.8145 0.655273 26.5352 -0.988281 37.5381 -5.80371c4.66895 -2.04102 17.4473 -9.0293 16.0449 -16.6123c-16.5547 -89.4668 -29.6152 -179.101 -26.6777 -270.344
c0.319336 -9.92969 0.339844 -19.9678 1.21289 -29.8633c0.326172 -3.71191 2.45508 -10.4082 3.49121 -15.8818c1.83398 1.20215 3.66406 2.40723 5.49805 3.60938c4.38086 3.47363 8.46582 7.92871 12.2354 12.0342c7.59277 8.26855 14.374 17.3047 21.0566 26.3105
c27.1465 36.5869 50.3506 76.125 73.8838 115.079zM193.584 146.33c0.0273438 0.298828 0.0498047 0.598633 0.0771484 0.897461c-7.27734 20.3271 -16.334 40.2881 -30.5459 56.2422c-15.7842 17.7197 -43.7148 37.3271 -62.3984 13.916
c-16.208 -20.3076 -23.5566 -50.1436 -30.1104 -74.7021c-7.65723 -28.7021 -13.3145 -60.749 -12.7578 -90.4902c0.244141 -12.9619 0.644531 -27.2344 4.71973 -39.6738c1.00195 -3.0498 2.58789 -8.67969 4.64258 -11.2744
c4.62891 -5.83789 4.3877 -5.31152 11.5635 -0.967773c25.4854 15.4209 45.8809 39.7109 63.21 63.502c19.0469 26.1484 36.0469 53.9541 51.5996 82.5508z" />
    <glyph glyph-name="b" unicode="b" horiz-adv-x="413" 
d="M439.601 113.892c7.65039 -6.22168 -14.6807 -10.4365 -20.002 -6.13086c-31.2148 25.2314 -67.9277 29.626 -104.776 21.7373c4.15625 -22.1338 5.87109 -44.4072 6.3291 -64.0518c1.37891 -59.1289 -12.666 -120.78 -33.5 -175.919
c-20.4502 -54.1162 -55.4209 -115.055 -116.309 -129.738c-25.8389 -6.23145 -58.9688 -8.12988 -83.3818 4.00684c-18.7861 9.33887 -30.291 28.1582 -36.5771 47.5283c-15.1592 46.71 8.12305 104.826 29.5781 146.256c2.71289 5.24023 5.56543 10.4092 8.54395 15.5098
c-18.8975 -1.0459 -39.9648 4.07812 -46.4268 12.7744c-37.6191 50.6426 -45.0117 112.997 -52.5908 174.048c-6.77441 54.5547 -9.5625 109.972 -9.48438 164.927c0.135742 97.1582 11.6543 195.723 46.9473 286.799c17.458 45.0557 47.1035 90.3701 89.0146 115.771
c22.0527 13.3623 54.958 21.9365 79.8359 11.3818c17.3525 -7.3623 20.9658 -28.4678 21.7402 -45.4502c1.07617 -23.6182 -3.6377 -47.4062 -7.75684 -70.5215c-4.52637 -25.4043 -9.31152 -50.7949 -14.6123 -76.0498
c-10.2793 -48.9785 -22.6201 -97.5088 -35.8125 -145.777c-17.7295 -64.8604 -37.0381 -129.283 -55.2266 -194.015c1.62988 -23.9404 3.61328 -47.8604 5.85449 -71.7129c0.339844 -3.62305 0.719727 -7.23633 1.11719 -10.8428
c27.3262 83.0254 78.2842 165.272 152.819 104.338c25.5811 -20.915 39.9219 -54.123 47.7324 -88.7773c44.7539 8.95117 89.9521 3.99316 126.943 -26.0908zM125.553 539.302c-20.6641 -81.3477 -26.1426 -166.099 -24.2988 -249.857
c10.1875 35.8975 20.375 71.7949 30.1113 107.818c12.7314 47.1006 24.6406 94.4355 34.6211 142.198c9.08691 43.501 21.0879 91.2705 19.5498 135.97c-0.271484 7.8584 -1.49023 16.3174 -4.52637 23.8799c-6.43164 -12.707 -12.4082 -25.8525 -17.4678 -39.0762
c-15.0303 -39.293 -27.6357 -80.1689 -37.9893 -120.933zM199.771 -79.5449c19.8047 57.2129 32.5742 116.736 38.6973 176.962c-35.5986 -21.7432 -67.2891 -50.2109 -89.1104 -75.9375c-29.1191 -34.3252 -51.6094 -74.3555 -65.3252 -117.248
c-7.81348 -24.4365 -13.3184 -51.4473 -8.47266 -77.0586c2.4209 -12.7988 7.375 -24.2119 16.252 -33.7881c6.05859 -6.53711 17.6113 -16.6055 27.4053 -14.6934c6.26562 7.53223 14.1035 13.3428 19.6592 21.6523c8.03125 12.0078 15.0127 24.9932 22.3984 37.4326
c15.6484 26.3584 28.4609 53.6885 38.4961 82.6787zM240.014 114.102c2.4248 29.6865 5.53809 63.5742 -0.709961 92.8838c-3.56543 16.7412 -14.8564 40.3252 -36.8652 29.3359c-14.0654 -7.02246 -24.8877 -24.2627 -33.0137 -37.1299
c-15.3359 -24.2842 -25.4219 -51.4443 -34.6182 -78.5127c-5.91211 -17.4004 -11.3418 -34.9092 -15.6338 -52.6729c1.88477 -15.584 3.43652 -31.1807 4.00684 -46.9102c14.2354 17.1562 30.0264 33.0186 47.1045 47.2471c19.7871 16.4834 43.7412 32.6309 69.7295 45.7588
z" />
    <glyph glyph-name="c" unicode="c" horiz-adv-x="257" 
d="M265.771 108.539c2.81543 5.05273 20.417 3.66992 17.5684 -1.60742c-32.3896 -59.9541 -65.4551 -122.146 -115.615 -169.419c-19.0029 -17.9102 -40.8447 -37.249 -67.4609 -41.2559c-32.1689 -4.84277 -63.3223 7.96973 -84.0811 32.4473
c-20.4463 24.1074 -28.0293 58.4834 -32.2881 89.0293c-4.50586 32.3018 -3.77539 66.9971 2.41211 99.0576c10.8057 56.0039 39.915 141.739 104.973 153.951c25.0684 4.70312 42.1562 -5.53223 47.4473 -30.21c6.70312 -31.2725 6.60156 -65.6523 5.24707 -97.4541
c-0.367188 -8.6084 -26.0088 -8.89062 -25.7715 -0.900391c0.94043 31.626 1.2832 66.8135 -8.17773 97.3525c0.223633 -0.730469 -1.32812 2.34277 -2.60156 5.96582c-1.56543 -4.08203 -2.98145 -8.19824 -3.19238 -8.78613
c-5.01953 -14.0723 -8.32715 -27.9209 -10.8506 -42.6553c-10.1367 -59.1797 -18.5146 -122.146 -14.1406 -182.215c1.93262 -26.5254 4.78516 -57.6006 15.2441 -82.3662c1.75586 -4.15332 4.19727 -11.7842 8.92383 -13.6719
c9.55957 -3.81738 23.9883 7.80273 30.7969 12.9844c10.418 7.93262 20.0381 17.2783 29.0811 26.7188c42.6348 44.5029 72.7119 99.5938 102.486 153.034z" />
    <glyph glyph-name="d" unicode="d" horiz-adv-x="560" 
d="M568.319 102.698c1.99316 5.22949 19.8213 4.95996 18.0215 -1.64844c-13.1348 -48.2207 -31.1191 -94.8662 -53.5488 -139.569c-25.5977 -51.0195 -58.2148 -102.398 -104.531 -137.07c-45.6572 -34.1758 -104.936 -40.0918 -148.603 1.03223
c-52.6318 49.5654 -72.9355 122.875 -79.5576 192.643c-3.07031 32.332 -4.52344 64.7148 -4.47559 97.0605c-16.0449 -27.3877 -33.8223 -53.6338 -54.0039 -77.5742c-17.4678 -20.7246 -35.2754 -40.5664 -60.4355 -51.667
c-23.9102 -10.5508 -56.0146 -9.04297 -76.3486 8.88672c-22.3721 19.7266 -25.5439 51.6885 -24.7256 79.7246c0.90625 31.0215 6.03027 63.8867 16.9238 93.084c22.2734 59.6885 78.709 100.208 143.118 78.6719c26.9023 -8.99609 45.3047 -27.5986 58.7217 -50.1602
c7.14844 91.4268 25.8828 181.93 54.2725 269.413c11.1787 34.4541 24.7793 69.6621 43.2734 100.891c17.8623 30.1621 43.1211 64.1475 74.7402 81.1738c24.7559 13.332 71.9951 18.3818 86.7295 -12.2041c6.78516 -14.0859 4.66992 -32.6543 3.58008 -47.6533
c-1.31445 -18.0928 -4.18359 -36.1992 -7.63379 -54.0039c-12.5547 -64.8203 -35.1982 -129.308 -67.2783 -187.058c-21.5742 -38.8379 -47.4775 -75.041 -73.6523 -110.966c-7.09375 -53.0537 -11.1484 -106.508 -12.6865 -160.189
c-1.38867 -48.4727 -0.43457 -97.4404 3.11426 -145.801c1.65039 -22.4971 1.53125 -46.6855 6.41113 -68.6807c3.49805 -15.7666 10.6973 -33.5576 23.1562 -44.3906c32.6748 -28.4131 79.9385 14.582 102.925 37.9863c24.6543 25.1025 44.5645 54.6562 61.7988 85.2119
c29.1836 51.7393 49.582 107.522 70.6943 162.857zM338.224 371.01c-7.32129 -29.9277 -13.4668 -60.0361 -18.5576 -90.2969c22.4775 32.8682 43.4707 66.667 60.1338 102.985c18.1885 39.6328 31.9619 81.6221 42.1055 124.009
c5.4707 22.8672 9.57617 45.8945 10.2148 69.4414c0.295898 10.9385 0.455078 22.3115 -1.19824 33.1445c-0.523438 3.43359 -1.29102 7.0127 -2.44922 10.4014c-5.40918 -10.3066 -11.8955 -20.4092 -16.5547 -30.7295
c-9.58691 -21.2275 -17.9268 -42.6318 -25.9414 -64.5078c-18.46 -50.4014 -34.9912 -102.304 -47.7529 -154.447zM141.992 63.7842c19.1455 26.2842 36.2188 54.2471 51.8359 83.0029c-7.30078 20.4805 -16.3916 40.6182 -30.7051 56.6875
c-15.7842 17.7197 -43.7148 37.3271 -62.3984 13.916c-16.208 -20.3076 -23.5566 -50.1436 -30.1104 -74.7021c-7.65723 -28.7021 -13.3145 -60.749 -12.7578 -90.4902c0.244141 -12.9619 0.644531 -27.2344 4.71973 -39.6738
c1.00195 -3.0498 2.58789 -8.67969 4.64258 -11.2744c4.62891 -5.83789 4.3877 -5.31152 11.5635 -0.967773c25.4854 15.4209 45.8809 39.7109 63.21 63.502z" />
    <glyph glyph-name="e" unicode="e" horiz-adv-x="257" 
d="M265.246 108.539c2.81543 5.05273 20.4189 3.66699 17.5732 -1.60645c-35.7783 -66.2227 -72.8301 -136.537 -132.808 -184.3c-26.1006 -20.7822 -52.4385 -32.542 -86.458 -24.1475c-36.1729 8.92383 -57.292 38.0498 -69.1875 71.4785
c-24.1074 67.7305 -16.3105 149.978 11.7832 215.175c13.8682 32.1855 35.0479 67.0781 68.707 81.4189c25.9238 11.0469 54.5674 8.01758 62.4727 -21.5059c4.81152 -17.9707 5.33496 -41.1982 -7.53223 -56.0996c-10.0312 -11.6172 -24.8369 -16.1064 -39.9316 -17.4785
c-2.12598 -16.0762 -3.7666 -32.2334 -5.75977 -48.1875c-4.01074 -32.1006 -7.09082 -63.6611 -6.25195 -96.0879c0.760742 -29.3398 4.56055 -60.4492 12.3096 -88.8076c1.51074 -5.53223 3.56836 -11.9336 6.78418 -16.7451
c6.06836 -9.08691 14.2559 -6.36328 23.3633 -1.83691c14.5068 7.20898 27.248 20.2764 38.543 31.6729c44.7236 45.127 75.7314 102.018 106.393 157.058zM97.752 215.838c-2.43848 -10.0723 -4.30957 -20.2998 -5.90234 -30.5889
c13.998 4.70996 22.1553 16.5312 20.9873 35.1367c-0.305664 4.87988 -1.16504 9.80371 -2.33691 14.5439c-0.587891 2.70605 -1.42285 5.33105 -2.37695 7.92188c-4.17383 -10.4795 -9.8584 -24.8916 -10.3711 -27.0137z" />
    <glyph glyph-name="e" unicode="&#xeb;" horiz-adv-x="257" 
d="M265.246 108.539c2.81543 5.05273 20.4189 3.66699 17.5732 -1.60645c-35.7783 -66.2227 -72.8301 -136.537 -132.808 -184.3c-26.1006 -20.7822 -52.4385 -32.542 -86.458 -24.1475c-36.1729 8.92383 -57.292 38.0498 -69.1875 71.4785
c-24.1074 67.7305 -16.3105 149.978 11.7832 215.175c13.8682 32.1855 35.0479 67.0781 68.707 81.4189c25.9238 11.0469 54.5674 8.01758 62.4727 -21.5059c4.81152 -17.9707 5.33496 -41.1982 -7.53223 -56.0996c-10.0312 -11.6172 -24.8369 -16.1064 -39.9316 -17.4785
c-2.12598 -16.0762 -3.7666 -32.2334 -5.75977 -48.1875c-4.01074 -32.1006 -7.09082 -63.6611 -6.25195 -96.0879c0.760742 -29.3398 4.56055 -60.4492 12.3096 -88.8076c1.51074 -5.53223 3.56836 -11.9336 6.78418 -16.7451
c6.06836 -9.08691 14.2559 -6.36328 23.3633 -1.83691c14.5068 7.20898 27.248 20.2764 38.543 31.6729c44.7236 45.127 75.7314 102.018 106.393 157.058zM97.752 215.838c-2.43848 -10.0723 -4.30957 -20.2998 -5.90234 -30.5889
c13.998 4.70996 22.1553 16.5312 20.9873 35.1367c-0.305664 4.87988 -1.16504 9.80371 -2.33691 14.5439c-0.587891 2.70605 -1.42285 5.33105 -2.37695 7.92188c-4.17383 -10.4795 -9.8584 -24.8916 -10.3711 -27.0137z" />
    <glyph glyph-name="e" unicode="&#xea;" horiz-adv-x="257" 
d="M265.246 108.539c2.81543 5.05273 20.4189 3.66699 17.5732 -1.60645c-35.7783 -66.2227 -72.8301 -136.537 -132.808 -184.3c-26.1006 -20.7822 -52.4385 -32.542 -86.458 -24.1475c-36.1729 8.92383 -57.292 38.0498 -69.1875 71.4785
c-24.1074 67.7305 -16.3105 149.978 11.7832 215.175c13.8682 32.1855 35.0479 67.0781 68.707 81.4189c25.9238 11.0469 54.5674 8.01758 62.4727 -21.5059c4.81152 -17.9707 5.33496 -41.1982 -7.53223 -56.0996c-10.0312 -11.6172 -24.8369 -16.1064 -39.9316 -17.4785
c-2.12598 -16.0762 -3.7666 -32.2334 -5.75977 -48.1875c-4.01074 -32.1006 -7.09082 -63.6611 -6.25195 -96.0879c0.760742 -29.3398 4.56055 -60.4492 12.3096 -88.8076c1.51074 -5.53223 3.56836 -11.9336 6.78418 -16.7451
c6.06836 -9.08691 14.2559 -6.36328 23.3633 -1.83691c14.5068 7.20898 27.248 20.2764 38.543 31.6729c44.7236 45.127 75.7314 102.018 106.393 157.058zM97.752 215.838c-2.43848 -10.0723 -4.30957 -20.2998 -5.90234 -30.5889
c13.998 4.70996 22.1553 16.5312 20.9873 35.1367c-0.305664 4.87988 -1.16504 9.80371 -2.33691 14.5439c-0.587891 2.70605 -1.42285 5.33105 -2.37695 7.92188c-4.17383 -10.4795 -9.8584 -24.8916 -10.3711 -27.0137z" />
    <glyph glyph-name="e" unicode="&#xe9;" horiz-adv-x="257" 
d="M265.246 108.539c2.81543 5.05273 20.4189 3.66699 17.5732 -1.60645c-35.7783 -66.2227 -72.8301 -136.537 -132.808 -184.3c-26.1006 -20.7822 -52.4385 -32.542 -86.458 -24.1475c-36.1729 8.92383 -57.292 38.0498 -69.1875 71.4785
c-24.1074 67.7305 -16.3105 149.978 11.7832 215.175c13.8682 32.1855 35.0479 67.0781 68.707 81.4189c25.9238 11.0469 54.5674 8.01758 62.4727 -21.5059c4.81152 -17.9707 5.33496 -41.1982 -7.53223 -56.0996c-10.0312 -11.6172 -24.8369 -16.1064 -39.9316 -17.4785
c-2.12598 -16.0762 -3.7666 -32.2334 -5.75977 -48.1875c-4.01074 -32.1006 -7.09082 -63.6611 -6.25195 -96.0879c0.760742 -29.3398 4.56055 -60.4492 12.3096 -88.8076c1.51074 -5.53223 3.56836 -11.9336 6.78418 -16.7451
c6.06836 -9.08691 14.2559 -6.36328 23.3633 -1.83691c14.5068 7.20898 27.248 20.2764 38.543 31.6729c44.7236 45.127 75.7314 102.018 106.393 157.058zM97.752 215.838c-2.43848 -10.0723 -4.30957 -20.2998 -5.90234 -30.5889
c13.998 4.70996 22.1553 16.5312 20.9873 35.1367c-0.305664 4.87988 -1.16504 9.80371 -2.33691 14.5439c-0.587891 2.70605 -1.42285 5.33105 -2.37695 7.92188c-4.17383 -10.4795 -9.8584 -24.8916 -10.3711 -27.0137z" />
    </font>
</defs>
</svg>
